<mxfile host="app.diagrams.net" modified="2021-12-17T20:20:35.597Z" agent="5.0 (Macintosh)" etag="WAC5zyid0dKRcP4_63d8" version="15.9.6" type="github">
  <diagram id="KCqNe5kbPb-Tkl5RHsjK" name="Page-1">
    <mxGraphModel dx="2626" dy="1167" grid="0" gridSize="10" guides="1" tooltips="1" connect="1" arrows="1" fold="1" page="0" pageScale="1" pageWidth="850" pageHeight="1100" math="0" shadow="1">
      <root>
        <mxCell id="0" />
        <mxCell id="1" parent="0" />
        <mxCell id="RZ0_6Ih5bEzpeEGCjAap-296" style="edgeStyle=orthogonalEdgeStyle;comic=0;orthogonalLoop=1;jettySize=auto;html=1;entryX=0.5;entryY=0;entryDx=0;entryDy=0;shadow=0;fontSize=10;fontColor=none;startArrow=none;startFill=0;endArrow=block;endFill=1;endSize=6;targetPerimeterSpacing=0;strokeColor=#FF3333;strokeWidth=1;elbow=vertical;dashed=1;" parent="1" source="RZ0_6Ih5bEzpeEGCjAap-245" target="RZ0_6Ih5bEzpeEGCjAap-70" edge="1">
          <mxGeometry relative="1" as="geometry">
            <mxPoint x="130" y="821.1799999999998" as="targetPoint" />
            <Array as="points">
              <mxPoint x="288" y="870" />
              <mxPoint x="130" y="870" />
            </Array>
          </mxGeometry>
        </mxCell>
        <mxCell id="RZ0_6Ih5bEzpeEGCjAap-298" style="edgeStyle=orthogonalEdgeStyle;comic=0;orthogonalLoop=1;jettySize=auto;html=1;entryX=0.5;entryY=0;entryDx=0;entryDy=0;shadow=0;dashed=1;fontSize=10;fontColor=none;startArrow=none;startFill=0;endArrow=block;endFill=1;endSize=6;targetPerimeterSpacing=0;strokeColor=#3333FF;strokeWidth=1;elbow=vertical;" parent="1" source="RZ0_6Ih5bEzpeEGCjAap-245" target="RZ0_6Ih5bEzpeEGCjAap-290" edge="1">
          <mxGeometry relative="1" as="geometry">
            <mxPoint x="790" y="851.1799999999998" as="targetPoint" />
            <Array as="points">
              <mxPoint x="288" y="910" />
              <mxPoint x="790" y="910" />
            </Array>
          </mxGeometry>
        </mxCell>
        <mxCell id="RZ0_6Ih5bEzpeEGCjAap-304" style="edgeStyle=orthogonalEdgeStyle;comic=0;orthogonalLoop=1;jettySize=auto;html=1;shadow=0;dashed=1;fontSize=10;fontColor=none;startArrow=block;startFill=1;endArrow=none;endFill=0;endSize=6;targetPerimeterSpacing=0;strokeColor=#3333FF;strokeWidth=1;elbow=vertical;" parent="1" source="RZ0_6Ih5bEzpeEGCjAap-245" target="RZ0_6Ih5bEzpeEGCjAap-301" edge="1">
          <mxGeometry relative="1" as="geometry">
            <Array as="points">
              <mxPoint x="288" y="1120" />
            </Array>
          </mxGeometry>
        </mxCell>
        <mxCell id="RZ0_6Ih5bEzpeEGCjAap-245" value="" style="sketch=0;pointerEvents=1;shadow=0;dashed=0;strokeColor=none;fillColor=#505050;labelPosition=center;verticalLabelPosition=bottom;outlineConnect=0;verticalAlign=top;align=center;shape=mxgraph.office.clouds.cloud;rounded=0;labelBackgroundColor=none;comic=0;fontSize=10;fontColor=none;strokeWidth=1;perimeterSpacing=0;noLabel=0;html=1;" parent="1" vertex="1">
          <mxGeometry x="138" y="914.25" width="300" height="182" as="geometry" />
        </mxCell>
        <mxCell id="RZ0_6Ih5bEzpeEGCjAap-5" value="&amp;nbsp;&amp;nbsp;&amp;nbsp;&amp;nbsp;&amp;nbsp;&amp;nbsp; Network Account" style="points=[[0,0],[0.25,0],[0.5,0],[0.75,0],[1,0],[1,0.25],[1,0.5],[1,0.75],[1,1],[0.75,1],[0.5,1],[0.25,1],[0,1],[0,0.75],[0,0.5],[0,0.25]];outlineConnect=0;gradientColor=none;html=1;whiteSpace=wrap;fontSize=12;fontStyle=0;container=1;pointerEvents=0;collapsible=0;recursiveResize=0;shape=mxgraph.aws4.group;grIcon=mxgraph.aws4.group_aws_cloud_alt;strokeColor=#232F3E;fillColor=none;verticalAlign=top;align=left;spacingLeft=5;fontColor=#232F3E;dashed=0;strokeWidth=2;comic=0;" parent="1" vertex="1">
          <mxGeometry x="160" y="120" width="760" height="380" as="geometry" />
        </mxCell>
        <mxCell id="RZ0_6Ih5bEzpeEGCjAap-2" value="US-East-1" style="fillColor=none;strokeColor=#147EBA;dashed=1;verticalAlign=top;fontStyle=0;fontColor=#147EBA;comic=0;" parent="RZ0_6Ih5bEzpeEGCjAap-5" vertex="1">
          <mxGeometry x="50" y="37" width="170" height="140" as="geometry" />
        </mxCell>
        <mxCell id="RZ0_6Ih5bEzpeEGCjAap-49" style="edgeStyle=orthogonalEdgeStyle;rounded=1;orthogonalLoop=1;jettySize=auto;html=1;entryX=1;entryY=0.5;entryDx=0;entryDy=0;startArrow=classic;startFill=1;comic=0;" parent="RZ0_6Ih5bEzpeEGCjAap-5" source="RZ0_6Ih5bEzpeEGCjAap-4" target="RZ0_6Ih5bEzpeEGCjAap-2" edge="1">
          <mxGeometry relative="1" as="geometry">
            <Array as="points">
              <mxPoint x="280" y="190" />
              <mxPoint x="280" y="107" />
            </Array>
          </mxGeometry>
        </mxCell>
        <mxCell id="RZ0_6Ih5bEzpeEGCjAap-50" style="edgeStyle=orthogonalEdgeStyle;rounded=1;orthogonalLoop=1;jettySize=auto;html=1;entryX=1;entryY=0.5;entryDx=0;entryDy=0;startArrow=classic;startFill=1;comic=0;" parent="RZ0_6Ih5bEzpeEGCjAap-5" source="RZ0_6Ih5bEzpeEGCjAap-4" target="RZ0_6Ih5bEzpeEGCjAap-43" edge="1">
          <mxGeometry relative="1" as="geometry">
            <Array as="points">
              <mxPoint x="280" y="190" />
              <mxPoint x="280" y="272" />
            </Array>
          </mxGeometry>
        </mxCell>
        <mxCell id="RZ0_6Ih5bEzpeEGCjAap-51" style="edgeStyle=orthogonalEdgeStyle;rounded=1;orthogonalLoop=1;jettySize=auto;html=1;startArrow=classic;startFill=1;comic=0;" parent="RZ0_6Ih5bEzpeEGCjAap-5" source="RZ0_6Ih5bEzpeEGCjAap-4" target="RZ0_6Ih5bEzpeEGCjAap-29" edge="1">
          <mxGeometry relative="1" as="geometry">
            <Array as="points">
              <mxPoint x="480" y="190" />
              <mxPoint x="480" y="108" />
            </Array>
          </mxGeometry>
        </mxCell>
        <mxCell id="RZ0_6Ih5bEzpeEGCjAap-52" style="edgeStyle=orthogonalEdgeStyle;rounded=1;orthogonalLoop=1;jettySize=auto;html=1;entryX=0;entryY=0.5;entryDx=0;entryDy=0;startArrow=classic;startFill=1;comic=0;" parent="RZ0_6Ih5bEzpeEGCjAap-5" source="RZ0_6Ih5bEzpeEGCjAap-4" target="RZ0_6Ih5bEzpeEGCjAap-38" edge="1">
          <mxGeometry relative="1" as="geometry">
            <Array as="points">
              <mxPoint x="480" y="190" />
              <mxPoint x="480" y="272" />
            </Array>
          </mxGeometry>
        </mxCell>
        <mxCell id="RZ0_6Ih5bEzpeEGCjAap-4" value="" style="sketch=0;points=[[0,0,0],[0.25,0,0],[0.5,0,0],[0.75,0,0],[1,0,0],[0,1,0],[0.25,1,0],[0.5,1,0],[0.75,1,0],[1,1,0],[0,0.25,0],[0,0.5,0],[0,0.75,0],[1,0.25,0],[1,0.5,0],[1,0.75,0]];outlineConnect=0;fontColor=#232F3E;strokeColor=#4D27AA;dashed=0;verticalLabelPosition=bottom;verticalAlign=top;align=center;html=1;fontSize=12;fontStyle=0;aspect=fixed;shape=mxgraph.aws4.resourceIcon;resIcon=mxgraph.aws4.transit_gateway;fillColor=none;comic=0;" parent="RZ0_6Ih5bEzpeEGCjAap-5" vertex="1">
          <mxGeometry x="336" y="146" width="88" height="88" as="geometry" />
        </mxCell>
        <mxCell id="RZ0_6Ih5bEzpeEGCjAap-43" value="SA-East-1" style="fillColor=none;strokeColor=#147EBA;dashed=1;verticalAlign=top;fontStyle=0;fontColor=#147EBA;comic=0;" parent="RZ0_6Ih5bEzpeEGCjAap-5" vertex="1">
          <mxGeometry x="45" y="202" width="170" height="140" as="geometry" />
        </mxCell>
        <mxCell id="RZ0_6Ih5bEzpeEGCjAap-29" value="EU-North-1" style="fillColor=none;strokeColor=#147EBA;dashed=1;verticalAlign=top;fontStyle=0;fontColor=#147EBA;comic=0;" parent="RZ0_6Ih5bEzpeEGCjAap-5" vertex="1">
          <mxGeometry x="540" y="38" width="170" height="140" as="geometry" />
        </mxCell>
        <mxCell id="RZ0_6Ih5bEzpeEGCjAap-38" value="AP-Southeast-2" style="fillColor=none;strokeColor=#147EBA;dashed=1;verticalAlign=top;fontStyle=0;fontColor=#147EBA;comic=0;" parent="RZ0_6Ih5bEzpeEGCjAap-5" vertex="1">
          <mxGeometry x="540" y="202" width="170" height="140" as="geometry" />
        </mxCell>
        <mxCell id="RZ0_6Ih5bEzpeEGCjAap-76" value="" style="sketch=0;points=[[0,0,0],[0.25,0,0],[0.5,0,0],[0.75,0,0],[1,0,0],[0,1,0],[0.25,1,0],[0.5,1,0],[0.75,1,0],[1,1,0],[0,0.25,0],[0,0.5,0],[0,0.75,0],[1,0.25,0],[1,0.5,0],[1,0.75,0]];outlineConnect=0;fontColor=#232F3E;strokeColor=#4D27AA;dashed=0;verticalLabelPosition=bottom;verticalAlign=top;align=center;html=1;fontSize=12;fontStyle=0;aspect=fixed;shape=mxgraph.aws4.resourceIcon;resIcon=mxgraph.aws4.transit_gateway;fillColor=none;comic=0;" parent="RZ0_6Ih5bEzpeEGCjAap-5" vertex="1">
          <mxGeometry x="197" y="203" width="18" height="18" as="geometry" />
        </mxCell>
        <mxCell id="RZ0_6Ih5bEzpeEGCjAap-75" value="" style="sketch=0;points=[[0,0,0],[0.25,0,0],[0.5,0,0],[0.75,0,0],[1,0,0],[0,1,0],[0.25,1,0],[0.5,1,0],[0.75,1,0],[1,1,0],[0,0.25,0],[0,0.5,0],[0,0.75,0],[1,0.25,0],[1,0.5,0],[1,0.75,0]];outlineConnect=0;fontColor=#232F3E;strokeColor=#4D27AA;dashed=0;verticalLabelPosition=bottom;verticalAlign=top;align=center;html=1;fontSize=12;fontStyle=0;aspect=fixed;shape=mxgraph.aws4.resourceIcon;resIcon=mxgraph.aws4.transit_gateway;fillColor=none;comic=0;" parent="RZ0_6Ih5bEzpeEGCjAap-5" vertex="1">
          <mxGeometry x="692" y="203" width="18" height="18" as="geometry" />
        </mxCell>
        <mxCell id="RZ0_6Ih5bEzpeEGCjAap-74" value="" style="sketch=0;points=[[0,0,0],[0.25,0,0],[0.5,0,0],[0.75,0,0],[1,0,0],[0,1,0],[0.25,1,0],[0.5,1,0],[0.75,1,0],[1,1,0],[0,0.25,0],[0,0.5,0],[0,0.75,0],[1,0.25,0],[1,0.5,0],[1,0.75,0]];outlineConnect=0;fontColor=#232F3E;strokeColor=#4D27AA;dashed=0;verticalLabelPosition=bottom;verticalAlign=top;align=center;html=1;fontSize=12;fontStyle=0;aspect=fixed;shape=mxgraph.aws4.resourceIcon;resIcon=mxgraph.aws4.transit_gateway;fillColor=none;comic=0;" parent="RZ0_6Ih5bEzpeEGCjAap-5" vertex="1">
          <mxGeometry x="692" y="38" width="18" height="18" as="geometry" />
        </mxCell>
        <mxCell id="RZ0_6Ih5bEzpeEGCjAap-19" value="Transit VPC" style="points=[[0,0],[0.25,0],[0.5,0],[0.75,0],[1,0],[1,0.25],[1,0.5],[1,0.75],[1,1],[0.75,1],[0.5,1],[0.25,1],[0,1],[0,0.75],[0,0.5],[0,0.25]];outlineConnect=0;gradientColor=none;html=1;whiteSpace=wrap;fontSize=12;fontStyle=0;container=1;pointerEvents=0;collapsible=0;recursiveResize=0;shape=mxgraph.aws4.group;grIcon=mxgraph.aws4.group_vpc;strokeColor=#248814;fillColor=none;verticalAlign=top;align=left;spacingLeft=30;fontColor=#AAB7B8;dashed=0;comic=0;" parent="RZ0_6Ih5bEzpeEGCjAap-5" vertex="1">
          <mxGeometry x="70" y="63" width="130" height="97" as="geometry" />
        </mxCell>
        <mxCell id="RZ0_6Ih5bEzpeEGCjAap-84" value="" style="sketch=0;outlineConnect=0;fontColor=#232F3E;gradientColor=none;fillColor=#4D27AA;strokeColor=none;dashed=0;verticalLabelPosition=bottom;verticalAlign=top;align=center;html=1;fontSize=12;fontStyle=0;aspect=fixed;pointerEvents=1;shape=mxgraph.aws4.network_load_balancer;rounded=0;comic=0;" parent="RZ0_6Ih5bEzpeEGCjAap-19" vertex="1">
          <mxGeometry x="80" y="49.579999999999984" width="30" height="30" as="geometry" />
        </mxCell>
        <mxCell id="RZ0_6Ih5bEzpeEGCjAap-85" value="" style="sketch=0;outlineConnect=0;fontColor=#232F3E;gradientColor=none;fillColor=#4D27AA;strokeColor=none;dashed=0;verticalLabelPosition=bottom;verticalAlign=top;align=center;html=1;fontSize=12;fontStyle=0;aspect=fixed;pointerEvents=1;shape=mxgraph.aws4.gateway_load_balancer;rounded=0;comic=0;" parent="RZ0_6Ih5bEzpeEGCjAap-19" vertex="1">
          <mxGeometry x="20" y="49.579999999999984" width="30" height="30" as="geometry" />
        </mxCell>
        <mxCell id="RZ0_6Ih5bEzpeEGCjAap-86" value="" style="sketch=0;outlineConnect=0;fontColor=#232F3E;gradientColor=none;fillColor=#4D27AA;strokeColor=none;dashed=0;verticalLabelPosition=bottom;verticalAlign=top;align=center;html=1;fontSize=12;fontStyle=0;aspect=fixed;pointerEvents=1;shape=mxgraph.aws4.internet_gateway;rounded=0;comic=0;" parent="RZ0_6Ih5bEzpeEGCjAap-19" vertex="1">
          <mxGeometry x="50" y="49.579999999999984" width="30" height="30" as="geometry" />
        </mxCell>
        <mxCell id="RZ0_6Ih5bEzpeEGCjAap-87" value="" style="sketch=0;outlineConnect=0;fontColor=#232F3E;gradientColor=none;fillColor=#FF3333;strokeColor=none;dashed=0;verticalLabelPosition=bottom;verticalAlign=top;align=center;html=1;fontSize=12;fontStyle=0;aspect=fixed;pointerEvents=1;shape=mxgraph.aws4.generic_firewall;rounded=0;comic=0;" parent="RZ0_6Ih5bEzpeEGCjAap-19" vertex="1">
          <mxGeometry x="46" y="17.43" width="38.5" height="32.57" as="geometry" />
        </mxCell>
        <mxCell id="RZ0_6Ih5bEzpeEGCjAap-280" value="" style="sketch=0;outlineConnect=0;fontColor=#232F3E;gradientColor=none;fillColor=#4D27AA;strokeColor=none;dashed=0;verticalLabelPosition=bottom;verticalAlign=top;align=center;html=1;fontSize=12;fontStyle=0;aspect=fixed;pointerEvents=1;shape=mxgraph.aws4.nat_gateway;rounded=0;shadow=0;labelBackgroundColor=none;comic=0;" parent="RZ0_6Ih5bEzpeEGCjAap-19" vertex="1">
          <mxGeometry x="100" width="30" height="30" as="geometry" />
        </mxCell>
        <mxCell id="RZ0_6Ih5bEzpeEGCjAap-93" value="VPC" style="points=[[0,0],[0.25,0],[0.5,0],[0.75,0],[1,0],[1,0.25],[1,0.5],[1,0.75],[1,1],[0.75,1],[0.5,1],[0.25,1],[0,1],[0,0.75],[0,0.5],[0,0.25]];outlineConnect=0;gradientColor=none;html=1;whiteSpace=wrap;fontSize=12;fontStyle=0;container=1;pointerEvents=0;collapsible=0;recursiveResize=0;shape=mxgraph.aws4.group;grIcon=mxgraph.aws4.group_vpc;strokeColor=#248814;fillColor=none;verticalAlign=top;align=left;spacingLeft=30;fontColor=#AAB7B8;dashed=0;comic=0;" parent="RZ0_6Ih5bEzpeEGCjAap-5" vertex="1">
          <mxGeometry x="65" y="223.5" width="130" height="97" as="geometry" />
        </mxCell>
        <mxCell id="RZ0_6Ih5bEzpeEGCjAap-94" value="" style="sketch=0;outlineConnect=0;fontColor=#232F3E;gradientColor=none;fillColor=#4D27AA;strokeColor=none;dashed=0;verticalLabelPosition=bottom;verticalAlign=top;align=center;html=1;fontSize=12;fontStyle=0;aspect=fixed;pointerEvents=1;shape=mxgraph.aws4.network_load_balancer;rounded=0;comic=0;" parent="RZ0_6Ih5bEzpeEGCjAap-93" vertex="1">
          <mxGeometry x="80" y="49.579999999999984" width="30" height="30" as="geometry" />
        </mxCell>
        <mxCell id="RZ0_6Ih5bEzpeEGCjAap-95" value="" style="sketch=0;outlineConnect=0;fontColor=#232F3E;gradientColor=none;fillColor=#4D27AA;strokeColor=none;dashed=0;verticalLabelPosition=bottom;verticalAlign=top;align=center;html=1;fontSize=12;fontStyle=0;aspect=fixed;pointerEvents=1;shape=mxgraph.aws4.gateway_load_balancer;rounded=0;comic=0;" parent="RZ0_6Ih5bEzpeEGCjAap-93" vertex="1">
          <mxGeometry x="20" y="49.579999999999984" width="30" height="30" as="geometry" />
        </mxCell>
        <mxCell id="RZ0_6Ih5bEzpeEGCjAap-96" value="" style="sketch=0;outlineConnect=0;fontColor=#232F3E;gradientColor=none;fillColor=#4D27AA;strokeColor=none;dashed=0;verticalLabelPosition=bottom;verticalAlign=top;align=center;html=1;fontSize=12;fontStyle=0;aspect=fixed;pointerEvents=1;shape=mxgraph.aws4.internet_gateway;rounded=0;comic=0;" parent="RZ0_6Ih5bEzpeEGCjAap-93" vertex="1">
          <mxGeometry x="50" y="49.579999999999984" width="30" height="30" as="geometry" />
        </mxCell>
        <mxCell id="RZ0_6Ih5bEzpeEGCjAap-97" value="" style="sketch=0;outlineConnect=0;fontColor=#232F3E;gradientColor=none;fillColor=#FF3333;strokeColor=none;dashed=0;verticalLabelPosition=bottom;verticalAlign=top;align=center;html=1;fontSize=12;fontStyle=0;aspect=fixed;pointerEvents=1;shape=mxgraph.aws4.generic_firewall;rounded=0;comic=0;" parent="RZ0_6Ih5bEzpeEGCjAap-93" vertex="1">
          <mxGeometry x="46" y="17.43" width="38.5" height="32.57" as="geometry" />
        </mxCell>
        <mxCell id="RZ0_6Ih5bEzpeEGCjAap-98" value="VPC" style="points=[[0,0],[0.25,0],[0.5,0],[0.75,0],[1,0],[1,0.25],[1,0.5],[1,0.75],[1,1],[0.75,1],[0.5,1],[0.25,1],[0,1],[0,0.75],[0,0.5],[0,0.25]];outlineConnect=0;gradientColor=none;html=1;whiteSpace=wrap;fontSize=12;fontStyle=0;container=1;pointerEvents=0;collapsible=0;recursiveResize=0;shape=mxgraph.aws4.group;grIcon=mxgraph.aws4.group_vpc;strokeColor=#248814;fillColor=none;verticalAlign=top;align=left;spacingLeft=30;fontColor=#AAB7B8;dashed=0;comic=0;" parent="RZ0_6Ih5bEzpeEGCjAap-5" vertex="1">
          <mxGeometry x="560" y="223.5" width="130" height="97" as="geometry" />
        </mxCell>
        <mxCell id="RZ0_6Ih5bEzpeEGCjAap-99" value="" style="sketch=0;outlineConnect=0;fontColor=#232F3E;gradientColor=none;fillColor=#4D27AA;strokeColor=none;dashed=0;verticalLabelPosition=bottom;verticalAlign=top;align=center;html=1;fontSize=12;fontStyle=0;aspect=fixed;pointerEvents=1;shape=mxgraph.aws4.network_load_balancer;rounded=0;comic=0;" parent="RZ0_6Ih5bEzpeEGCjAap-98" vertex="1">
          <mxGeometry x="80" y="49.579999999999984" width="30" height="30" as="geometry" />
        </mxCell>
        <mxCell id="RZ0_6Ih5bEzpeEGCjAap-100" value="" style="sketch=0;outlineConnect=0;fontColor=#232F3E;gradientColor=none;fillColor=#4D27AA;strokeColor=none;dashed=0;verticalLabelPosition=bottom;verticalAlign=top;align=center;html=1;fontSize=12;fontStyle=0;aspect=fixed;pointerEvents=1;shape=mxgraph.aws4.gateway_load_balancer;rounded=0;comic=0;" parent="RZ0_6Ih5bEzpeEGCjAap-98" vertex="1">
          <mxGeometry x="20" y="49.579999999999984" width="30" height="30" as="geometry" />
        </mxCell>
        <mxCell id="RZ0_6Ih5bEzpeEGCjAap-101" value="" style="sketch=0;outlineConnect=0;fontColor=#232F3E;gradientColor=none;fillColor=#4D27AA;strokeColor=none;dashed=0;verticalLabelPosition=bottom;verticalAlign=top;align=center;html=1;fontSize=12;fontStyle=0;aspect=fixed;pointerEvents=1;shape=mxgraph.aws4.internet_gateway;rounded=0;comic=0;" parent="RZ0_6Ih5bEzpeEGCjAap-98" vertex="1">
          <mxGeometry x="50" y="49.579999999999984" width="30" height="30" as="geometry" />
        </mxCell>
        <mxCell id="RZ0_6Ih5bEzpeEGCjAap-102" value="" style="sketch=0;outlineConnect=0;fontColor=#232F3E;gradientColor=none;fillColor=#FF3333;strokeColor=none;dashed=0;verticalLabelPosition=bottom;verticalAlign=top;align=center;html=1;fontSize=12;fontStyle=0;aspect=fixed;pointerEvents=1;shape=mxgraph.aws4.generic_firewall;rounded=0;comic=0;" parent="RZ0_6Ih5bEzpeEGCjAap-98" vertex="1">
          <mxGeometry x="46" y="17.43" width="38.5" height="32.57" as="geometry" />
        </mxCell>
        <mxCell id="RZ0_6Ih5bEzpeEGCjAap-103" value="VPC" style="points=[[0,0],[0.25,0],[0.5,0],[0.75,0],[1,0],[1,0.25],[1,0.5],[1,0.75],[1,1],[0.75,1],[0.5,1],[0.25,1],[0,1],[0,0.75],[0,0.5],[0,0.25]];outlineConnect=0;gradientColor=none;html=1;whiteSpace=wrap;fontSize=12;fontStyle=0;container=1;pointerEvents=0;collapsible=0;recursiveResize=0;shape=mxgraph.aws4.group;grIcon=mxgraph.aws4.group_vpc;strokeColor=#248814;fillColor=none;verticalAlign=top;align=left;spacingLeft=30;fontColor=#AAB7B8;dashed=0;comic=0;" parent="RZ0_6Ih5bEzpeEGCjAap-5" vertex="1">
          <mxGeometry x="560" y="63" width="130" height="97" as="geometry" />
        </mxCell>
        <mxCell id="RZ0_6Ih5bEzpeEGCjAap-104" value="" style="sketch=0;outlineConnect=0;fontColor=#232F3E;gradientColor=none;fillColor=#4D27AA;strokeColor=none;dashed=0;verticalLabelPosition=bottom;verticalAlign=top;align=center;html=1;fontSize=12;fontStyle=0;aspect=fixed;pointerEvents=1;shape=mxgraph.aws4.network_load_balancer;rounded=0;comic=0;" parent="RZ0_6Ih5bEzpeEGCjAap-103" vertex="1">
          <mxGeometry x="80" y="49.579999999999984" width="30" height="30" as="geometry" />
        </mxCell>
        <mxCell id="RZ0_6Ih5bEzpeEGCjAap-105" value="" style="sketch=0;outlineConnect=0;fontColor=#232F3E;gradientColor=none;fillColor=#4D27AA;strokeColor=none;dashed=0;verticalLabelPosition=bottom;verticalAlign=top;align=center;html=1;fontSize=12;fontStyle=0;aspect=fixed;pointerEvents=1;shape=mxgraph.aws4.gateway_load_balancer;rounded=0;comic=0;" parent="RZ0_6Ih5bEzpeEGCjAap-103" vertex="1">
          <mxGeometry x="20" y="49.579999999999984" width="30" height="30" as="geometry" />
        </mxCell>
        <mxCell id="RZ0_6Ih5bEzpeEGCjAap-106" value="" style="sketch=0;outlineConnect=0;fontColor=#232F3E;gradientColor=none;fillColor=#4D27AA;strokeColor=none;dashed=0;verticalLabelPosition=bottom;verticalAlign=top;align=center;html=1;fontSize=12;fontStyle=0;aspect=fixed;pointerEvents=1;shape=mxgraph.aws4.internet_gateway;rounded=0;comic=0;" parent="RZ0_6Ih5bEzpeEGCjAap-103" vertex="1">
          <mxGeometry x="50" y="49.579999999999984" width="30" height="30" as="geometry" />
        </mxCell>
        <mxCell id="RZ0_6Ih5bEzpeEGCjAap-107" value="" style="sketch=0;outlineConnect=0;fontColor=#232F3E;gradientColor=none;fillColor=#FF3333;strokeColor=none;dashed=0;verticalLabelPosition=bottom;verticalAlign=top;align=center;html=1;fontSize=12;fontStyle=0;aspect=fixed;pointerEvents=1;shape=mxgraph.aws4.generic_firewall;rounded=0;comic=0;" parent="RZ0_6Ih5bEzpeEGCjAap-103" vertex="1">
          <mxGeometry x="46" y="17.43" width="38.5" height="32.57" as="geometry" />
        </mxCell>
        <mxCell id="RZ0_6Ih5bEzpeEGCjAap-123" value="&lt;font style=&quot;font-size: 15px&quot;&gt;&lt;span style=&quot;&quot;&gt;US-East-1&lt;/span&gt;&lt;/font&gt;" style="rounded=1;whiteSpace=wrap;html=1;labelBackgroundColor=none;fontSize=8;strokeColor=#4D27AA;fillColor=#e1d5e7;comic=0;" parent="RZ0_6Ih5bEzpeEGCjAap-5" vertex="1">
          <mxGeometry x="335" y="126" width="90" height="20" as="geometry" />
        </mxCell>
        <mxCell id="RZ0_6Ih5bEzpeEGCjAap-7" value="Prod Account" style="points=[[0,0],[0.25,0],[0.5,0],[0.75,0],[1,0],[1,0.25],[1,0.5],[1,0.75],[1,1],[0.75,1],[0.5,1],[0.25,1],[0,1],[0,0.75],[0,0.5],[0,0.25]];outlineConnect=0;gradientColor=none;html=1;whiteSpace=wrap;fontSize=12;fontStyle=0;container=1;pointerEvents=0;collapsible=0;recursiveResize=0;shape=mxgraph.aws4.group;grIcon=mxgraph.aws4.group_aws_cloud_alt;strokeColor=#232F3E;fillColor=none;verticalAlign=top;align=left;spacingLeft=30;fontColor=#232F3E;dashed=0;comic=0;" parent="1" vertex="1">
          <mxGeometry x="220" y="640" width="140" height="120" as="geometry" />
        </mxCell>
        <mxCell id="RZ0_6Ih5bEzpeEGCjAap-26" value="Multiple Regions" style="fillColor=none;strokeColor=#147EBA;dashed=1;verticalAlign=top;fontStyle=0;fontColor=#147EBA;comic=0;" parent="RZ0_6Ih5bEzpeEGCjAap-7" vertex="1">
          <mxGeometry x="10" y="30" width="120" height="80" as="geometry" />
        </mxCell>
        <mxCell id="RZ0_6Ih5bEzpeEGCjAap-10" value="VPC" style="points=[[0,0],[0.25,0],[0.5,0],[0.75,0],[1,0],[1,0.25],[1,0.5],[1,0.75],[1,1],[0.75,1],[0.5,1],[0.25,1],[0,1],[0,0.75],[0,0.5],[0,0.25]];outlineConnect=0;gradientColor=none;html=1;whiteSpace=wrap;fontSize=12;fontStyle=0;container=1;pointerEvents=0;collapsible=0;recursiveResize=0;shape=mxgraph.aws4.group;grIcon=mxgraph.aws4.group_vpc;strokeColor=#248814;fillColor=none;verticalAlign=top;align=left;spacingLeft=30;fontColor=#AAB7B8;dashed=0;comic=0;" parent="RZ0_6Ih5bEzpeEGCjAap-7" vertex="1">
          <mxGeometry x="20" y="60" width="100" height="40" as="geometry" />
        </mxCell>
        <mxCell id="RZ0_6Ih5bEzpeEGCjAap-78" value="" style="sketch=0;points=[[0,0,0],[0.25,0,0],[0.5,0,0],[0.75,0,0],[1,0,0],[0,1,0],[0.25,1,0],[0.5,1,0],[0.75,1,0],[1,1,0],[0,0.25,0],[0,0.5,0],[0,0.75,0],[1,0.25,0],[1,0.5,0],[1,0.75,0]];outlineConnect=0;fontColor=#232F3E;strokeColor=#4D27AA;dashed=0;verticalLabelPosition=bottom;verticalAlign=top;align=center;html=1;fontSize=12;fontStyle=0;aspect=fixed;shape=mxgraph.aws4.resourceIcon;resIcon=mxgraph.aws4.transit_gateway;fillColor=none;comic=0;" parent="RZ0_6Ih5bEzpeEGCjAap-7" vertex="1">
          <mxGeometry x="122" width="18" height="18" as="geometry" />
        </mxCell>
        <mxCell id="RZ0_6Ih5bEzpeEGCjAap-8" value="Dev Account" style="points=[[0,0],[0.25,0],[0.5,0],[0.75,0],[1,0],[1,0.25],[1,0.5],[1,0.75],[1,1],[0.75,1],[0.5,1],[0.25,1],[0,1],[0,0.75],[0,0.5],[0,0.25]];outlineConnect=0;gradientColor=none;html=1;whiteSpace=wrap;fontSize=12;fontStyle=0;container=1;pointerEvents=0;collapsible=0;recursiveResize=0;shape=mxgraph.aws4.group;grIcon=mxgraph.aws4.group_aws_cloud_alt;strokeColor=#232F3E;fillColor=none;verticalAlign=top;align=left;spacingLeft=30;fontColor=#232F3E;dashed=0;comic=0;" parent="1" vertex="1">
          <mxGeometry x="60" y="640" width="140" height="120" as="geometry" />
        </mxCell>
        <mxCell id="RZ0_6Ih5bEzpeEGCjAap-27" value="US-East-1" style="fillColor=none;strokeColor=#147EBA;dashed=1;verticalAlign=top;fontStyle=0;fontColor=#147EBA;comic=0;" parent="RZ0_6Ih5bEzpeEGCjAap-8" vertex="1">
          <mxGeometry x="10" y="30" width="120" height="80" as="geometry" />
        </mxCell>
        <mxCell id="RZ0_6Ih5bEzpeEGCjAap-9" value="VPC" style="points=[[0,0],[0.25,0],[0.5,0],[0.75,0],[1,0],[1,0.25],[1,0.5],[1,0.75],[1,1],[0.75,1],[0.5,1],[0.25,1],[0,1],[0,0.75],[0,0.5],[0,0.25]];outlineConnect=0;gradientColor=none;html=1;whiteSpace=wrap;fontSize=12;fontStyle=0;container=1;pointerEvents=0;collapsible=0;recursiveResize=0;shape=mxgraph.aws4.group;grIcon=mxgraph.aws4.group_vpc;strokeColor=#248814;fillColor=none;verticalAlign=top;align=left;spacingLeft=30;fontColor=#AAB7B8;dashed=0;comic=0;" parent="RZ0_6Ih5bEzpeEGCjAap-8" vertex="1">
          <mxGeometry x="20" y="60" width="100" height="40" as="geometry" />
        </mxCell>
        <mxCell id="RZ0_6Ih5bEzpeEGCjAap-77" value="" style="sketch=0;points=[[0,0,0],[0.25,0,0],[0.5,0,0],[0.75,0,0],[1,0,0],[0,1,0],[0.25,1,0],[0.5,1,0],[0.75,1,0],[1,1,0],[0,0.25,0],[0,0.5,0],[0,0.75,0],[1,0.25,0],[1,0.5,0],[1,0.75,0]];outlineConnect=0;fontColor=#232F3E;strokeColor=#4D27AA;dashed=0;verticalLabelPosition=bottom;verticalAlign=top;align=center;html=1;fontSize=12;fontStyle=0;aspect=fixed;shape=mxgraph.aws4.resourceIcon;resIcon=mxgraph.aws4.transit_gateway;fillColor=none;comic=0;" parent="RZ0_6Ih5bEzpeEGCjAap-8" vertex="1">
          <mxGeometry x="122" width="18" height="18" as="geometry" />
        </mxCell>
        <mxCell id="RZ0_6Ih5bEzpeEGCjAap-11" style="edgeStyle=orthogonalEdgeStyle;rounded=1;orthogonalLoop=1;jettySize=auto;html=1;startArrow=classic;startFill=1;entryX=0.5;entryY=0;entryDx=0;entryDy=0;exitX=0.5;exitY=1;exitDx=0;exitDy=0;exitPerimeter=0;comic=0;" parent="1" source="RZ0_6Ih5bEzpeEGCjAap-4" target="RZ0_6Ih5bEzpeEGCjAap-8" edge="1">
          <mxGeometry relative="1" as="geometry">
            <mxPoint x="540" y="360" as="sourcePoint" />
            <Array as="points">
              <mxPoint x="540" y="600" />
              <mxPoint x="130" y="600" />
            </Array>
          </mxGeometry>
        </mxCell>
        <mxCell id="RZ0_6Ih5bEzpeEGCjAap-12" style="edgeStyle=orthogonalEdgeStyle;rounded=1;orthogonalLoop=1;jettySize=auto;html=1;startArrow=classic;startFill=1;entryX=0.5;entryY=0;entryDx=0;entryDy=0;exitX=0.5;exitY=1;exitDx=0;exitDy=0;exitPerimeter=0;strokeColor=#FF3333;dashed=1;comic=0;" parent="1" source="RZ0_6Ih5bEzpeEGCjAap-4" target="RZ0_6Ih5bEzpeEGCjAap-7" edge="1">
          <mxGeometry relative="1" as="geometry">
            <Array as="points">
              <mxPoint x="540" y="600" />
              <mxPoint x="290" y="600" />
            </Array>
          </mxGeometry>
        </mxCell>
        <mxCell id="RZ0_6Ih5bEzpeEGCjAap-108" style="edgeStyle=orthogonalEdgeStyle;orthogonalLoop=1;jettySize=auto;html=1;fontSize=8;startArrow=classic;startFill=1;curved=1;strokeColor=#FF3333;dashed=1;comic=0;" parent="1" source="RZ0_6Ih5bEzpeEGCjAap-13" target="RZ0_6Ih5bEzpeEGCjAap-29" edge="1">
          <mxGeometry relative="1" as="geometry">
            <Array as="points">
              <mxPoint x="540" y="40" />
              <mxPoint x="785" y="40" />
            </Array>
          </mxGeometry>
        </mxCell>
        <mxCell id="RZ0_6Ih5bEzpeEGCjAap-109" style="edgeStyle=orthogonalEdgeStyle;orthogonalLoop=1;jettySize=auto;html=1;entryX=1;entryY=0.5;entryDx=0;entryDy=0;fontSize=8;startArrow=classic;startFill=1;curved=1;strokeColor=#FF3333;dashed=1;comic=0;" parent="1" source="RZ0_6Ih5bEzpeEGCjAap-13" target="RZ0_6Ih5bEzpeEGCjAap-38" edge="1">
          <mxGeometry relative="1" as="geometry">
            <Array as="points">
              <mxPoint x="540" y="40" />
              <mxPoint x="960" y="40" />
              <mxPoint x="960" y="392" />
            </Array>
          </mxGeometry>
        </mxCell>
        <mxCell id="RZ0_6Ih5bEzpeEGCjAap-110" style="edgeStyle=orthogonalEdgeStyle;orthogonalLoop=1;jettySize=auto;html=1;entryX=0;entryY=0.5;entryDx=0;entryDy=0;fontSize=8;startArrow=classic;startFill=1;curved=1;strokeColor=#FF3333;dashed=1;comic=0;" parent="1" source="RZ0_6Ih5bEzpeEGCjAap-13" target="RZ0_6Ih5bEzpeEGCjAap-43" edge="1">
          <mxGeometry relative="1" as="geometry">
            <Array as="points">
              <mxPoint x="540" y="40" />
              <mxPoint x="120" y="40" />
              <mxPoint x="120" y="392" />
            </Array>
          </mxGeometry>
        </mxCell>
        <mxCell id="RZ0_6Ih5bEzpeEGCjAap-213" style="edgeStyle=orthogonalEdgeStyle;orthogonalLoop=1;jettySize=auto;html=1;entryX=0.75;entryY=1;entryDx=0;entryDy=0;fontSize=10;fontColor=none;startArrow=none;startFill=0;endArrow=block;endFill=1;endSize=6;targetPerimeterSpacing=0;strokeColor=#009900;strokeWidth=1;elbow=vertical;exitX=0.25;exitY=0;exitDx=0;exitDy=0;comic=0;" parent="1" source="RZ0_6Ih5bEzpeEGCjAap-54" target="RZ0_6Ih5bEzpeEGCjAap-5" edge="1">
          <mxGeometry relative="1" as="geometry">
            <Array as="points">
              <mxPoint x="914" y="590" />
              <mxPoint x="730" y="590" />
            </Array>
          </mxGeometry>
        </mxCell>
        <mxCell id="RZ0_6Ih5bEzpeEGCjAap-214" style="edgeStyle=orthogonalEdgeStyle;orthogonalLoop=1;jettySize=auto;html=1;entryX=0.75;entryY=0;entryDx=0;entryDy=0;fontSize=10;fontColor=none;startArrow=none;startFill=0;endArrow=block;endFill=1;endSize=6;targetPerimeterSpacing=0;strokeColor=#009900;strokeWidth=1;elbow=vertical;exitX=0.25;exitY=0;exitDx=0;exitDy=0;comic=0;" parent="1" source="RZ0_6Ih5bEzpeEGCjAap-54" target="RZ0_6Ih5bEzpeEGCjAap-7" edge="1">
          <mxGeometry relative="1" as="geometry">
            <Array as="points">
              <mxPoint x="914" y="590" />
              <mxPoint x="325" y="590" />
            </Array>
          </mxGeometry>
        </mxCell>
        <mxCell id="RZ0_6Ih5bEzpeEGCjAap-215" style="edgeStyle=orthogonalEdgeStyle;orthogonalLoop=1;jettySize=auto;html=1;entryX=0.75;entryY=0;entryDx=0;entryDy=0;fontSize=10;fontColor=none;startArrow=none;startFill=0;endArrow=block;endFill=1;endSize=6;targetPerimeterSpacing=0;strokeColor=#009900;strokeWidth=1;elbow=vertical;exitX=0.25;exitY=0;exitDx=0;exitDy=0;comic=0;" parent="1" source="RZ0_6Ih5bEzpeEGCjAap-54" target="RZ0_6Ih5bEzpeEGCjAap-8" edge="1">
          <mxGeometry relative="1" as="geometry">
            <Array as="points">
              <mxPoint x="914" y="590" />
              <mxPoint x="165" y="590" />
            </Array>
          </mxGeometry>
        </mxCell>
        <mxCell id="RZ0_6Ih5bEzpeEGCjAap-54" value="IAM Account" style="points=[[0,0],[0.25,0],[0.5,0],[0.75,0],[1,0],[1,0.25],[1,0.5],[1,0.75],[1,1],[0.75,1],[0.5,1],[0.25,1],[0,1],[0,0.75],[0,0.5],[0,0.25]];outlineConnect=0;gradientColor=none;html=1;whiteSpace=wrap;fontSize=12;fontStyle=0;container=1;pointerEvents=0;collapsible=0;recursiveResize=0;shape=mxgraph.aws4.group;grIcon=mxgraph.aws4.group_aws_cloud_alt;strokeColor=#232F3E;fillColor=none;verticalAlign=top;align=left;spacingLeft=30;fontColor=#232F3E;dashed=0;comic=0;" parent="1" vertex="1">
          <mxGeometry x="879" y="640" width="140" height="120" as="geometry" />
        </mxCell>
        <mxCell id="RZ0_6Ih5bEzpeEGCjAap-80" value="" style="sketch=0;points=[[0,0,0],[0.25,0,0],[0.5,0,0],[0.75,0,0],[1,0,0],[0,1,0],[0.25,1,0],[0.5,1,0],[0.75,1,0],[1,1,0],[0,0.25,0],[0,0.5,0],[0,0.75,0],[1,0.25,0],[1,0.5,0],[1,0.75,0]];outlineConnect=0;fontColor=#232F3E;strokeColor=#4D27AA;dashed=0;verticalLabelPosition=bottom;verticalAlign=top;align=center;html=1;fontSize=12;fontStyle=0;aspect=fixed;shape=mxgraph.aws4.resourceIcon;resIcon=mxgraph.aws4.transit_gateway;fillColor=none;comic=0;" parent="RZ0_6Ih5bEzpeEGCjAap-54" vertex="1">
          <mxGeometry x="122" width="18" height="18" as="geometry" />
        </mxCell>
        <mxCell id="RZ0_6Ih5bEzpeEGCjAap-310" value="" style="sketch=0;points=[[0,0,0],[0.25,0,0],[0.5,0,0],[0.75,0,0],[1,0,0],[0,1,0],[0.25,1,0],[0.5,1,0],[0.75,1,0],[1,1,0],[0,0.25,0],[0,0.5,0],[0,0.75,0],[1,0.25,0],[1,0.5,0],[1,0.75,0]];outlineConnect=0;fontColor=#232F3E;gradientColor=#F54749;gradientDirection=north;fillColor=none;strokeColor=#CC0000;dashed=0;verticalLabelPosition=bottom;verticalAlign=top;align=center;html=1;fontSize=12;fontStyle=0;aspect=fixed;shape=mxgraph.aws4.resourceIcon;resIcon=mxgraph.aws4.single_sign_on;rounded=0;shadow=0;glass=0;labelBackgroundColor=none;comic=0;" parent="RZ0_6Ih5bEzpeEGCjAap-54" vertex="1">
          <mxGeometry x="55" y="45" width="30" height="30" as="geometry" />
        </mxCell>
        <mxCell id="RZ0_6Ih5bEzpeEGCjAap-57" value="SecOps Account" style="points=[[0,0],[0.25,0],[0.5,0],[0.75,0],[1,0],[1,0.25],[1,0.5],[1,0.75],[1,1],[0.75,1],[0.5,1],[0.25,1],[0,1],[0,0.75],[0,0.5],[0,0.25]];outlineConnect=0;gradientColor=none;html=1;whiteSpace=wrap;fontSize=12;fontStyle=0;container=1;pointerEvents=0;collapsible=0;recursiveResize=0;shape=mxgraph.aws4.group;grIcon=mxgraph.aws4.group_aws_cloud_alt;strokeColor=#232F3E;fillColor=none;verticalAlign=top;align=left;spacingLeft=30;fontColor=#232F3E;dashed=0;comic=0;" parent="1" vertex="1">
          <mxGeometry x="720" y="640" width="140" height="120" as="geometry" />
        </mxCell>
        <mxCell id="RZ0_6Ih5bEzpeEGCjAap-58" value="US-East-1" style="fillColor=none;strokeColor=#147EBA;dashed=1;verticalAlign=top;fontStyle=0;fontColor=#147EBA;comic=0;" parent="RZ0_6Ih5bEzpeEGCjAap-57" vertex="1">
          <mxGeometry x="10" y="30" width="120" height="80" as="geometry" />
        </mxCell>
        <mxCell id="RZ0_6Ih5bEzpeEGCjAap-59" value="VPC" style="points=[[0,0],[0.25,0],[0.5,0],[0.75,0],[1,0],[1,0.25],[1,0.5],[1,0.75],[1,1],[0.75,1],[0.5,1],[0.25,1],[0,1],[0,0.75],[0,0.5],[0,0.25]];outlineConnect=0;gradientColor=none;html=1;whiteSpace=wrap;fontSize=12;fontStyle=0;container=1;pointerEvents=0;collapsible=0;recursiveResize=0;shape=mxgraph.aws4.group;grIcon=mxgraph.aws4.group_vpc;strokeColor=#248814;fillColor=none;verticalAlign=top;align=left;spacingLeft=30;fontColor=#AAB7B8;dashed=0;comic=0;" parent="RZ0_6Ih5bEzpeEGCjAap-57" vertex="1">
          <mxGeometry x="20" y="60" width="100" height="40" as="geometry" />
        </mxCell>
        <mxCell id="RZ0_6Ih5bEzpeEGCjAap-79" value="" style="sketch=0;points=[[0,0,0],[0.25,0,0],[0.5,0,0],[0.75,0,0],[1,0,0],[0,1,0],[0.25,1,0],[0.5,1,0],[0.75,1,0],[1,1,0],[0,0.25,0],[0,0.5,0],[0,0.75,0],[1,0.25,0],[1,0.5,0],[1,0.75,0]];outlineConnect=0;fontColor=#232F3E;strokeColor=#4D27AA;dashed=0;verticalLabelPosition=bottom;verticalAlign=top;align=center;html=1;fontSize=12;fontStyle=0;aspect=fixed;shape=mxgraph.aws4.resourceIcon;resIcon=mxgraph.aws4.transit_gateway;fillColor=none;comic=0;" parent="RZ0_6Ih5bEzpeEGCjAap-57" vertex="1">
          <mxGeometry x="122" width="18" height="18" as="geometry" />
        </mxCell>
        <mxCell id="RZ0_6Ih5bEzpeEGCjAap-60" style="edgeStyle=orthogonalEdgeStyle;rounded=1;orthogonalLoop=1;jettySize=auto;html=1;entryX=0.5;entryY=0;entryDx=0;entryDy=0;startArrow=classic;startFill=1;comic=0;" parent="1" source="RZ0_6Ih5bEzpeEGCjAap-4" target="RZ0_6Ih5bEzpeEGCjAap-57" edge="1">
          <mxGeometry relative="1" as="geometry">
            <Array as="points">
              <mxPoint x="540" y="600" />
              <mxPoint x="790" y="600" />
            </Array>
          </mxGeometry>
        </mxCell>
        <mxCell id="RZ0_6Ih5bEzpeEGCjAap-62" value="Common Ser." style="points=[[0,0],[0.25,0],[0.5,0],[0.75,0],[1,0],[1,0.25],[1,0.5],[1,0.75],[1,1],[0.75,1],[0.5,1],[0.25,1],[0,1],[0,0.75],[0,0.5],[0,0.25]];outlineConnect=0;gradientColor=none;html=1;whiteSpace=wrap;fontSize=12;fontStyle=0;container=1;pointerEvents=0;collapsible=0;recursiveResize=0;shape=mxgraph.aws4.group;grIcon=mxgraph.aws4.group_aws_cloud_alt;strokeColor=#232F3E;fillColor=none;verticalAlign=top;align=left;spacingLeft=30;fontColor=#232F3E;dashed=0;comic=0;" parent="1" vertex="1">
          <mxGeometry x="470" y="680" width="140" height="120" as="geometry" />
        </mxCell>
        <mxCell id="RZ0_6Ih5bEzpeEGCjAap-63" value="Multiple Regions" style="fillColor=none;strokeColor=#147EBA;dashed=1;verticalAlign=top;fontStyle=0;fontColor=#147EBA;comic=0;" parent="RZ0_6Ih5bEzpeEGCjAap-62" vertex="1">
          <mxGeometry x="10" y="30" width="120" height="80" as="geometry" />
        </mxCell>
        <mxCell id="RZ0_6Ih5bEzpeEGCjAap-64" value="VPC" style="points=[[0,0],[0.25,0],[0.5,0],[0.75,0],[1,0],[1,0.25],[1,0.5],[1,0.75],[1,1],[0.75,1],[0.5,1],[0.25,1],[0,1],[0,0.75],[0,0.5],[0,0.25]];outlineConnect=0;gradientColor=none;html=1;whiteSpace=wrap;fontSize=12;fontStyle=0;container=1;pointerEvents=0;collapsible=0;recursiveResize=0;shape=mxgraph.aws4.group;grIcon=mxgraph.aws4.group_vpc;strokeColor=#248814;fillColor=none;verticalAlign=top;align=left;spacingLeft=30;fontColor=#AAB7B8;dashed=0;comic=0;" parent="RZ0_6Ih5bEzpeEGCjAap-62" vertex="1">
          <mxGeometry x="20" y="60" width="100" height="40" as="geometry" />
        </mxCell>
        <mxCell id="RZ0_6Ih5bEzpeEGCjAap-72" value="" style="sketch=0;points=[[0,0,0],[0.25,0,0],[0.5,0,0],[0.75,0,0],[1,0,0],[0,1,0],[0.25,1,0],[0.5,1,0],[0.75,1,0],[1,1,0],[0,0.25,0],[0,0.5,0],[0,0.75,0],[1,0.25,0],[1,0.5,0],[1,0.75,0]];outlineConnect=0;fontColor=#232F3E;strokeColor=#4D27AA;dashed=0;verticalLabelPosition=bottom;verticalAlign=top;align=center;html=1;fontSize=12;fontStyle=0;aspect=fixed;shape=mxgraph.aws4.resourceIcon;resIcon=mxgraph.aws4.transit_gateway;fillColor=none;comic=0;" parent="RZ0_6Ih5bEzpeEGCjAap-62" vertex="1">
          <mxGeometry x="122" width="18" height="18" as="geometry" />
        </mxCell>
        <mxCell id="RZ0_6Ih5bEzpeEGCjAap-65" style="edgeStyle=orthogonalEdgeStyle;rounded=1;orthogonalLoop=1;jettySize=auto;html=1;startArrow=classic;startFill=1;comic=0;" parent="1" source="RZ0_6Ih5bEzpeEGCjAap-4" target="RZ0_6Ih5bEzpeEGCjAap-62" edge="1">
          <mxGeometry relative="1" as="geometry" />
        </mxCell>
        <mxCell id="RZ0_6Ih5bEzpeEGCjAap-70" value="" style="shape=loopLimit;whiteSpace=wrap;html=1;strokeColor=#6c8ebf;fillColor=#dae8fc;rotation=-180;rounded=0;comic=0;" parent="1" vertex="1">
          <mxGeometry x="60" y="760" width="140" height="30" as="geometry" />
        </mxCell>
        <mxCell id="RZ0_6Ih5bEzpeEGCjAap-71" value="Interos Dev app - internal facing" style="text;html=1;align=center;verticalAlign=middle;resizable=0;points=[];autosize=1;strokeColor=none;fillColor=none;fontSize=8;comic=0;" parent="1" vertex="1">
          <mxGeometry x="65" y="760" width="130" height="20" as="geometry" />
        </mxCell>
        <mxCell id="RZ0_6Ih5bEzpeEGCjAap-83" value="" style="sketch=0;points=[[0,0,0],[0.25,0,0],[0.5,0,0],[0.75,0,0],[1,0,0],[0,1,0],[0.25,1,0],[0.5,1,0],[0.75,1,0],[1,1,0],[0,0.25,0],[0,0.5,0],[0,0.75,0],[1,0.25,0],[1,0.5,0],[1,0.75,0]];outlineConnect=0;fontColor=#232F3E;gradientColor=none;gradientDirection=north;fillColor=none;strokeColor=#4D27AA;dashed=0;verticalLabelPosition=bottom;verticalAlign=top;align=center;html=1;fontSize=12;fontStyle=0;aspect=fixed;shape=mxgraph.aws4.resourceIcon;resIcon=mxgraph.aws4.global_accelerator;rounded=0;comic=0;" parent="1" vertex="1">
          <mxGeometry x="879" y="42" width="78" height="78" as="geometry" />
        </mxCell>
        <mxCell id="RZ0_6Ih5bEzpeEGCjAap-88" style="edgeStyle=orthogonalEdgeStyle;orthogonalLoop=1;jettySize=auto;html=1;fontSize=8;startArrow=classic;startFill=1;curved=1;strokeColor=#FF3333;dashed=1;comic=0;" parent="1" source="RZ0_6Ih5bEzpeEGCjAap-2" target="RZ0_6Ih5bEzpeEGCjAap-13" edge="1">
          <mxGeometry relative="1" as="geometry">
            <Array as="points">
              <mxPoint x="295" y="40" />
              <mxPoint x="540" y="40" />
            </Array>
          </mxGeometry>
        </mxCell>
        <mxCell id="RZ0_6Ih5bEzpeEGCjAap-212" style="edgeStyle=orthogonalEdgeStyle;orthogonalLoop=1;jettySize=auto;html=1;dashed=1;fontSize=10;fontColor=none;startArrow=none;startFill=0;endArrow=block;endFill=1;endSize=6;strokeColor=#009900;strokeWidth=1;elbow=vertical;targetPerimeterSpacing=0;comic=0;exitX=1;exitY=0.5;exitDx=0;exitDy=0;" parent="1" source="RZ0_6Ih5bEzpeEGCjAap-217" edge="1">
          <mxGeometry relative="1" as="geometry">
            <mxPoint x="960" y="640" as="targetPoint" />
            <Array as="points">
              <mxPoint x="960" y="556" />
            </Array>
          </mxGeometry>
        </mxCell>
        <mxCell id="RZ0_6Ih5bEzpeEGCjAap-258" style="edgeStyle=orthogonalEdgeStyle;orthogonalLoop=1;jettySize=auto;html=1;fontSize=10;fontColor=none;startArrow=block;startFill=1;endArrow=block;endFill=1;endSize=6;targetPerimeterSpacing=0;strokeColor=#FF3333;strokeWidth=1;elbow=vertical;comic=0;dashed=1;exitX=0.5;exitY=1;exitDx=0;exitDy=0;" parent="1" source="RZ0_6Ih5bEzpeEGCjAap-112" target="RZ0_6Ih5bEzpeEGCjAap-245" edge="1">
          <mxGeometry relative="1" as="geometry">
            <Array as="points">
              <mxPoint x="-680" y="1005" />
            </Array>
          </mxGeometry>
        </mxCell>
        <mxCell id="yWTK7wSygGAMq-4Vs5H4-70" style="edgeStyle=none;rounded=1;jumpStyle=line;orthogonalLoop=1;jettySize=auto;html=1;entryX=0.5;entryY=1;entryDx=0;entryDy=0;startArrow=none;startFill=0;endArrow=none;endFill=0;strokeColor=#232F3E;strokeWidth=1;" parent="1" source="RZ0_6Ih5bEzpeEGCjAap-112" target="yWTK7wSygGAMq-4Vs5H4-41" edge="1">
          <mxGeometry relative="1" as="geometry" />
        </mxCell>
        <mxCell id="yWTK7wSygGAMq-4Vs5H4-72" style="edgeStyle=none;rounded=1;jumpStyle=line;orthogonalLoop=1;jettySize=auto;html=1;startArrow=none;startFill=0;endArrow=none;endFill=0;strokeColor=#232F3E;strokeWidth=1;dashed=1;" parent="1" source="RZ0_6Ih5bEzpeEGCjAap-112" target="yWTK7wSygGAMq-4Vs5H4-71" edge="1">
          <mxGeometry relative="1" as="geometry" />
        </mxCell>
        <mxCell id="RZ0_6Ih5bEzpeEGCjAap-112" value="On-Prem" style="points=[[0,0],[0.25,0],[0.5,0],[0.75,0],[1,0],[1,0.25],[1,0.5],[1,0.75],[1,1],[0.75,1],[0.5,1],[0.25,1],[0,1],[0,0.75],[0,0.5],[0,0.25]];outlineConnect=0;gradientColor=none;html=1;whiteSpace=wrap;fontSize=12;fontStyle=0;container=1;pointerEvents=0;collapsible=0;recursiveResize=0;shape=mxgraph.aws4.group;grIcon=mxgraph.aws4.group_corporate_data_center;strokeColor=#5A6C86;fillColor=none;verticalAlign=top;align=left;spacingLeft=30;fontColor=#5A6C86;dashed=0;rounded=0;comic=0;" parent="1" vertex="1">
          <mxGeometry x="-765" y="232" width="170" height="156" as="geometry" />
        </mxCell>
        <mxCell id="RZ0_6Ih5bEzpeEGCjAap-114" value="" style="sketch=0;points=[[0.5,0,0],[1,0.5,0],[0.5,1,0],[0,0.5,0],[0.145,0.145,0],[0.8555,0.145,0],[0.855,0.8555,0],[0.145,0.855,0]];verticalLabelPosition=bottom;html=1;verticalAlign=top;aspect=fixed;align=center;pointerEvents=1;shape=mxgraph.cisco19.rect;prIcon=router_with_firewall;fillColor=#FAFAFA;strokeColor=#005073;rounded=0;fontSize=8;comic=0;" parent="RZ0_6Ih5bEzpeEGCjAap-112" vertex="1">
          <mxGeometry x="60" y="53" width="50" height="50" as="geometry" />
        </mxCell>
        <mxCell id="RZ0_6Ih5bEzpeEGCjAap-187" value="" style="sketch=0;pointerEvents=1;shadow=0;dashed=0;html=1;strokeColor=none;fillColor=#505050;labelPosition=center;verticalLabelPosition=bottom;verticalAlign=top;outlineConnect=0;align=center;shape=mxgraph.office.servers.active_directory_federation_services_server;rounded=0;labelBackgroundColor=none;fontSize=10;fontColor=none;comic=0;" parent="RZ0_6Ih5bEzpeEGCjAap-112" vertex="1">
          <mxGeometry x="130" y="8" width="35" height="38" as="geometry" />
        </mxCell>
        <mxCell id="RZ0_6Ih5bEzpeEGCjAap-202" value="" style="sketch=0;outlineConnect=0;fontColor=#232F3E;gradientColor=none;fillColor=#232F3D;strokeColor=none;dashed=0;verticalLabelPosition=bottom;verticalAlign=top;align=center;html=1;fontSize=12;fontStyle=0;aspect=fixed;pointerEvents=1;shape=mxgraph.aws4.saml_token;rounded=0;labelBackgroundColor=none;comic=0;" parent="RZ0_6Ih5bEzpeEGCjAap-112" vertex="1">
          <mxGeometry x="90" y="8" width="38" height="38" as="geometry" />
        </mxCell>
        <mxCell id="RZ0_6Ih5bEzpeEGCjAap-324" value="" style="sketch=0;pointerEvents=1;shadow=0;dashed=0;html=1;strokeColor=none;fillColor=#505050;labelPosition=center;verticalLabelPosition=bottom;verticalAlign=top;outlineConnect=0;align=center;shape=mxgraph.office.servers.file_server;rounded=0;glass=0;labelBackgroundColor=none;comic=0;fontSize=10;fontColor=none;" parent="RZ0_6Ih5bEzpeEGCjAap-112" vertex="1">
          <mxGeometry x="130" y="111" width="35" height="38" as="geometry" />
        </mxCell>
        <mxCell id="RZ0_6Ih5bEzpeEGCjAap-115" style="edgeStyle=orthogonalEdgeStyle;orthogonalLoop=1;jettySize=auto;html=1;entryX=0;entryY=0.5;entryDx=0;entryDy=0;dashed=1;fontSize=8;startArrow=block;startFill=1;strokeColor=#FF3333;entryPerimeter=0;rounded=1;endArrow=none;endFill=0;comic=0;" parent="1" source="RZ0_6Ih5bEzpeEGCjAap-82" target="RZ0_6Ih5bEzpeEGCjAap-4" edge="1">
          <mxGeometry relative="1" as="geometry">
            <Array as="points">
              <mxPoint x="-60" y="310" />
              <mxPoint x="-60" y="310" />
            </Array>
          </mxGeometry>
        </mxCell>
        <mxCell id="RZ0_6Ih5bEzpeEGCjAap-82" value="" style="sketch=0;outlineConnect=0;fontColor=#232F3E;gradientColor=none;fillColor=#4D27AA;strokeColor=none;dashed=0;verticalLabelPosition=bottom;verticalAlign=top;align=center;html=1;fontSize=12;fontStyle=0;aspect=fixed;pointerEvents=1;shape=mxgraph.aws4.vpn_connection;rounded=0;comic=0;" parent="1" vertex="1">
          <mxGeometry x="-100" y="278.29" width="56.92" height="63.43" as="geometry" />
        </mxCell>
        <mxCell id="RZ0_6Ih5bEzpeEGCjAap-117" value="" style="edgeStyle=orthogonalEdgeStyle;orthogonalLoop=1;jettySize=auto;html=1;dashed=1;fontSize=8;startArrow=none;startFill=0;strokeColor=#232F3E;rounded=1;endArrow=none;endFill=0;comic=0;exitX=0;exitY=0.5;exitDx=0;exitDy=0;exitPerimeter=0;" parent="1" source="RZ0_6Ih5bEzpeEGCjAap-82" target="yWTK7wSygGAMq-4Vs5H4-24" edge="1">
          <mxGeometry relative="1" as="geometry">
            <mxPoint x="496" y="310.0000000000002" as="sourcePoint" />
            <mxPoint x="-228" y="310" as="targetPoint" />
            <Array as="points" />
          </mxGeometry>
        </mxCell>
        <mxCell id="RZ0_6Ih5bEzpeEGCjAap-118" value="" style="sketch=0;points=[[0,0,0],[0.25,0,0],[0.5,0,0],[0.75,0,0],[1,0,0],[0,1,0],[0.25,1,0],[0.5,1,0],[0.75,1,0],[1,1,0],[0,0.25,0],[0,0.5,0],[0,0.75,0],[1,0.25,0],[1,0.5,0],[1,0.75,0]];outlineConnect=0;fontColor=#232F3E;gradientColor=none;gradientDirection=north;fillColor=none;strokeColor=#4D27AA;dashed=0;verticalLabelPosition=bottom;verticalAlign=top;align=center;html=1;fontSize=12;fontStyle=0;aspect=fixed;shape=mxgraph.aws4.resourceIcon;resIcon=mxgraph.aws4.global_accelerator;rounded=0;comic=0;" parent="1" vertex="1">
          <mxGeometry x="280" y="40" width="78" height="78" as="geometry" />
        </mxCell>
        <mxCell id="RZ0_6Ih5bEzpeEGCjAap-119" value="" style="sketch=0;points=[[0,0,0],[0.25,0,0],[0.5,0,0],[0.75,0,0],[1,0,0],[0,1,0],[0.25,1,0],[0.5,1,0],[0.75,1,0],[1,1,0],[0,0.25,0],[0,0.5,0],[0,0.75,0],[1,0.25,0],[1,0.5,0],[1,0.75,0]];outlineConnect=0;fontColor=#232F3E;gradientColor=none;gradientDirection=north;fillColor=none;strokeColor=#4D27AA;dashed=0;verticalLabelPosition=bottom;verticalAlign=top;align=center;html=1;fontSize=12;fontStyle=0;aspect=fixed;shape=mxgraph.aws4.resourceIcon;resIcon=mxgraph.aws4.global_accelerator;rounded=0;comic=0;" parent="1" vertex="1">
          <mxGeometry x="150" y="40" width="78" height="78" as="geometry" />
        </mxCell>
        <mxCell id="RZ0_6Ih5bEzpeEGCjAap-121" value="" style="sketch=0;points=[[0,0,0],[0.25,0,0],[0.5,0,0],[0.75,0,0],[1,0,0],[0,1,0],[0.25,1,0],[0.5,1,0],[0.75,1,0],[1,1,0],[0,0.25,0],[0,0.5,0],[0,0.75,0],[1,0.25,0],[1,0.5,0],[1,0.75,0]];outlineConnect=0;fontColor=#232F3E;gradientColor=none;gradientDirection=north;fillColor=none;strokeColor=#4D27AA;dashed=0;verticalLabelPosition=bottom;verticalAlign=top;align=center;html=1;fontSize=12;fontStyle=0;aspect=fixed;shape=mxgraph.aws4.resourceIcon;resIcon=mxgraph.aws4.global_accelerator;rounded=0;comic=0;" parent="1" vertex="1">
          <mxGeometry x="720" y="42" width="78" height="78" as="geometry" />
        </mxCell>
        <mxCell id="RZ0_6Ih5bEzpeEGCjAap-125" value="Private subnet" style="points=[[0,0],[0.25,0],[0.5,0],[0.75,0],[1,0],[1,0.25],[1,0.5],[1,0.75],[1,1],[0.75,1],[0.5,1],[0.25,1],[0,1],[0,0.75],[0,0.5],[0,0.25]];outlineConnect=0;gradientColor=none;html=1;whiteSpace=wrap;fontSize=12;fontStyle=0;container=1;pointerEvents=0;collapsible=0;recursiveResize=0;shape=mxgraph.aws4.group;grIcon=mxgraph.aws4.group_security_group;grStroke=0;strokeColor=#147EBA;fillColor=#E6F2F8;verticalAlign=top;align=left;spacingLeft=30;fontColor=#147EBA;dashed=0;rounded=0;labelBackgroundColor=none;comic=0;" parent="1" vertex="1">
          <mxGeometry x="1297" y="168.25" width="130" height="130" as="geometry" />
        </mxCell>
        <mxCell id="RZ0_6Ih5bEzpeEGCjAap-130" value="" style="sketch=0;outlineConnect=0;fontColor=#232F3E;gradientColor=none;fillColor=#4D27AA;strokeColor=none;dashed=0;verticalLabelPosition=bottom;verticalAlign=top;align=center;html=1;fontSize=12;fontStyle=0;aspect=fixed;pointerEvents=1;shape=mxgraph.aws4.elastic_network_interface;rounded=0;labelBackgroundColor=none;comic=0;" parent="RZ0_6Ih5bEzpeEGCjAap-125" vertex="1">
          <mxGeometry x="41" y="41" width="48" height="48" as="geometry" />
        </mxCell>
        <mxCell id="RZ0_6Ih5bEzpeEGCjAap-126" value="Private subnet" style="points=[[0,0],[0.25,0],[0.5,0],[0.75,0],[1,0],[1,0.25],[1,0.5],[1,0.75],[1,1],[0.75,1],[0.5,1],[0.25,1],[0,1],[0,0.75],[0,0.5],[0,0.25]];outlineConnect=0;gradientColor=none;html=1;whiteSpace=wrap;fontSize=12;fontStyle=0;container=1;pointerEvents=0;collapsible=0;recursiveResize=0;shape=mxgraph.aws4.group;grIcon=mxgraph.aws4.group_security_group;grStroke=0;strokeColor=#147EBA;fillColor=#E6F2F8;verticalAlign=top;align=left;spacingLeft=30;fontColor=#147EBA;dashed=0;rounded=0;labelBackgroundColor=none;comic=0;" parent="1" vertex="1">
          <mxGeometry x="1297" y="318.25" width="130" height="130" as="geometry" />
        </mxCell>
        <mxCell id="RZ0_6Ih5bEzpeEGCjAap-129" value="" style="sketch=0;outlineConnect=0;fontColor=#232F3E;gradientColor=none;fillColor=#4D27AA;strokeColor=none;dashed=0;verticalLabelPosition=bottom;verticalAlign=top;align=center;html=1;fontSize=12;fontStyle=0;aspect=fixed;pointerEvents=1;shape=mxgraph.aws4.elastic_network_interface;rounded=0;labelBackgroundColor=none;comic=0;" parent="RZ0_6Ih5bEzpeEGCjAap-126" vertex="1">
          <mxGeometry x="41" y="41" width="48" height="48" as="geometry" />
        </mxCell>
        <mxCell id="RZ0_6Ih5bEzpeEGCjAap-127" value="Public subnet" style="points=[[0,0],[0.25,0],[0.5,0],[0.75,0],[1,0],[1,0.25],[1,0.5],[1,0.75],[1,1],[0.75,1],[0.5,1],[0.25,1],[0,1],[0,0.75],[0,0.5],[0,0.25]];outlineConnect=0;gradientColor=none;html=1;whiteSpace=wrap;fontSize=12;fontStyle=0;container=1;pointerEvents=0;collapsible=0;recursiveResize=0;shape=mxgraph.aws4.group;grIcon=mxgraph.aws4.group_security_group;grStroke=0;strokeColor=#248814;fillColor=#E9F3E6;verticalAlign=top;align=left;spacingLeft=30;fontColor=#248814;dashed=0;rounded=0;labelBackgroundColor=none;comic=0;" parent="1" vertex="1">
          <mxGeometry x="1447" y="168.25" width="130" height="130" as="geometry" />
        </mxCell>
        <mxCell id="RZ0_6Ih5bEzpeEGCjAap-128" value="Public subnet" style="points=[[0,0],[0.25,0],[0.5,0],[0.75,0],[1,0],[1,0.25],[1,0.5],[1,0.75],[1,1],[0.75,1],[0.5,1],[0.25,1],[0,1],[0,0.75],[0,0.5],[0,0.25]];outlineConnect=0;gradientColor=none;html=1;whiteSpace=wrap;fontSize=12;fontStyle=0;container=1;pointerEvents=0;collapsible=0;recursiveResize=0;shape=mxgraph.aws4.group;grIcon=mxgraph.aws4.group_security_group;grStroke=0;strokeColor=#248814;fillColor=#E9F3E6;verticalAlign=top;align=left;spacingLeft=30;fontColor=#248814;dashed=0;rounded=0;labelBackgroundColor=none;comic=0;" parent="1" vertex="1">
          <mxGeometry x="1447" y="318.54" width="130" height="130" as="geometry" />
        </mxCell>
        <mxCell id="RZ0_6Ih5bEzpeEGCjAap-135" value="VPC" style="points=[[0,0],[0.25,0],[0.5,0],[0.75,0],[1,0],[1,0.25],[1,0.5],[1,0.75],[1,1],[0.75,1],[0.5,1],[0.25,1],[0,1],[0,0.75],[0,0.5],[0,0.25]];outlineConnect=0;gradientColor=none;html=1;whiteSpace=wrap;fontSize=12;fontStyle=0;container=1;pointerEvents=0;collapsible=0;recursiveResize=0;shape=mxgraph.aws4.group;grIcon=mxgraph.aws4.group_vpc;strokeColor=#248814;fillColor=none;verticalAlign=top;align=left;spacingLeft=30;fontColor=#AAB7B8;dashed=0;rounded=0;labelBackgroundColor=none;comic=0;" parent="1" vertex="1">
          <mxGeometry x="1277" y="128.25" width="340" height="360" as="geometry" />
        </mxCell>
        <mxCell id="RZ0_6Ih5bEzpeEGCjAap-160" value="" style="sketch=0;outlineConnect=0;fontColor=#232F3E;gradientColor=none;fillColor=#D45B07;strokeColor=none;dashed=0;verticalLabelPosition=bottom;verticalAlign=top;align=center;html=1;fontSize=12;fontStyle=0;aspect=fixed;pointerEvents=1;shape=mxgraph.aws4.instance2;rounded=0;labelBackgroundColor=none;comic=0;" parent="RZ0_6Ih5bEzpeEGCjAap-135" vertex="1">
          <mxGeometry x="236.5" y="216.29000000000002" width="38" height="38" as="geometry" />
        </mxCell>
        <mxCell id="RZ0_6Ih5bEzpeEGCjAap-161" value="" style="sketch=0;outlineConnect=0;fontColor=#232F3E;gradientColor=none;fillColor=#4D27AA;strokeColor=none;dashed=0;verticalLabelPosition=bottom;verticalAlign=top;align=center;html=1;fontSize=12;fontStyle=0;aspect=fixed;pointerEvents=1;shape=mxgraph.aws4.endpoints;rounded=0;labelBackgroundColor=none;comic=0;" parent="RZ0_6Ih5bEzpeEGCjAap-135" vertex="1">
          <mxGeometry x="196.5" y="216.29000000000002" width="38" height="38" as="geometry" />
        </mxCell>
        <mxCell id="RZ0_6Ih5bEzpeEGCjAap-162" value="" style="sketch=0;outlineConnect=0;fontColor=#232F3E;gradientColor=none;fillColor=#4D27AA;strokeColor=none;dashed=0;verticalLabelPosition=bottom;verticalAlign=top;align=center;html=1;fontSize=12;fontStyle=0;aspect=fixed;pointerEvents=1;shape=mxgraph.aws4.gateway_load_balancer;rounded=0;comic=0;" parent="RZ0_6Ih5bEzpeEGCjAap-135" vertex="1">
          <mxGeometry x="234.5" y="254.29000000000002" width="40" height="40" as="geometry" />
        </mxCell>
        <mxCell id="RZ0_6Ih5bEzpeEGCjAap-163" value="" style="sketch=0;outlineConnect=0;fontColor=#232F3E;gradientColor=none;fillColor=#4D27AA;strokeColor=none;dashed=0;verticalLabelPosition=bottom;verticalAlign=top;align=center;html=1;fontSize=12;fontStyle=0;aspect=fixed;pointerEvents=1;shape=mxgraph.aws4.network_load_balancer;rounded=0;comic=0;" parent="RZ0_6Ih5bEzpeEGCjAap-135" vertex="1">
          <mxGeometry x="195.5" y="254.29000000000002" width="40" height="40" as="geometry" />
        </mxCell>
        <mxCell id="RZ0_6Ih5bEzpeEGCjAap-133" value="" style="sketch=0;outlineConnect=0;fontColor=#232F3E;gradientColor=none;fillColor=#D45B07;strokeColor=none;dashed=0;verticalLabelPosition=bottom;verticalAlign=top;align=center;html=1;fontSize=12;fontStyle=0;aspect=fixed;pointerEvents=1;shape=mxgraph.aws4.instance2;rounded=0;labelBackgroundColor=none;comic=0;" parent="RZ0_6Ih5bEzpeEGCjAap-135" vertex="1">
          <mxGeometry x="236.5" y="66" width="38" height="38" as="geometry" />
        </mxCell>
        <mxCell id="RZ0_6Ih5bEzpeEGCjAap-131" value="" style="sketch=0;outlineConnect=0;fontColor=#232F3E;gradientColor=none;fillColor=#4D27AA;strokeColor=none;dashed=0;verticalLabelPosition=bottom;verticalAlign=top;align=center;html=1;fontSize=12;fontStyle=0;aspect=fixed;pointerEvents=1;shape=mxgraph.aws4.endpoints;rounded=0;labelBackgroundColor=none;comic=0;" parent="RZ0_6Ih5bEzpeEGCjAap-135" vertex="1">
          <mxGeometry x="196.5" y="66" width="38" height="38" as="geometry" />
        </mxCell>
        <mxCell id="RZ0_6Ih5bEzpeEGCjAap-159" value="" style="sketch=0;outlineConnect=0;fontColor=#232F3E;gradientColor=none;fillColor=#4D27AA;strokeColor=none;dashed=0;verticalLabelPosition=bottom;verticalAlign=top;align=center;html=1;fontSize=12;fontStyle=0;aspect=fixed;pointerEvents=1;shape=mxgraph.aws4.gateway_load_balancer;rounded=0;comic=0;" parent="RZ0_6Ih5bEzpeEGCjAap-135" vertex="1">
          <mxGeometry x="234.5" y="104" width="40" height="40" as="geometry" />
        </mxCell>
        <mxCell id="RZ0_6Ih5bEzpeEGCjAap-158" value="" style="sketch=0;outlineConnect=0;fontColor=#232F3E;gradientColor=none;fillColor=#4D27AA;strokeColor=none;dashed=0;verticalLabelPosition=bottom;verticalAlign=top;align=center;html=1;fontSize=12;fontStyle=0;aspect=fixed;pointerEvents=1;shape=mxgraph.aws4.network_load_balancer;rounded=0;comic=0;" parent="RZ0_6Ih5bEzpeEGCjAap-135" vertex="1">
          <mxGeometry x="195.5" y="104" width="40" height="40" as="geometry" />
        </mxCell>
        <mxCell id="RZ0_6Ih5bEzpeEGCjAap-174" value="" style="endArrow=none;html=1;fontSize=10;fontColor=none;endSize=6;strokeColor=#82b366;strokeWidth=10;elbow=vertical;fillColor=#d5e8d4;endFill=0;startArrow=block;startFill=1;sourcePerimeterSpacing=0;comic=0;" parent="RZ0_6Ih5bEzpeEGCjAap-135" edge="1">
          <mxGeometry width="50" height="50" relative="1" as="geometry">
            <mxPoint x="125" y="321.75" as="sourcePoint" />
            <mxPoint x="53" y="281.75" as="targetPoint" />
          </mxGeometry>
        </mxCell>
        <mxCell id="RZ0_6Ih5bEzpeEGCjAap-173" value="" style="html=1;endArrow=block;elbow=vertical;startArrow=none;endFill=1;strokeColor=#82b366;rounded=0;fontSize=10;fontColor=none;endSize=6;targetPerimeterSpacing=0;strokeWidth=10;fillColor=#d5e8d4;comic=0;" parent="RZ0_6Ih5bEzpeEGCjAap-135" edge="1">
          <mxGeometry width="100" relative="1" as="geometry">
            <mxPoint x="194.5" y="311.75" as="sourcePoint" />
            <mxPoint x="274.5" y="311.75" as="targetPoint" />
          </mxGeometry>
        </mxCell>
        <mxCell id="RZ0_6Ih5bEzpeEGCjAap-176" value="" style="endArrow=classic;html=1;fontSize=10;fontColor=none;endSize=6;targetPerimeterSpacing=0;strokeColor=#82b366;strokeWidth=10;elbow=vertical;fillColor=#d5e8d4;comic=0;" parent="RZ0_6Ih5bEzpeEGCjAap-135" edge="1">
          <mxGeometry width="50" height="50" relative="1" as="geometry">
            <mxPoint x="303" y="270.29" as="sourcePoint" />
            <mxPoint x="333" y="200.29000000000002" as="targetPoint" />
          </mxGeometry>
        </mxCell>
        <mxCell id="RZ0_6Ih5bEzpeEGCjAap-136" value="" style="sketch=0;points=[[0,0,0],[0.25,0,0],[0.5,0,0],[0.75,0,0],[1,0,0],[0,1,0],[0.25,1,0],[0.5,1,0],[0.75,1,0],[1,1,0],[0,0.25,0],[0,0.5,0],[0,0.75,0],[1,0.25,0],[1,0.5,0],[1,0.75,0]];outlineConnect=0;fontColor=#232F3E;strokeColor=#4D27AA;dashed=0;verticalLabelPosition=bottom;verticalAlign=top;align=center;html=1;fontSize=12;fontStyle=0;aspect=fixed;shape=mxgraph.aws4.resourceIcon;resIcon=mxgraph.aws4.transit_gateway;fillColor=none;comic=0;" parent="1" vertex="1">
          <mxGeometry x="1117" y="264.25" width="88" height="88" as="geometry" />
        </mxCell>
        <mxCell id="RZ0_6Ih5bEzpeEGCjAap-138" style="rounded=1;orthogonalLoop=1;jettySize=auto;html=1;entryX=1;entryY=0.5;entryDx=0;entryDy=0;entryPerimeter=0;fontSize=15;fontColor=none;startArrow=classic;startFill=1;strokeColor=#232F3E;endArrow=oval;endFill=1;comic=0;" parent="1" source="RZ0_6Ih5bEzpeEGCjAap-130" target="RZ0_6Ih5bEzpeEGCjAap-136" edge="1">
          <mxGeometry relative="1" as="geometry" />
        </mxCell>
        <mxCell id="RZ0_6Ih5bEzpeEGCjAap-139" style="rounded=1;orthogonalLoop=1;jettySize=auto;html=1;entryX=1;entryY=0.5;entryDx=0;entryDy=0;entryPerimeter=0;fontSize=15;fontColor=none;startArrow=classic;startFill=1;strokeColor=#232F3E;endArrow=oval;endFill=1;comic=0;" parent="1" source="RZ0_6Ih5bEzpeEGCjAap-129" target="RZ0_6Ih5bEzpeEGCjAap-136" edge="1">
          <mxGeometry relative="1" as="geometry" />
        </mxCell>
        <mxCell id="yWTK7wSygGAMq-4Vs5H4-76" style="edgeStyle=none;rounded=1;jumpStyle=line;orthogonalLoop=1;jettySize=auto;html=1;dashed=1;startArrow=none;startFill=0;endArrow=none;endFill=0;strokeColor=#232F3E;strokeWidth=1;" parent="1" target="yWTK7wSygGAMq-4Vs5H4-75" edge="1">
          <mxGeometry relative="1" as="geometry">
            <mxPoint x="1642" y="308" as="sourcePoint" />
          </mxGeometry>
        </mxCell>
        <mxCell id="RZ0_6Ih5bEzpeEGCjAap-140" value="" style="sketch=0;outlineConnect=0;fontColor=#232F3E;gradientColor=none;fillColor=#4D27AA;strokeColor=none;dashed=0;verticalLabelPosition=bottom;verticalAlign=top;align=center;html=1;fontSize=12;fontStyle=0;aspect=fixed;pointerEvents=1;shape=mxgraph.aws4.internet_gateway;rounded=0;comic=0;" parent="1" vertex="1">
          <mxGeometry x="1597" y="288.25" width="40" height="40" as="geometry" />
        </mxCell>
        <mxCell id="RZ0_6Ih5bEzpeEGCjAap-142" value="TGW RT" style="swimlane;fontStyle=0;childLayout=stackLayout;horizontal=1;startSize=26;fillColor=#e1d5e7;horizontalStack=0;resizeParent=1;resizeParentMax=0;resizeLast=0;collapsible=1;marginBottom=0;rounded=0;labelBackgroundColor=none;fontSize=15;strokeColor=#9673a6;comic=0;" parent="1" vertex="1">
          <mxGeometry x="1080" y="357.25" width="162" height="52" as="geometry" />
        </mxCell>
        <mxCell id="RZ0_6Ih5bEzpeEGCjAap-143" value="0.0.0.0/0 - Attachment" style="text;strokeColor=#9673a6;fillColor=#e1d5e7;align=left;verticalAlign=top;spacingLeft=4;spacingRight=4;overflow=hidden;rotatable=0;points=[[0,0.5],[1,0.5]];portConstraint=eastwest;rounded=0;labelBackgroundColor=none;fontSize=15;comic=0;" parent="RZ0_6Ih5bEzpeEGCjAap-142" vertex="1">
          <mxGeometry y="26" width="162" height="26" as="geometry" />
        </mxCell>
        <mxCell id="RZ0_6Ih5bEzpeEGCjAap-146" value="Subnet 1 RT" style="swimlane;fontStyle=0;childLayout=stackLayout;horizontal=1;startSize=26;fillColor=#e1d5e7;horizontalStack=0;resizeParent=1;resizeParentMax=0;resizeLast=0;collapsible=1;marginBottom=0;rounded=0;labelBackgroundColor=none;fontSize=15;strokeColor=#9673a6;comic=0;" parent="1" vertex="1">
          <mxGeometry x="1292" y="106.25" width="140" height="52" as="geometry" />
        </mxCell>
        <mxCell id="RZ0_6Ih5bEzpeEGCjAap-147" value="0.0.0.0/0 - FW1" style="text;strokeColor=#9673a6;fillColor=#e1d5e7;align=left;verticalAlign=top;spacingLeft=4;spacingRight=4;overflow=hidden;rotatable=0;points=[[0,0.5],[1,0.5]];portConstraint=eastwest;rounded=0;labelBackgroundColor=none;fontSize=15;comic=0;" parent="RZ0_6Ih5bEzpeEGCjAap-146" vertex="1">
          <mxGeometry y="26" width="140" height="26" as="geometry" />
        </mxCell>
        <mxCell id="RZ0_6Ih5bEzpeEGCjAap-148" value="Subnet 2 RT" style="swimlane;fontStyle=0;childLayout=stackLayout;horizontal=1;startSize=26;fillColor=#e1d5e7;horizontalStack=0;resizeParent=1;resizeParentMax=0;resizeLast=0;collapsible=1;marginBottom=0;rounded=0;labelBackgroundColor=none;fontSize=15;strokeColor=#9673a6;comic=0;" parent="1" vertex="1">
          <mxGeometry x="1297" y="461.75" width="140" height="52" as="geometry" />
        </mxCell>
        <mxCell id="RZ0_6Ih5bEzpeEGCjAap-149" value="0.0.0.0/0 - FW2" style="text;strokeColor=#9673a6;fillColor=#e1d5e7;align=left;verticalAlign=top;spacingLeft=4;spacingRight=4;overflow=hidden;rotatable=0;points=[[0,0.5],[1,0.5]];portConstraint=eastwest;rounded=0;labelBackgroundColor=none;fontSize=15;comic=0;" parent="RZ0_6Ih5bEzpeEGCjAap-148" vertex="1">
          <mxGeometry y="26" width="140" height="26" as="geometry" />
        </mxCell>
        <mxCell id="RZ0_6Ih5bEzpeEGCjAap-150" value="Subnet 4 RT" style="swimlane;fontStyle=0;childLayout=stackLayout;horizontal=1;startSize=26;fillColor=#e1d5e7;horizontalStack=0;resizeParent=1;resizeParentMax=0;resizeLast=0;collapsible=1;marginBottom=0;rounded=0;labelBackgroundColor=none;fontSize=15;strokeColor=#9673a6;comic=0;" parent="1" vertex="1">
          <mxGeometry x="1447" y="461.75" width="140" height="52" as="geometry" />
        </mxCell>
        <mxCell id="RZ0_6Ih5bEzpeEGCjAap-151" value="0.0.0.0/0 - IGW" style="text;strokeColor=#9673a6;fillColor=#e1d5e7;align=left;verticalAlign=top;spacingLeft=4;spacingRight=4;overflow=hidden;rotatable=0;points=[[0,0.5],[1,0.5]];portConstraint=eastwest;rounded=0;labelBackgroundColor=none;fontSize=15;comic=0;" parent="RZ0_6Ih5bEzpeEGCjAap-150" vertex="1">
          <mxGeometry y="26" width="140" height="26" as="geometry" />
        </mxCell>
        <mxCell id="RZ0_6Ih5bEzpeEGCjAap-152" value="Subnet 3 RT" style="swimlane;fontStyle=0;childLayout=stackLayout;horizontal=1;startSize=26;fillColor=#e1d5e7;horizontalStack=0;resizeParent=1;resizeParentMax=0;resizeLast=0;collapsible=1;marginBottom=0;rounded=0;labelBackgroundColor=none;fontSize=15;strokeColor=#9673a6;comic=0;" parent="1" vertex="1">
          <mxGeometry x="1442" y="106.25" width="140" height="52" as="geometry" />
        </mxCell>
        <mxCell id="RZ0_6Ih5bEzpeEGCjAap-153" value="0.0.0.0/0 - IGW" style="text;strokeColor=#9673a6;fillColor=#e1d5e7;align=left;verticalAlign=top;spacingLeft=4;spacingRight=4;overflow=hidden;rotatable=0;points=[[0,0.5],[1,0.5]];portConstraint=eastwest;rounded=0;labelBackgroundColor=none;fontSize=15;comic=0;" parent="RZ0_6Ih5bEzpeEGCjAap-152" vertex="1">
          <mxGeometry y="26" width="140" height="26" as="geometry" />
        </mxCell>
        <mxCell id="RZ0_6Ih5bEzpeEGCjAap-165" value="Attachment" style="rounded=1;whiteSpace=wrap;html=1;labelBackgroundColor=none;fontSize=10;strokeColor=#d6b656;fillColor=#fff2cc;rotation=335;comic=0;" parent="1" vertex="1">
          <mxGeometry x="1227" y="273.25" width="60" height="20" as="geometry" />
        </mxCell>
        <mxCell id="RZ0_6Ih5bEzpeEGCjAap-168" value="Attachment" style="rounded=1;whiteSpace=wrap;html=1;labelBackgroundColor=none;fontSize=10;strokeColor=#d6b656;fillColor=#fff2cc;rotation=26;comic=0;" parent="1" vertex="1">
          <mxGeometry x="1225" y="322.25" width="60" height="20" as="geometry" />
        </mxCell>
        <mxCell id="RZ0_6Ih5bEzpeEGCjAap-169" value="" style="shape=curlyBracket;whiteSpace=wrap;html=1;rounded=1;labelBackgroundColor=none;fontSize=10;fontColor=none;strokeColor=default;fillColor=none;gradientColor=none;strokeWidth=2;perimeterSpacing=0;comic=0;" parent="1" vertex="1">
          <mxGeometry x="920" y="80" width="260" height="460" as="geometry" />
        </mxCell>
        <mxCell id="RZ0_6Ih5bEzpeEGCjAap-170" value="" style="triangle;whiteSpace=wrap;html=1;rounded=0;labelBackgroundColor=none;fontSize=10;fontColor=none;strokeColor=default;strokeWidth=2;fillColor=#232F3E;gradientColor=none;comic=0;" parent="1" vertex="1">
          <mxGeometry x="920" y="300.01" width="10" height="20" as="geometry" />
        </mxCell>
        <mxCell id="RZ0_6Ih5bEzpeEGCjAap-172" value="" style="edgeStyle=orthogonalEdgeStyle;html=1;endArrow=block;elbow=vertical;startArrow=none;endFill=1;strokeColor=#82b366;rounded=0;fontSize=10;fontColor=none;endSize=6;targetPerimeterSpacing=0;strokeWidth=10;fillColor=#d5e8d4;comic=0;" parent="1" edge="1">
          <mxGeometry width="100" relative="1" as="geometry">
            <mxPoint x="1165" y="350.71" as="sourcePoint" />
            <mxPoint x="1265" y="350.71" as="targetPoint" />
          </mxGeometry>
        </mxCell>
        <mxCell id="RZ0_6Ih5bEzpeEGCjAap-180" style="edgeStyle=none;orthogonalLoop=1;jettySize=auto;html=1;fontSize=10;fontColor=none;startArrow=none;startFill=1;endArrow=none;endFill=0;endSize=6;strokeColor=#3333FF;strokeWidth=1;elbow=vertical;dashed=1;comic=0;" parent="1" source="RZ0_6Ih5bEzpeEGCjAap-181" target="RZ0_6Ih5bEzpeEGCjAap-177" edge="1">
          <mxGeometry relative="1" as="geometry">
            <mxPoint x="1504.5" y="-70.25" as="sourcePoint" />
          </mxGeometry>
        </mxCell>
        <mxCell id="RZ0_6Ih5bEzpeEGCjAap-177" value="Global Accelerator" style="sketch=0;points=[[0,0,0],[0.25,0,0],[0.5,0,0],[0.75,0,0],[1,0,0],[0,1,0],[0.25,1,0],[0.5,1,0],[0.75,1,0],[1,1,0],[0,0.25,0],[0,0.5,0],[0,0.75,0],[1,0.25,0],[1,0.5,0],[1,0.75,0]];outlineConnect=0;fontColor=#232F3E;gradientColor=none;gradientDirection=north;fillColor=none;strokeColor=#4D27AA;dashed=0;verticalLabelPosition=bottom;verticalAlign=top;align=center;html=1;fontSize=12;fontStyle=0;aspect=fixed;shape=mxgraph.aws4.resourceIcon;resIcon=mxgraph.aws4.global_accelerator;rounded=0;comic=0;" parent="1" vertex="1">
          <mxGeometry x="1824.5" y="-102.25" width="78" height="78" as="geometry" />
        </mxCell>
        <mxCell id="yWTK7wSygGAMq-4Vs5H4-20" style="edgeStyle=none;rounded=0;orthogonalLoop=1;jettySize=auto;html=1;endArrow=block;endFill=1;" parent="1" source="RZ0_6Ih5bEzpeEGCjAap-178" edge="1">
          <mxGeometry relative="1" as="geometry">
            <mxPoint x="1401.5" y="-107.5" as="targetPoint" />
          </mxGeometry>
        </mxCell>
        <mxCell id="yWTK7wSygGAMq-4Vs5H4-21" style="edgeStyle=none;rounded=0;orthogonalLoop=1;jettySize=auto;html=1;endArrow=block;endFill=1;" parent="1" source="RZ0_6Ih5bEzpeEGCjAap-178" edge="1">
          <mxGeometry relative="1" as="geometry">
            <mxPoint x="1403.5" y="-24.5" as="targetPoint" />
          </mxGeometry>
        </mxCell>
        <mxCell id="RZ0_6Ih5bEzpeEGCjAap-178" value="&lt;div&gt;NLB SSL/TLS &lt;br&gt;&lt;/div&gt;&lt;div&gt;inspection&lt;/div&gt;&lt;div&gt; and offloading&lt;/div&gt;" style="sketch=0;outlineConnect=0;fontColor=#232F3E;gradientColor=none;fillColor=#4D27AA;strokeColor=none;dashed=0;verticalLabelPosition=bottom;verticalAlign=top;align=center;html=1;fontSize=12;fontStyle=0;aspect=fixed;pointerEvents=1;shape=mxgraph.aws4.network_load_balancer;rounded=0;comic=0;" parent="1" vertex="1">
          <mxGeometry x="1533.5" y="-88.75" width="51" height="51" as="geometry" />
        </mxCell>
        <mxCell id="RZ0_6Ih5bEzpeEGCjAap-181" value="Maps to endpoint" style="rounded=1;whiteSpace=wrap;html=1;labelBackgroundColor=none;fontSize=10;strokeColor=#6c8ebf;strokeWidth=2;fillColor=#dae8fc;comic=0;" parent="1" vertex="1">
          <mxGeometry x="1659.5" y="-72.25" width="90" height="18" as="geometry" />
        </mxCell>
        <mxCell id="RZ0_6Ih5bEzpeEGCjAap-183" value="" style="edgeStyle=none;orthogonalLoop=1;jettySize=auto;html=1;fontSize=10;fontColor=none;startArrow=block;startFill=1;endArrow=none;endFill=0;endSize=6;strokeColor=#3333FF;strokeWidth=1;elbow=vertical;sourcePerimeterSpacing=0;dashed=1;comic=0;" parent="1" source="RZ0_6Ih5bEzpeEGCjAap-178" target="RZ0_6Ih5bEzpeEGCjAap-181" edge="1">
          <mxGeometry relative="1" as="geometry">
            <mxPoint x="1387.5000000000005" y="-70.25" as="targetPoint" />
            <mxPoint x="1550.5" y="-70.25" as="sourcePoint" />
          </mxGeometry>
        </mxCell>
        <mxCell id="RZ0_6Ih5bEzpeEGCjAap-251" style="edgeStyle=none;orthogonalLoop=1;jettySize=auto;html=1;fontSize=10;fontColor=none;startArrow=none;startFill=1;endArrow=block;endFill=1;endSize=6;targetPerimeterSpacing=0;strokeColor=#FF3333;strokeWidth=1;elbow=vertical;comic=0;dashed=1;" parent="1" source="RZ0_6Ih5bEzpeEGCjAap-256" target="RZ0_6Ih5bEzpeEGCjAap-245" edge="1">
          <mxGeometry relative="1" as="geometry" />
        </mxCell>
        <mxCell id="RZ0_6Ih5bEzpeEGCjAap-184" value="Remote Access for Cloud Admins &amp;amp; Devs" style="sketch=0;pointerEvents=1;shadow=0;dashed=0;html=1;strokeColor=none;fillColor=#505050;labelPosition=center;verticalLabelPosition=bottom;verticalAlign=top;outlineConnect=0;align=center;shape=mxgraph.office.concepts.remote_access;rounded=0;labelBackgroundColor=none;fontSize=10;fontColor=none;comic=0;" parent="1" vertex="1">
          <mxGeometry x="680" y="984.75" width="59" height="41" as="geometry" />
        </mxCell>
        <mxCell id="RZ0_6Ih5bEzpeEGCjAap-193" value="" style="group;comic=0;noLabel=0;labelPadding=5;" parent="1" vertex="1" connectable="0">
          <mxGeometry x="902" y="977.75" width="94" height="65.5" as="geometry" />
        </mxCell>
        <mxCell id="RZ0_6Ih5bEzpeEGCjAap-186" value="" style="sketch=0;pointerEvents=1;shadow=0;dashed=0;html=1;strokeColor=none;fillColor=#505050;labelPosition=center;verticalLabelPosition=bottom;verticalAlign=top;outlineConnect=0;align=center;shape=mxgraph.office.security.active_directory;rounded=0;labelBackgroundColor=none;fontSize=10;fontColor=none;comic=0;" parent="RZ0_6Ih5bEzpeEGCjAap-193" vertex="1">
          <mxGeometry x="47.92" y="29" width="40" height="36.5" as="geometry" />
        </mxCell>
        <mxCell id="RZ0_6Ih5bEzpeEGCjAap-191" value="Active Directory" style="sketch=0;pointerEvents=1;shadow=0;dashed=0;html=1;strokeColor=none;fillColor=#505050;labelPosition=center;verticalLabelPosition=bottom;outlineConnect=0;verticalAlign=top;align=center;shape=mxgraph.office.clouds.cloud;rounded=0;labelBackgroundColor=none;fontSize=10;fontColor=none;spacingBottom=8;horizontal=1;comic=0;noLabel=0;labelPadding=5;movableLabel=1;" parent="RZ0_6Ih5bEzpeEGCjAap-193" vertex="1">
          <mxGeometry width="94" height="55" as="geometry">
            <mxPoint x="1" y="9" as="offset" />
          </mxGeometry>
        </mxCell>
        <mxCell id="RZ0_6Ih5bEzpeEGCjAap-198" style="edgeStyle=orthogonalEdgeStyle;orthogonalLoop=1;jettySize=auto;html=1;dashed=1;fontSize=10;fontColor=none;startArrow=none;startFill=1;endArrow=none;endFill=0;endSize=6;strokeColor=#009900;strokeWidth=1;elbow=vertical;comic=0;" parent="1" source="RZ0_6Ih5bEzpeEGCjAap-220" target="RZ0_6Ih5bEzpeEGCjAap-184" edge="1">
          <mxGeometry relative="1" as="geometry">
            <Array as="points">
              <mxPoint x="750" y="1005" />
            </Array>
          </mxGeometry>
        </mxCell>
        <mxCell id="RZ0_6Ih5bEzpeEGCjAap-209" style="edgeStyle=orthogonalEdgeStyle;orthogonalLoop=1;jettySize=auto;html=1;dashed=1;fontSize=10;fontColor=none;startArrow=none;startFill=1;endArrow=none;endFill=0;endSize=6;targetPerimeterSpacing=0;strokeColor=#009900;strokeWidth=1;elbow=vertical;comic=0;" parent="1" source="RZ0_6Ih5bEzpeEGCjAap-200" target="RZ0_6Ih5bEzpeEGCjAap-191" edge="1">
          <mxGeometry relative="1" as="geometry" />
        </mxCell>
        <mxCell id="RZ0_6Ih5bEzpeEGCjAap-204" value="" style="shape=loopLimit;whiteSpace=wrap;html=1;strokeColor=#82b366;fillColor=#d5e8d4;rotation=-180;rounded=0;comic=0;" parent="1" vertex="1">
          <mxGeometry x="879" y="760" width="140" height="30" as="geometry" />
        </mxCell>
        <mxCell id="RZ0_6Ih5bEzpeEGCjAap-206" value="" style="sketch=0;outlineConnect=0;fontColor=#232F3E;gradientColor=none;fillColor=#BF0816;strokeColor=none;dashed=0;verticalLabelPosition=bottom;verticalAlign=top;align=center;html=1;fontSize=12;fontStyle=0;aspect=fixed;pointerEvents=1;shape=mxgraph.aws4.ad_connector;rounded=0;labelBackgroundColor=none;comic=0;" parent="1" vertex="1">
          <mxGeometry x="901" y="766.58" width="18" height="16.84" as="geometry" />
        </mxCell>
        <mxCell id="RZ0_6Ih5bEzpeEGCjAap-207" value="" style="sketch=0;outlineConnect=0;fontColor=#232F3E;gradientColor=none;fillColor=#BF0816;strokeColor=none;dashed=0;verticalLabelPosition=bottom;verticalAlign=top;align=center;html=1;fontSize=12;fontStyle=0;aspect=fixed;pointerEvents=1;shape=mxgraph.aws4.role;rounded=0;labelBackgroundColor=none;comic=0;" parent="1" vertex="1">
          <mxGeometry x="940" y="769.84" width="18" height="10.16" as="geometry" />
        </mxCell>
        <mxCell id="RZ0_6Ih5bEzpeEGCjAap-208" value="" style="sketch=0;outlineConnect=0;fontColor=#232F3E;gradientColor=none;fillColor=#BF0816;strokeColor=none;dashed=0;verticalLabelPosition=bottom;verticalAlign=top;align=center;html=1;fontSize=12;fontStyle=0;aspect=fixed;pointerEvents=1;shape=mxgraph.aws4.temporary_security_credential;rounded=0;labelBackgroundColor=none;comic=0;" parent="1" vertex="1">
          <mxGeometry x="978" y="765.8899999999999" width="18" height="18.23" as="geometry" />
        </mxCell>
        <mxCell id="RZ0_6Ih5bEzpeEGCjAap-200" value="" style="sketch=0;outlineConnect=0;fontColor=#232F3E;gradientColor=none;fillColor=#232F3D;strokeColor=none;dashed=0;verticalLabelPosition=bottom;verticalAlign=top;align=center;html=1;fontSize=12;fontStyle=0;aspect=fixed;pointerEvents=1;shape=mxgraph.aws4.saml_token;rounded=0;labelBackgroundColor=none;comic=0;" parent="1" vertex="1">
          <mxGeometry x="930" y="880" width="38" height="38" as="geometry" />
        </mxCell>
        <mxCell id="RZ0_6Ih5bEzpeEGCjAap-211" value="" style="edgeStyle=orthogonalEdgeStyle;orthogonalLoop=1;jettySize=auto;html=1;dashed=1;fontSize=10;fontColor=none;startArrow=block;startFill=1;endArrow=none;endFill=1;endSize=6;strokeColor=#009900;strokeWidth=1;elbow=vertical;comic=0;" parent="1" source="RZ0_6Ih5bEzpeEGCjAap-204" target="RZ0_6Ih5bEzpeEGCjAap-200" edge="1">
          <mxGeometry relative="1" as="geometry">
            <mxPoint x="949" y="789.9999999999998" as="sourcePoint" />
            <mxPoint x="949" y="1069.9999999999998" as="targetPoint" />
          </mxGeometry>
        </mxCell>
        <mxCell id="RZ0_6Ih5bEzpeEGCjAap-216" style="edgeStyle=orthogonalEdgeStyle;orthogonalLoop=1;jettySize=auto;html=1;entryX=0.75;entryY=0;entryDx=0;entryDy=0;fontSize=10;fontColor=none;startArrow=none;startFill=0;endArrow=block;endFill=1;endSize=6;targetPerimeterSpacing=0;strokeColor=#009900;strokeWidth=1;elbow=vertical;exitX=0.25;exitY=0;exitDx=0;exitDy=0;comic=0;" parent="1" source="RZ0_6Ih5bEzpeEGCjAap-54" target="RZ0_6Ih5bEzpeEGCjAap-62" edge="1">
          <mxGeometry relative="1" as="geometry">
            <mxPoint x="949" y="640" as="sourcePoint" />
            <Array as="points">
              <mxPoint x="914" y="590" />
              <mxPoint x="575" y="590" />
            </Array>
          </mxGeometry>
        </mxCell>
        <mxCell id="yWTK7wSygGAMq-4Vs5H4-35" style="edgeStyle=orthogonalEdgeStyle;rounded=1;orthogonalLoop=1;jettySize=auto;html=1;entryX=0.75;entryY=1;entryDx=0;entryDy=0;dashed=1;startArrow=none;startFill=0;endArrow=none;endFill=0;strokeWidth=1;strokeColor=#009900;" parent="1" source="RZ0_6Ih5bEzpeEGCjAap-217" target="yWTK7wSygGAMq-4Vs5H4-25" edge="1">
          <mxGeometry relative="1" as="geometry" />
        </mxCell>
        <mxCell id="RZ0_6Ih5bEzpeEGCjAap-217" value="Authenticate from Campus" style="rounded=1;whiteSpace=wrap;html=1;labelBackgroundColor=none;fontSize=10;strokeColor=#d79b00;strokeWidth=2;fillColor=#ffe6cc;comic=0;" parent="1" vertex="1">
          <mxGeometry x="-150" y="545" width="128.54" height="20" as="geometry" />
        </mxCell>
        <mxCell id="RZ0_6Ih5bEzpeEGCjAap-219" value="" style="edgeStyle=orthogonalEdgeStyle;orthogonalLoop=1;jettySize=auto;html=1;dashed=1;fontSize=10;fontColor=none;startArrow=none;startFill=0;endArrow=none;endFill=1;endSize=6;strokeColor=#009900;strokeWidth=1;elbow=vertical;comic=0;exitX=0.75;exitY=1;exitDx=0;exitDy=0;" parent="1" source="RZ0_6Ih5bEzpeEGCjAap-112" target="RZ0_6Ih5bEzpeEGCjAap-217" edge="1">
          <mxGeometry relative="1" as="geometry">
            <mxPoint x="-70" y="341.64327411167505" as="sourcePoint" />
            <mxPoint x="960" y="640" as="targetPoint" />
            <Array as="points">
              <mxPoint x="-638" y="556" />
            </Array>
          </mxGeometry>
        </mxCell>
        <mxCell id="RZ0_6Ih5bEzpeEGCjAap-221" value="" style="edgeStyle=orthogonalEdgeStyle;orthogonalLoop=1;jettySize=auto;html=1;dashed=1;fontSize=10;fontColor=none;startArrow=block;startFill=1;endArrow=none;endFill=0;endSize=6;strokeColor=#009900;strokeWidth=1;elbow=vertical;sourcePerimeterSpacing=0;comic=0;" parent="1" source="RZ0_6Ih5bEzpeEGCjAap-191" target="RZ0_6Ih5bEzpeEGCjAap-220" edge="1">
          <mxGeometry relative="1" as="geometry">
            <mxPoint x="902" y="1005.2857142857142" as="sourcePoint" />
            <mxPoint x="739" y="1005.2857142857142" as="targetPoint" />
            <Array as="points">
              <mxPoint x="750" y="1005" />
            </Array>
          </mxGeometry>
        </mxCell>
        <mxCell id="RZ0_6Ih5bEzpeEGCjAap-220" value="Authenticate" style="rounded=1;whiteSpace=wrap;html=1;labelBackgroundColor=none;fontSize=10;strokeColor=#d79b00;strokeWidth=2;fillColor=#ffe6cc;comic=0;" parent="1" vertex="1">
          <mxGeometry x="781" y="995.25" width="68" height="20" as="geometry" />
        </mxCell>
        <mxCell id="RZ0_6Ih5bEzpeEGCjAap-222" value="Data Access" style="rounded=1;whiteSpace=wrap;html=1;labelBackgroundColor=none;fontSize=10;strokeColor=#d79b00;strokeWidth=2;fillColor=#ffe6cc;comic=0;" parent="1" vertex="1">
          <mxGeometry x="20" y="300" width="68" height="20" as="geometry" />
        </mxCell>
        <mxCell id="RZ0_6Ih5bEzpeEGCjAap-224" value="Customer Access" style="rounded=1;whiteSpace=wrap;html=1;labelBackgroundColor=none;fontSize=10;strokeColor=#d79b00;strokeWidth=2;fillColor=#ffe6cc;comic=0;" parent="1" vertex="1">
          <mxGeometry x="495" y="-26.5" width="90" height="20" as="geometry" />
        </mxCell>
        <mxCell id="RZ0_6Ih5bEzpeEGCjAap-225" value="Role Switch" style="rounded=1;whiteSpace=wrap;html=1;labelBackgroundColor=none;fontSize=10;strokeColor=#d79b00;strokeWidth=2;fillColor=#ffe6cc;comic=0;" parent="1" vertex="1">
          <mxGeometry x="811" y="580" width="68" height="20" as="geometry" />
        </mxCell>
        <mxCell id="RZ0_6Ih5bEzpeEGCjAap-226" value="" style="shape=loopLimit;whiteSpace=wrap;html=1;strokeColor=#b85450;fillColor=#f8cecc;rotation=-180;rounded=0;comic=0;" parent="1" vertex="1">
          <mxGeometry x="218" y="790" width="140" height="30" as="geometry" />
        </mxCell>
        <mxCell id="RZ0_6Ih5bEzpeEGCjAap-228" value="" style="sketch=0;outlineConnect=0;fontColor=#232F3E;gradientColor=none;fillColor=#FF3333;strokeColor=none;dashed=0;verticalLabelPosition=bottom;verticalAlign=top;align=center;html=1;fontSize=12;fontStyle=0;aspect=fixed;pointerEvents=1;shape=mxgraph.aws4.generic_firewall;rounded=0;comic=0;" parent="1" vertex="1">
          <mxGeometry x="235.5" y="797.17" width="18" height="15.23" as="geometry" />
        </mxCell>
        <mxCell id="RZ0_6Ih5bEzpeEGCjAap-229" value="" style="sketch=0;outlineConnect=0;fontColor=#232F3E;gradientColor=none;fillColor=#4D27AA;strokeColor=none;dashed=0;verticalLabelPosition=bottom;verticalAlign=top;align=center;html=1;fontSize=12;fontStyle=0;aspect=fixed;pointerEvents=1;shape=mxgraph.aws4.flow_logs;rounded=0;labelBackgroundColor=none;comic=0;" parent="1" vertex="1">
          <mxGeometry x="294" y="797.18" width="18" height="18" as="geometry" />
        </mxCell>
        <mxCell id="RZ0_6Ih5bEzpeEGCjAap-230" value="" style="sketch=0;outlineConnect=0;fontColor=#232F3E;gradientColor=none;fillColor=#4D27AA;strokeColor=none;dashed=0;verticalLabelPosition=bottom;verticalAlign=top;align=center;html=1;fontSize=12;fontStyle=0;aspect=fixed;pointerEvents=1;shape=mxgraph.aws4.endpoints;rounded=0;labelBackgroundColor=none;comic=0;" parent="1" vertex="1">
          <mxGeometry x="262" y="797.18" width="18" height="18" as="geometry" />
        </mxCell>
        <mxCell id="RZ0_6Ih5bEzpeEGCjAap-231" value="Infrastructure as Code - DevSecOps" style="swimlane;childLayout=stackLayout;horizontal=1;fillColor=none;horizontalStack=1;resizeParent=1;resizeParentMax=0;resizeLast=0;collapsible=0;strokeColor=none;stackBorder=10;stackSpacing=-12;resizable=1;align=center;points=[];fontColor=#000000;rounded=0;labelBackgroundColor=none;fontSize=10;comic=0;glass=0;swimlaneLine=1;noLabel=0;movableLabel=1;labelPadding=5;" parent="1" vertex="1">
          <mxGeometry x="125" y="1215" width="1161" height="100" as="geometry" />
        </mxCell>
        <mxCell id="RZ0_6Ih5bEzpeEGCjAap-232" value="IDE" style="shape=step;perimeter=stepPerimeter;fixedSize=1;points=[];rounded=0;labelBackgroundColor=none;fontSize=10;strokeColor=#6c8ebf;strokeWidth=2;fillColor=#dae8fc;comic=0;" parent="RZ0_6Ih5bEzpeEGCjAap-231" vertex="1">
          <mxGeometry x="10" y="33" width="70" height="57" as="geometry" />
        </mxCell>
        <mxCell id="RZ0_6Ih5bEzpeEGCjAap-233" value="Checkov compliance checks" style="shape=step;perimeter=stepPerimeter;fixedSize=1;points=[];rounded=0;labelBackgroundColor=none;fontSize=10;strokeColor=#d79b00;strokeWidth=2;fillColor=#ffe6cc;comic=0;" parent="RZ0_6Ih5bEzpeEGCjAap-231" vertex="1">
          <mxGeometry x="68" y="33" width="182" height="57" as="geometry" />
        </mxCell>
        <mxCell id="RZ0_6Ih5bEzpeEGCjAap-237" value="Linter" style="shape=step;perimeter=stepPerimeter;fixedSize=1;points=[];rounded=0;labelBackgroundColor=none;fontSize=10;strokeColor=#d6b656;strokeWidth=2;fillColor=#fff2cc;comic=0;" parent="RZ0_6Ih5bEzpeEGCjAap-231" vertex="1">
          <mxGeometry x="238" y="33" width="127" height="57" as="geometry" />
        </mxCell>
        <mxCell id="RZ0_6Ih5bEzpeEGCjAap-234" value="Talisman secrets check" style="shape=step;perimeter=stepPerimeter;fixedSize=1;points=[];rounded=0;labelBackgroundColor=none;fontSize=10;strokeColor=#d79b00;strokeWidth=2;fillColor=#ffe6cc;comic=0;" parent="RZ0_6Ih5bEzpeEGCjAap-231" vertex="1">
          <mxGeometry x="353" y="33" width="158" height="57" as="geometry" />
        </mxCell>
        <mxCell id="RZ0_6Ih5bEzpeEGCjAap-235" value="Repo compliance scanners" style="shape=step;perimeter=stepPerimeter;fixedSize=1;points=[];rounded=0;labelBackgroundColor=none;fontSize=10;strokeColor=#d79b00;strokeWidth=2;fillColor=#ffe6cc;comic=0;noLabel=0;" parent="RZ0_6Ih5bEzpeEGCjAap-231" vertex="1">
          <mxGeometry x="499" y="33" width="172" height="57" as="geometry" />
        </mxCell>
        <mxCell id="RZ0_6Ih5bEzpeEGCjAap-321" value="Remediate " style="shape=step;perimeter=stepPerimeter;fixedSize=1;points=[];rounded=0;labelBackgroundColor=none;fontSize=10;strokeColor=#6c8ebf;strokeWidth=2;fillColor=#dae8fc;comic=0;" parent="RZ0_6Ih5bEzpeEGCjAap-231" vertex="1">
          <mxGeometry x="659" y="33" width="102" height="57" as="geometry" />
        </mxCell>
        <mxCell id="RZ0_6Ih5bEzpeEGCjAap-320" value="Findings" style="shape=step;perimeter=stepPerimeter;fixedSize=1;points=[];rounded=0;labelBackgroundColor=none;fontSize=10;strokeColor=#b85450;strokeWidth=2;fillColor=#f8cecc;comic=0;" parent="RZ0_6Ih5bEzpeEGCjAap-231" vertex="1">
          <mxGeometry x="749" y="33" width="92" height="57" as="geometry" />
        </mxCell>
        <mxCell id="RZ0_6Ih5bEzpeEGCjAap-322" value="Validate" style="shape=step;perimeter=stepPerimeter;fixedSize=1;points=[];rounded=0;labelBackgroundColor=none;fontSize=10;strokeColor=#82b366;strokeWidth=2;fillColor=#d5e8d4;comic=0;" parent="RZ0_6Ih5bEzpeEGCjAap-231" vertex="1">
          <mxGeometry x="829" y="33" width="92" height="57" as="geometry" />
        </mxCell>
        <mxCell id="RZ0_6Ih5bEzpeEGCjAap-318" value="Run/test build" style="shape=step;perimeter=stepPerimeter;fixedSize=1;points=[];rounded=0;labelBackgroundColor=none;fontSize=10;strokeColor=#6c8ebf;strokeWidth=2;fillColor=#dae8fc;comic=0;" parent="RZ0_6Ih5bEzpeEGCjAap-231" vertex="1">
          <mxGeometry x="909" y="33" width="127" height="57" as="geometry" />
        </mxCell>
        <mxCell id="RZ0_6Ih5bEzpeEGCjAap-319" value="Push to pre-prod" style="shape=step;perimeter=stepPerimeter;fixedSize=1;points=[];rounded=0;labelBackgroundColor=none;fontSize=10;strokeColor=#82b366;strokeWidth=2;fillColor=#d5e8d4;comic=0;" parent="RZ0_6Ih5bEzpeEGCjAap-231" vertex="1">
          <mxGeometry x="1024" y="33" width="127" height="57" as="geometry" />
        </mxCell>
        <mxCell id="RZ0_6Ih5bEzpeEGCjAap-252" style="edgeStyle=none;orthogonalLoop=1;jettySize=auto;html=1;entryX=0.5;entryY=0;entryDx=0;entryDy=0;fontSize=10;fontColor=none;startArrow=none;startFill=0;endArrow=block;endFill=1;endSize=6;targetPerimeterSpacing=0;strokeColor=#FF3333;strokeWidth=1;elbow=vertical;dashed=1;comic=0;" parent="1" source="RZ0_6Ih5bEzpeEGCjAap-254" target="RZ0_6Ih5bEzpeEGCjAap-226" edge="1">
          <mxGeometry relative="1" as="geometry" />
        </mxCell>
        <mxCell id="RZ0_6Ih5bEzpeEGCjAap-253" value="" style="group;comic=0;" parent="1" vertex="1" connectable="0">
          <mxGeometry x="168" y="960" width="233.60000000000002" height="112.25" as="geometry" />
        </mxCell>
        <mxCell id="RZ0_6Ih5bEzpeEGCjAap-188" value="" style="image;image=img/lib/atlassian/Jira_Logo.svg;rounded=0;labelBackgroundColor=none;fontSize=10;fontColor=none;strokeColor=default;strokeWidth=2;fillColor=none;gradientColor=none;comic=0;" parent="RZ0_6Ih5bEzpeEGCjAap-253" vertex="1">
          <mxGeometry x="18" y="63" width="50" height="40" as="geometry" />
        </mxCell>
        <mxCell id="RZ0_6Ih5bEzpeEGCjAap-246" value="" style="dashed=0;outlineConnect=0;html=1;align=center;labelPosition=center;verticalLabelPosition=bottom;verticalAlign=top;shape=mxgraph.weblogos.google_drive;rounded=0;labelBackgroundColor=none;comic=0;fontSize=10;fontColor=none;strokeColor=default;strokeWidth=1;fillColor=#3399FF;gradientColor=none;" parent="RZ0_6Ih5bEzpeEGCjAap-253" vertex="1">
          <mxGeometry x="97.5" y="83.25" width="36.4" height="29" as="geometry" />
        </mxCell>
        <mxCell id="RZ0_6Ih5bEzpeEGCjAap-247" value="" style="dashed=0;outlineConnect=0;html=1;align=center;labelPosition=center;verticalLabelPosition=bottom;verticalAlign=top;shape=mxgraph.weblogos.gmail;rounded=0;labelBackgroundColor=none;comic=0;fontSize=10;fontColor=none;strokeColor=default;strokeWidth=1;fillColor=#3399FF;gradientColor=none;" parent="RZ0_6Ih5bEzpeEGCjAap-253" vertex="1">
          <mxGeometry x="107.60000000000002" width="24.8" height="20.8" as="geometry" />
        </mxCell>
        <mxCell id="RZ0_6Ih5bEzpeEGCjAap-248" value="" style="image;image=img/lib/atlassian/Bitbucket_Logo.svg;rounded=0;labelBackgroundColor=none;comic=0;fontSize=10;fontColor=none;strokeColor=default;strokeWidth=1;fillColor=#3399FF;gradientColor=none;" parent="RZ0_6Ih5bEzpeEGCjAap-253" vertex="1">
          <mxGeometry x="152" y="28.850000000000023" width="31" height="39" as="geometry" />
        </mxCell>
        <mxCell id="RZ0_6Ih5bEzpeEGCjAap-249" value="" style="dashed=0;outlineConnect=0;html=1;align=center;labelPosition=center;verticalLabelPosition=bottom;verticalAlign=top;shape=mxgraph.weblogos.aws;rounded=0;labelBackgroundColor=none;comic=0;fontSize=10;fontColor=none;strokeColor=default;strokeWidth=1;fillColor=#3399FF;gradientColor=none;" parent="RZ0_6Ih5bEzpeEGCjAap-253" vertex="1">
          <mxGeometry x="190" y="67.84999999999991" width="43.6" height="38.4" as="geometry" />
        </mxCell>
        <mxCell id="RZ0_6Ih5bEzpeEGCjAap-255" value="" style="edgeStyle=none;orthogonalLoop=1;jettySize=auto;html=1;entryX=0.5;entryY=0;entryDx=0;entryDy=0;fontSize=10;fontColor=none;startArrow=none;startFill=0;endArrow=none;endFill=1;endSize=6;strokeColor=#FF3333;strokeWidth=1;elbow=vertical;dashed=1;comic=0;" parent="1" source="RZ0_6Ih5bEzpeEGCjAap-245" target="RZ0_6Ih5bEzpeEGCjAap-254" edge="1">
          <mxGeometry relative="1" as="geometry">
            <mxPoint x="288" y="914.25" as="sourcePoint" />
            <mxPoint x="288" y="820" as="targetPoint" />
          </mxGeometry>
        </mxCell>
        <mxCell id="RZ0_6Ih5bEzpeEGCjAap-254" value="No access" style="rounded=1;whiteSpace=wrap;html=1;labelBackgroundColor=none;fontSize=10;strokeColor=#b85450;strokeWidth=2;fillColor=#f8cecc;comic=0;" parent="1" vertex="1">
          <mxGeometry x="254" y="860" width="68" height="20" as="geometry" />
        </mxCell>
        <mxCell id="RZ0_6Ih5bEzpeEGCjAap-256" value="Can you see your data?" style="rounded=1;whiteSpace=wrap;html=1;labelBackgroundColor=none;fontSize=10;strokeColor=#d6b656;strokeWidth=2;fillColor=#fff2cc;comic=0;" parent="1" vertex="1">
          <mxGeometry x="522" y="988.38" width="68" height="33.75" as="geometry" />
        </mxCell>
        <mxCell id="RZ0_6Ih5bEzpeEGCjAap-257" value="" style="edgeStyle=none;orthogonalLoop=1;jettySize=auto;html=1;fontSize=10;fontColor=none;startArrow=none;startFill=0;endArrow=none;endFill=1;endSize=6;strokeColor=#FF3333;strokeWidth=1;elbow=vertical;comic=0;dashed=1;" parent="1" source="RZ0_6Ih5bEzpeEGCjAap-184" target="RZ0_6Ih5bEzpeEGCjAap-256" edge="1">
          <mxGeometry relative="1" as="geometry">
            <mxPoint x="680" y="1005.25" as="sourcePoint" />
            <mxPoint x="438" y="1005.25" as="targetPoint" />
          </mxGeometry>
        </mxCell>
        <mxCell id="yWTK7wSygGAMq-4Vs5H4-36" style="edgeStyle=orthogonalEdgeStyle;rounded=1;orthogonalLoop=1;jettySize=auto;html=1;entryX=0.5;entryY=1;entryDx=0;entryDy=0;dashed=1;startArrow=none;startFill=0;endArrow=block;endFill=1;strokeColor=#FF3333;strokeWidth=1;jumpStyle=line;" parent="1" source="RZ0_6Ih5bEzpeEGCjAap-259" target="yWTK7wSygGAMq-4Vs5H4-25" edge="1">
          <mxGeometry relative="1" as="geometry" />
        </mxCell>
        <mxCell id="RZ0_6Ih5bEzpeEGCjAap-259" value="Can you see your data?" style="rounded=1;whiteSpace=wrap;html=1;labelBackgroundColor=none;fontSize=10;strokeColor=#d6b656;strokeWidth=2;fillColor=#fff2cc;comic=0;" parent="1" vertex="1">
          <mxGeometry x="-105.53999999999999" y="988.38" width="68" height="33.75" as="geometry" />
        </mxCell>
        <mxCell id="RZ0_6Ih5bEzpeEGCjAap-267" value="SecOps" style="swimlane;childLayout=stackLayout;horizontal=1;fillColor=none;horizontalStack=1;resizeParent=1;resizeParentMax=0;resizeLast=0;collapsible=0;strokeColor=none;stackBorder=10;stackSpacing=-12;resizable=1;align=center;points=[];fontColor=#000000;rounded=0;labelBackgroundColor=none;fontSize=10;comic=0;" parent="1" vertex="1">
          <mxGeometry x="303" y="1380" width="790" height="100" as="geometry" />
        </mxCell>
        <mxCell id="RZ0_6Ih5bEzpeEGCjAap-268" value="Performance monitoring" style="shape=step;perimeter=stepPerimeter;fixedSize=1;points=[];rounded=0;labelBackgroundColor=none;fontSize=10;strokeColor=#d6b656;strokeWidth=2;fillColor=#fff2cc;comic=0;" parent="RZ0_6Ih5bEzpeEGCjAap-267" vertex="1">
          <mxGeometry x="10" y="33" width="160" height="57" as="geometry" />
        </mxCell>
        <mxCell id="RZ0_6Ih5bEzpeEGCjAap-269" value="Active security monitoring" style="shape=step;perimeter=stepPerimeter;fixedSize=1;points=[];rounded=0;labelBackgroundColor=none;fontSize=10;strokeColor=#d79b00;strokeWidth=2;fillColor=#ffe6cc;comic=0;" parent="RZ0_6Ih5bEzpeEGCjAap-267" vertex="1">
          <mxGeometry x="158" y="33" width="172" height="57" as="geometry" />
        </mxCell>
        <mxCell id="RZ0_6Ih5bEzpeEGCjAap-236" value="AWS compliance checks per account" style="shape=step;perimeter=stepPerimeter;fixedSize=1;points=[];rounded=0;labelBackgroundColor=none;fontSize=10;strokeColor=#d79b00;strokeWidth=2;fillColor=#ffe6cc;comic=0;" parent="RZ0_6Ih5bEzpeEGCjAap-267" vertex="1">
          <mxGeometry x="318" y="33" width="212" height="57" as="geometry" />
        </mxCell>
        <mxCell id="RZ0_6Ih5bEzpeEGCjAap-276" value="Findings" style="shape=step;perimeter=stepPerimeter;fixedSize=1;points=[];rounded=0;labelBackgroundColor=none;fontSize=10;strokeColor=#b85450;strokeWidth=2;fillColor=#f8cecc;comic=0;" parent="RZ0_6Ih5bEzpeEGCjAap-267" vertex="1">
          <mxGeometry x="518" y="33" width="92" height="57" as="geometry" />
        </mxCell>
        <mxCell id="RZ0_6Ih5bEzpeEGCjAap-277" value="Remediate " style="shape=step;perimeter=stepPerimeter;fixedSize=1;points=[];rounded=0;labelBackgroundColor=none;fontSize=10;strokeColor=#6c8ebf;strokeWidth=2;fillColor=#dae8fc;comic=0;" parent="RZ0_6Ih5bEzpeEGCjAap-267" vertex="1">
          <mxGeometry x="598" y="33" width="102" height="57" as="geometry" />
        </mxCell>
        <mxCell id="RZ0_6Ih5bEzpeEGCjAap-278" value="Validate" style="shape=step;perimeter=stepPerimeter;fixedSize=1;points=[];rounded=0;labelBackgroundColor=none;fontSize=10;strokeColor=#82b366;strokeWidth=2;fillColor=#d5e8d4;comic=0;" parent="RZ0_6Ih5bEzpeEGCjAap-267" vertex="1">
          <mxGeometry x="688" y="33" width="92" height="57" as="geometry" />
        </mxCell>
        <mxCell id="RZ0_6Ih5bEzpeEGCjAap-282" value="" style="shape=loopLimit;whiteSpace=wrap;html=1;strokeColor=#d79b00;fillColor=#ffe6cc;rotation=-180;rounded=0;comic=0;" parent="1" vertex="1">
          <mxGeometry x="720" y="759.9999999999999" width="140" height="30" as="geometry" />
        </mxCell>
        <mxCell id="RZ0_6Ih5bEzpeEGCjAap-287" value="" style="sketch=0;points=[[0,0,0],[0.25,0,0],[0.5,0,0],[0.75,0,0],[1,0,0],[0,1,0],[0.25,1,0],[0.5,1,0],[0.75,1,0],[1,1,0],[0,0.25,0],[0,0.5,0],[0,0.75,0],[1,0.25,0],[1,0.5,0],[1,0.75,0]];outlineConnect=0;fontColor=#232F3E;gradientColor=none;gradientDirection=north;fillColor=none;strokeColor=#CC0000;dashed=0;verticalLabelPosition=bottom;verticalAlign=top;align=center;html=1;fontSize=12;fontStyle=0;aspect=fixed;shape=mxgraph.aws4.resourceIcon;resIcon=mxgraph.aws4.security_hub;rounded=0;shadow=0;labelBackgroundColor=none;comic=0;" parent="1" vertex="1">
          <mxGeometry x="739" y="766.0000000000001" width="18" height="18" as="geometry" />
        </mxCell>
        <mxCell id="RZ0_6Ih5bEzpeEGCjAap-288" value="" style="sketch=0;outlineConnect=0;fontColor=#232F3E;gradientColor=none;fillColor=#3F8624;strokeColor=none;dashed=0;verticalLabelPosition=bottom;verticalAlign=top;align=center;html=1;fontSize=12;fontStyle=0;aspect=fixed;pointerEvents=1;shape=mxgraph.aws4.bucket;rounded=0;shadow=0;labelBackgroundColor=none;comic=0;" parent="1" vertex="1">
          <mxGeometry x="825.5" y="765.6399999999999" width="18" height="18.72" as="geometry" />
        </mxCell>
        <mxCell id="RZ0_6Ih5bEzpeEGCjAap-290" value="" style="shape=loopLimit;whiteSpace=wrap;html=1;strokeColor=#d79b00;fillColor=#ffe6cc;rotation=-180;rounded=0;comic=0;" parent="1" vertex="1">
          <mxGeometry x="720" y="789.9999999999999" width="140" height="30" as="geometry" />
        </mxCell>
        <mxCell id="RZ0_6Ih5bEzpeEGCjAap-291" value="" style="sketch=0;points=[[0,0,0],[0.25,0,0],[0.5,0,0],[0.75,0,0],[1,0,0],[0,1,0],[0.25,1,0],[0.5,1,0],[0.75,1,0],[1,1,0],[0,0.25,0],[0,0.5,0],[0,0.75,0],[1,0.25,0],[1,0.5,0],[1,0.75,0]];points=[[0,0,0],[0.25,0,0],[0.5,0,0],[0.75,0,0],[1,0,0],[0,1,0],[0.25,1,0],[0.5,1,0],[0.75,1,0],[1,1,0],[0,0.25,0],[0,0.5,0],[0,0.75,0],[1,0.25,0],[1,0.5,0],[1,0.75,0]];outlineConnect=0;fontColor=#232F3E;gradientColor=#F34482;gradientDirection=north;fillColor=none;strokeColor=#CC0000;dashed=0;verticalLabelPosition=bottom;verticalAlign=top;align=center;html=1;fontSize=12;fontStyle=0;aspect=fixed;shape=mxgraph.aws4.resourceIcon;resIcon=mxgraph.aws4.config;rounded=0;shadow=0;labelBackgroundColor=none;comic=0;" parent="1" vertex="1">
          <mxGeometry x="767" y="796" width="18" height="18" as="geometry" />
        </mxCell>
        <mxCell id="RZ0_6Ih5bEzpeEGCjAap-292" value="" style="sketch=0;points=[[0,0,0],[0.25,0,0],[0.5,0,0],[0.75,0,0],[1,0,0],[0,1,0],[0.25,1,0],[0.5,1,0],[0.75,1,0],[1,1,0],[0,0.25,0],[0,0.5,0],[0,0.75,0],[1,0.25,0],[1,0.5,0],[1,0.75,0]];points=[[0,0,0],[0.25,0,0],[0.5,0,0],[0.75,0,0],[1,0,0],[0,1,0],[0.25,1,0],[0.5,1,0],[0.75,1,0],[1,1,0],[0,0.25,0],[0,0.5,0],[0,0.75,0],[1,0.25,0],[1,0.5,0],[1,0.75,0]];outlineConnect=0;fontColor=#232F3E;gradientColor=#F34482;gradientDirection=north;fillColor=none;strokeColor=#CC0000;dashed=0;verticalLabelPosition=bottom;verticalAlign=top;align=center;html=1;fontSize=12;fontStyle=0;aspect=fixed;shape=mxgraph.aws4.resourceIcon;resIcon=mxgraph.aws4.fault_injection_simulator;rounded=0;shadow=0;labelBackgroundColor=none;comic=0;" parent="1" vertex="1">
          <mxGeometry x="767" y="766.36" width="18" height="18" as="geometry" />
        </mxCell>
        <mxCell id="RZ0_6Ih5bEzpeEGCjAap-293" value="" style="sketch=0;points=[[0,0,0],[0.25,0,0],[0.5,0,0],[0.75,0,0],[1,0,0],[0,1,0],[0.25,1,0],[0.5,1,0],[0.75,1,0],[1,1,0],[0,0.25,0],[0,0.5,0],[0,0.75,0],[1,0.25,0],[1,0.5,0],[1,0.75,0]];points=[[0,0,0],[0.25,0,0],[0.5,0,0],[0.75,0,0],[1,0,0],[0,1,0],[0.25,1,0],[0.5,1,0],[0.75,1,0],[1,1,0],[0,0.25,0],[0,0.5,0],[0,0.75,0],[1,0.25,0],[1,0.5,0],[1,0.75,0]];outlineConnect=0;fontColor=#232F3E;gradientColor=#F34482;gradientDirection=north;fillColor=none;strokeColor=#CC0000;dashed=0;verticalLabelPosition=bottom;verticalAlign=top;align=center;html=1;fontSize=12;fontStyle=0;aspect=fixed;shape=mxgraph.aws4.resourceIcon;resIcon=mxgraph.aws4.cloudtrail;rounded=0;shadow=0;labelBackgroundColor=none;comic=0;" parent="1" vertex="1">
          <mxGeometry x="798" y="796" width="18" height="18" as="geometry" />
        </mxCell>
        <mxCell id="RZ0_6Ih5bEzpeEGCjAap-294" value="" style="sketch=0;points=[[0,0,0],[0.25,0,0],[0.5,0,0],[0.75,0,0],[1,0,0],[0,1,0],[0.25,1,0],[0.5,1,0],[0.75,1,0],[1,1,0],[0,0.25,0],[0,0.5,0],[0,0.75,0],[1,0.25,0],[1,0.5,0],[1,0.75,0]];points=[[0,0,0],[0.25,0,0],[0.5,0,0],[0.75,0,0],[1,0,0],[0,1,0],[0.25,1,0],[0.5,1,0],[0.75,1,0],[1,1,0],[0,0.25,0],[0,0.5,0],[0,0.75,0],[1,0.25,0],[1,0.5,0],[1,0.75,0]];outlineConnect=0;fontColor=#232F3E;gradientColor=#F34482;gradientDirection=north;fillColor=none;strokeColor=#CC0000;dashed=0;verticalLabelPosition=bottom;verticalAlign=top;align=center;html=1;fontSize=12;fontStyle=0;aspect=fixed;shape=mxgraph.aws4.resourceIcon;resIcon=mxgraph.aws4.cloudwatch_2;rounded=0;shadow=0;labelBackgroundColor=none;comic=0;" parent="1" vertex="1">
          <mxGeometry x="798" y="766.58" width="18" height="18" as="geometry" />
        </mxCell>
        <mxCell id="RZ0_6Ih5bEzpeEGCjAap-295" value="" style="sketch=0;points=[[0,0,0],[0.25,0,0],[0.5,0,0],[0.75,0,0],[1,0,0],[0,1,0],[0.25,1,0],[0.5,1,0],[0.75,1,0],[1,1,0],[0,0.25,0],[0,0.5,0],[0,0.75,0],[1,0.25,0],[1,0.5,0],[1,0.75,0]];points=[[0,0,0],[0.25,0,0],[0.5,0,0],[0.75,0,0],[1,0,0],[0,1,0],[0.25,1,0],[0.5,1,0],[0.75,1,0],[1,1,0],[0,0.25,0],[0,0.5,0],[0,0.75,0],[1,0.25,0],[1,0.5,0],[1,0.75,0]];outlineConnect=0;fontColor=#232F3E;gradientColor=#F34482;gradientDirection=north;fillColor=none;strokeColor=#CC0000;dashed=0;verticalLabelPosition=bottom;verticalAlign=top;align=center;html=1;fontSize=12;fontStyle=0;aspect=fixed;shape=mxgraph.aws4.resourceIcon;resIcon=mxgraph.aws4.systems_manager;rounded=0;shadow=0;labelBackgroundColor=none;comic=0;" parent="1" vertex="1">
          <mxGeometry x="739" y="794.8299999999999" width="18" height="18" as="geometry" />
        </mxCell>
        <mxCell id="RZ0_6Ih5bEzpeEGCjAap-286" value="" style="sketch=0;points=[[0,0,0],[0.25,0,0],[0.5,0,0],[0.75,0,0],[1,0,0],[0,1,0],[0.25,1,0],[0.5,1,0],[0.75,1,0],[1,1,0],[0,0.25,0],[0,0.5,0],[0,0.75,0],[1,0.25,0],[1,0.5,0],[1,0.75,0]];outlineConnect=0;fontColor=#232F3E;gradientColor=#F54749;gradientDirection=north;fillColor=none;strokeColor=#CC0000;dashed=0;verticalLabelPosition=bottom;verticalAlign=top;align=center;html=1;fontSize=12;fontStyle=0;aspect=fixed;shape=mxgraph.aws4.resourceIcon;resIcon=mxgraph.aws4.audit_manager;rounded=0;shadow=0;labelBackgroundColor=none;comic=0;" parent="1" vertex="1">
          <mxGeometry x="825.5" y="796.0000000000001" width="18" height="18" as="geometry" />
        </mxCell>
        <mxCell id="RZ0_6Ih5bEzpeEGCjAap-309" style="edgeStyle=orthogonalEdgeStyle;comic=0;orthogonalLoop=1;jettySize=auto;html=1;shadow=0;dashed=1;fontSize=10;fontColor=none;startArrow=block;startFill=1;endArrow=none;endFill=0;endSize=6;strokeColor=#3333FF;strokeWidth=1;elbow=vertical;sourcePerimeterSpacing=0;" parent="1" target="RZ0_6Ih5bEzpeEGCjAap-299" edge="1">
          <mxGeometry relative="1" as="geometry">
            <mxPoint x="360" y="800" as="sourcePoint" />
            <Array as="points">
              <mxPoint x="400" y="800" />
              <mxPoint x="400" y="910" />
            </Array>
          </mxGeometry>
        </mxCell>
        <mxCell id="RZ0_6Ih5bEzpeEGCjAap-299" value="3rd Party monitoring/Security tools with IAM access" style="rounded=1;whiteSpace=wrap;html=1;labelBackgroundColor=none;fontSize=10;strokeColor=#d6b656;strokeWidth=2;fillColor=#fff2cc;comic=0;" parent="1" vertex="1">
          <mxGeometry x="453.5" y="895" width="173" height="31.75" as="geometry" />
        </mxCell>
        <mxCell id="RZ0_6Ih5bEzpeEGCjAap-301" value="Access to Sec/Mon tools for SecOps" style="sketch=0;pointerEvents=1;shadow=0;dashed=0;html=1;strokeColor=none;fillColor=#505050;labelPosition=center;verticalLabelPosition=bottom;verticalAlign=top;outlineConnect=0;align=center;shape=mxgraph.office.devices.laptop;rounded=0;labelBackgroundColor=none;comic=0;fontSize=10;fontColor=none;" parent="1" vertex="1">
          <mxGeometry x="577" y="1100" width="58" height="34" as="geometry" />
        </mxCell>
        <mxCell id="RZ0_6Ih5bEzpeEGCjAap-313" value="" style="sketch=0;points=[[0,0,0],[0.25,0,0],[0.5,0,0],[0.75,0,0],[1,0,0],[0,1,0],[0.25,1,0],[0.5,1,0],[0.75,1,0],[1,1,0],[0,0.25,0],[0,0.5,0],[0,0.75,0],[1,0.25,0],[1,0.5,0],[1,0.75,0]];points=[[0,0,0],[0.25,0,0],[0.5,0,0],[0.75,0,0],[1,0,0],[0,1,0],[0.25,1,0],[0.5,1,0],[0.75,1,0],[1,1,0],[0,0.25,0],[0,0.5,0],[0,0.75,0],[1,0.25,0],[1,0.5,0],[1,0.75,0]];outlineConnect=0;fontColor=#232F3E;gradientColor=#F34482;gradientDirection=north;fillColor=none;strokeColor=#CC0000;dashed=0;verticalLabelPosition=bottom;verticalAlign=top;align=center;html=1;fontSize=12;fontStyle=0;aspect=fixed;shape=mxgraph.aws4.resourceIcon;resIcon=mxgraph.aws4.cloudformation;rounded=0;shadow=0;glass=0;labelBackgroundColor=none;comic=0;" parent="1" vertex="1">
          <mxGeometry x="322" y="797.1800000000001" width="18" height="18" as="geometry" />
        </mxCell>
        <mxCell id="RZ0_6Ih5bEzpeEGCjAap-314" value="" style="shape=loopLimit;whiteSpace=wrap;html=1;strokeColor=#d6b656;fillColor=#fff2cc;rotation=-180;rounded=0;comic=0;" parent="1" vertex="1">
          <mxGeometry x="470" y="800" width="140" height="30" as="geometry" />
        </mxCell>
        <mxCell id="RZ0_6Ih5bEzpeEGCjAap-315" value="" style="sketch=0;outlineConnect=0;fontColor=#232F3E;gradientColor=none;fillColor=#4D27AA;strokeColor=none;dashed=0;verticalLabelPosition=bottom;verticalAlign=top;align=center;html=1;fontSize=12;fontStyle=0;aspect=fixed;pointerEvents=1;shape=mxgraph.aws4.route_53_resolver;rounded=0;shadow=0;glass=0;labelBackgroundColor=none;comic=0;" parent="1" vertex="1">
          <mxGeometry x="501.5" y="806" width="18" height="18" as="geometry" />
        </mxCell>
        <mxCell id="RZ0_6Ih5bEzpeEGCjAap-316" value="" style="sketch=0;outlineConnect=0;fontColor=#232F3E;gradientColor=none;fillColor=#4D27AA;strokeColor=none;dashed=0;verticalLabelPosition=bottom;verticalAlign=top;align=center;html=1;fontSize=12;fontStyle=0;aspect=fixed;pointerEvents=1;shape=mxgraph.aws4.vpc_traffic_mirroring;rounded=0;shadow=0;glass=0;labelBackgroundColor=none;comic=0;" parent="1" vertex="1">
          <mxGeometry x="530.5" y="806" width="18" height="18" as="geometry" />
        </mxCell>
        <mxCell id="RZ0_6Ih5bEzpeEGCjAap-317" value="" style="sketch=0;outlineConnect=0;fontColor=#232F3E;gradientColor=none;fillColor=#4D27AA;strokeColor=none;dashed=0;verticalLabelPosition=bottom;verticalAlign=top;align=center;html=1;fontSize=12;fontStyle=0;aspect=fixed;pointerEvents=1;shape=mxgraph.aws4.endpoints;rounded=0;shadow=0;glass=0;labelBackgroundColor=none;comic=0;" parent="1" vertex="1">
          <mxGeometry x="560.5" y="806" width="18" height="18" as="geometry" />
        </mxCell>
        <mxCell id="RZ0_6Ih5bEzpeEGCjAap-323" style="edgeStyle=orthogonalEdgeStyle;comic=0;orthogonalLoop=1;jettySize=auto;html=1;shadow=0;fontSize=10;fontColor=none;startArrow=block;startFill=1;endArrow=none;endFill=0;endSize=6;strokeColor=#232F3E;strokeWidth=1;elbow=vertical;sourcePerimeterSpacing=0;" parent="1" source="RZ0_6Ih5bEzpeEGCjAap-268" target="RZ0_6Ih5bEzpeEGCjAap-319" edge="1">
          <mxGeometry relative="1" as="geometry">
            <Array as="points">
              <mxPoint x="393" y="1347" />
              <mxPoint x="1212" y="1347" />
            </Array>
          </mxGeometry>
        </mxCell>
        <mxCell id="RZ0_6Ih5bEzpeEGCjAap-66" value="" style="shape=loopLimit;whiteSpace=wrap;html=1;strokeColor=#b85450;fillColor=#f8cecc;rotation=-180;rounded=0;comic=0;" parent="1" vertex="1">
          <mxGeometry x="220" y="760" width="140" height="30" as="geometry" />
        </mxCell>
        <mxCell id="RZ0_6Ih5bEzpeEGCjAap-67" value="Interos Prod app - customer facing" style="text;html=1;align=center;verticalAlign=middle;resizable=0;points=[];autosize=1;strokeColor=none;fillColor=none;fontSize=8;comic=0;" parent="1" vertex="1">
          <mxGeometry x="220" y="760" width="140" height="20" as="geometry" />
        </mxCell>
        <mxCell id="PAjbF3MUKBIyCC8ZmkMf-2" value="" style="sketch=0;points=[[0,0,0],[0.25,0,0],[0.5,0,0],[0.75,0,0],[1,0,0],[0,1,0],[0.25,1,0],[0.5,1,0],[0.75,1,0],[1,1,0],[0,0.25,0],[0,0.5,0],[0,0.75,0],[1,0.25,0],[1,0.5,0],[1,0.75,0]];outlineConnect=0;fontColor=#232F3E;gradientColor=#945DF2;gradientDirection=north;fillColor=none;strokeColor=#4D27AA;dashed=0;verticalLabelPosition=bottom;verticalAlign=top;align=center;html=1;fontSize=12;fontStyle=0;aspect=fixed;shape=mxgraph.aws4.resourceIcon;resIcon=mxgraph.aws4.route_53;rounded=0;shadow=0;glass=0;labelBackgroundColor=none;comic=0;" parent="1" vertex="1">
          <mxGeometry x="500.5" y="18" width="78" height="78" as="geometry" />
        </mxCell>
        <mxCell id="2bhmxZHPRwG87x4gsSGM-3" value="&lt;font style=&quot;font-size: 10px&quot;&gt;Private Hosted Zone&lt;/font&gt;" style="rounded=1;whiteSpace=wrap;html=1;labelBackgroundColor=none;fontSize=10;strokeColor=#d6b656;strokeWidth=1;fillColor=#fff2cc;comic=0;" parent="1" vertex="1">
          <mxGeometry x="489" y="830" width="102" height="15.75" as="geometry" />
        </mxCell>
        <mxCell id="2bhmxZHPRwG87x4gsSGM-5" style="edgeStyle=orthogonalEdgeStyle;rounded=1;orthogonalLoop=1;jettySize=auto;html=1;fontSize=10;endArrow=block;endFill=1;" parent="1" source="2bhmxZHPRwG87x4gsSGM-4" edge="1">
          <mxGeometry relative="1" as="geometry">
            <mxPoint x="710" y="1052" as="targetPoint" />
          </mxGeometry>
        </mxCell>
        <mxCell id="2bhmxZHPRwG87x4gsSGM-6" style="edgeStyle=orthogonalEdgeStyle;rounded=1;orthogonalLoop=1;jettySize=auto;html=1;fontSize=10;endArrow=block;endFill=1;" parent="1" source="2bhmxZHPRwG87x4gsSGM-4" edge="1">
          <mxGeometry relative="1" as="geometry">
            <mxPoint x="647.8333333333335" y="1120" as="targetPoint" />
          </mxGeometry>
        </mxCell>
        <mxCell id="2bhmxZHPRwG87x4gsSGM-4" value="" style="sketch=0;pointerEvents=1;shadow=0;dashed=0;html=1;strokeColor=none;fillColor=#505050;labelPosition=center;verticalLabelPosition=bottom;verticalAlign=top;outlineConnect=0;align=center;shape=mxgraph.office.users.administrator;fontSize=10;gradientColor=none;comic=0;" parent="1" vertex="1">
          <mxGeometry x="785" y="1100" width="47" height="39" as="geometry" />
        </mxCell>
        <mxCell id="RZ0_6Ih5bEzpeEGCjAap-189" value="&lt;font style=&quot;font-size: 7px&quot;&gt;Exception for Developers&lt;/font&gt;" style="dashed=0;outlineConnect=0;html=1;align=center;labelPosition=center;verticalLabelPosition=bottom;verticalAlign=top;shape=mxgraph.weblogos.github;rounded=0;labelBackgroundColor=none;fontSize=10;fontColor=none;strokeColor=default;strokeWidth=2;fillColor=none;gradientColor=none;comic=0;" parent="1" vertex="1">
          <mxGeometry x="174" y="806" width="30" height="30" as="geometry" />
        </mxCell>
        <mxCell id="2bhmxZHPRwG87x4gsSGM-8" value="Master Account" style="points=[[0,0],[0.25,0],[0.5,0],[0.75,0],[1,0],[1,0.25],[1,0.5],[1,0.75],[1,1],[0.75,1],[0.5,1],[0.25,1],[0,1],[0,0.75],[0,0.5],[0,0.25]];outlineConnect=0;gradientColor=none;html=1;whiteSpace=wrap;fontSize=12;fontStyle=0;container=1;pointerEvents=0;collapsible=0;recursiveResize=0;shape=mxgraph.aws4.group;grIcon=mxgraph.aws4.group_aws_cloud_alt;strokeColor=#232F3E;fillColor=none;verticalAlign=top;align=left;spacingLeft=30;fontColor=#232F3E;dashed=0;comic=0;" parent="1" vertex="1">
          <mxGeometry x="1180" y="640" width="140" height="120" as="geometry" />
        </mxCell>
        <mxCell id="2bhmxZHPRwG87x4gsSGM-18" style="edgeStyle=orthogonalEdgeStyle;rounded=1;orthogonalLoop=1;jettySize=auto;html=1;fontSize=7;startArrow=none;startFill=0;endArrow=block;endFill=1;strokeColor=#232F3E;" parent="1" edge="1">
          <mxGeometry relative="1" as="geometry">
            <mxPoint x="1250" y="794" as="targetPoint" />
            <mxPoint x="1250" y="885" as="sourcePoint" />
          </mxGeometry>
        </mxCell>
        <mxCell id="2bhmxZHPRwG87x4gsSGM-13" value="Root level Cloud Admins" style="sketch=0;pointerEvents=1;shadow=0;dashed=0;html=1;strokeColor=none;fillColor=#232F3E;labelPosition=center;verticalLabelPosition=bottom;verticalAlign=top;outlineConnect=0;align=center;shape=mxgraph.office.users.administrator;fontSize=10;gradientColor=none;comic=0;" parent="1" vertex="1">
          <mxGeometry x="1231.5" y="895" width="47" height="39" as="geometry" />
        </mxCell>
        <mxCell id="2bhmxZHPRwG87x4gsSGM-15" value="" style="shape=loopLimit;whiteSpace=wrap;html=1;strokeColor=#666666;fillColor=#f5f5f5;rotation=-180;rounded=0;comic=0;fontColor=#333333;" parent="1" vertex="1">
          <mxGeometry x="1180" y="760.58" width="140" height="30" as="geometry" />
        </mxCell>
        <mxCell id="2bhmxZHPRwG87x4gsSGM-17" value="" style="sketch=0;points=[[0,0,0],[0.25,0,0],[0.5,0,0],[0.75,0,0],[1,0,0],[0,1,0],[0.25,1,0],[0.5,1,0],[0.75,1,0],[1,1,0],[0,0.25,0],[0,0.5,0],[0,0.75,0],[1,0.25,0],[1,0.5,0],[1,0.75,0]];outlineConnect=0;fontColor=#232F3E;gradientColor=none;gradientDirection=north;fillColor=none;strokeColor=#009900;dashed=0;verticalLabelPosition=bottom;verticalAlign=top;align=center;html=1;fontSize=12;fontStyle=0;aspect=fixed;shape=mxgraph.aws4.resourceIcon;resIcon=mxgraph.aws4.cost_management;shadow=0;comic=0;" parent="1" vertex="1">
          <mxGeometry x="1208" y="766.58" width="18" height="18" as="geometry" />
        </mxCell>
        <mxCell id="2bhmxZHPRwG87x4gsSGM-10" value="" style="sketch=0;outlineConnect=0;fontColor=#232F3E;gradientColor=none;fillColor=#CC0000;strokeColor=none;dashed=0;verticalLabelPosition=bottom;verticalAlign=top;align=center;html=1;fontSize=12;fontStyle=0;aspect=fixed;pointerEvents=1;shape=mxgraph.aws4.permissions;rounded=0;shadow=0;glass=0;labelBackgroundColor=none;comic=0;" parent="1" vertex="1">
          <mxGeometry x="1243" y="766.58" width="14.31" height="18" as="geometry" />
        </mxCell>
        <mxCell id="2bhmxZHPRwG87x4gsSGM-11" value="" style="sketch=0;points=[[0,0,0],[0.25,0,0],[0.5,0,0],[0.75,0,0],[1,0,0],[0,1,0],[0.25,1,0],[0.5,1,0],[0.75,1,0],[1,1,0],[0,0.25,0],[0,0.5,0],[0,0.75,0],[1,0.25,0],[1,0.5,0],[1,0.75,0]];outlineConnect=0;fontColor=#232F3E;gradientColor=#F54749;gradientDirection=north;fillColor=none;strokeColor=#CC0000;dashed=0;verticalLabelPosition=bottom;verticalAlign=top;align=center;html=1;fontSize=12;fontStyle=0;aspect=fixed;shape=mxgraph.aws4.resourceIcon;resIcon=mxgraph.aws4.organizations;rounded=0;shadow=0;glass=0;labelBackgroundColor=none;comic=0;" parent="1" vertex="1">
          <mxGeometry x="1274" y="766.58" width="18" height="18" as="geometry" />
        </mxCell>
        <mxCell id="2bhmxZHPRwG87x4gsSGM-19" value="" style="sketch=0;outlineConnect=0;dashed=0;verticalLabelPosition=bottom;verticalAlign=top;align=center;html=1;fontSize=12;fontStyle=0;aspect=fixed;pointerEvents=1;shape=mxgraph.aws4.mfa_token;shadow=0;comic=0;noLabel=0;backgroundOutline=0;container=0;fillOpacity=100;fillColor=#CC0000;" parent="1" vertex="1">
          <mxGeometry x="1311.69" y="932" width="30" height="30" as="geometry" />
        </mxCell>
        <mxCell id="2bhmxZHPRwG87x4gsSGM-21" value="" style="shape=curlyBracket;whiteSpace=wrap;html=1;rounded=1;flipH=1;shadow=0;comic=0;sketch=0;fontSize=7;strokeColor=#232F3E;strokeWidth=2;fillColor=#CC0000;gradientColor=none;" parent="1" vertex="1">
          <mxGeometry x="1143" y="602" width="24" height="220" as="geometry" />
        </mxCell>
        <mxCell id="2bhmxZHPRwG87x4gsSGM-22" value="Provisions Sub-accounts" style="rounded=1;whiteSpace=wrap;html=1;labelBackgroundColor=none;fontSize=10;strokeWidth=2;comic=0;direction=north;horizontal=0;fillColor=#f5f5f5;fontColor=#333333;strokeColor=#232F3E;" parent="1" vertex="1">
          <mxGeometry x="1123" y="650.5" width="20" height="123" as="geometry" />
        </mxCell>
        <mxCell id="yWTK7wSygGAMq-4Vs5H4-9" value="" style="shape=stencil(pZzbch23EUW/hq9Tgzvw7Dj/4SrLESuK5JKV29+nEQaHc3aD65CVN5nG4gxmGn3Z3cOn9NMfn3/5/dNTPP/48f3bXz/98/nXH5+f0p+eYnz++vnT9+cf9q+n9PNT+um3b98//eX7t79//fXlv3//Za6c//rbt3/M3/CvFy7XI5dJxfPfLz85j/P87w/+/LL+y/PX/2d9OXqS9S3j+hDu1oejJVifj57v1scj0P3kIw1Zj/eTjn6/Ph054vrU79bnI1RYH48xZH3ruL7Wu/Vlbeit9TnJ+k7PJx7x/vnXIzRcf2ZZX+h5hqN3Wd/p99vrv99vWzf41vp6yvpScH0esr6TvYUjtbv1/Qi83xRlfab3G45YZX3n+5f3NY5I9hmOUGR9IfsJxzlk/SB7duvDeSQyuB1Q2SIUCOyCdkBiG/LAxx6SAeNjtxQfmbUHCr9nD/SPAekIfBI8kPkoeKCxbSuQ10/eD2Teg5wGAxobnxy3UB6dfznPBhR+0+IwDOgPPMy9Rwr1kS1JSDCgsmmIjzRg8Hso90EhtCOx1/AAhn0P9OP82BX6I9PwAEZOF3nC4NBpQFHggWlILDSgczAZ92/asi+MDnElKxcAPZ9LLwxA04iaD1qCh6aRjtgUaAw0ASI7MksJkwKFc8hRFMAjWlZEuwGJj6jLsg3ANMbOlwM6PaXugMzWOo7cFMhwS8XCeFaggfEVb60FA3vxplGOCOeh5KMGBTJYa6nrBi5AgxdX7D1kBTpdoR9VNm3XpD2MlQ9egAjmXcMKUBeASoYaV4Z6Acgv1bQyiwtQ4cXVolHUgEZAdS+uohOot2hwASj9qTfXewXAvJvlGm7T5IxbdAfowRXssfpbgj20skrf61OCN92qO0D8WFtz1XPFON36DoA33YY7QHVVvFugn0dw1lrhlgwYzjQQCEsheC9g4cPfEu0hbUyDnlLPS4R454vrZXOmyZZ61ZzPgAFOoDcHNPTeva9q4QKQdNPHcu5XAMzbAI3T7Yhw4sbpnMDNn78F+Ctk2MOwcsA9Jco1DKhRAUrWDVDzbljSjLi5JSrxDagC9HUG98CtkLwAJKIZoAeooyYwrC50Vxh0S9mduIGpgwEjKkCZ8Shalk3lhN50UXefLFkn4zPvfSpQ4YgaUETLtCDGwOgKUIk/mqqfBpC8Z0CTTUfUZoYF9qIACbgGSD2d0npubwFSxxlA7t4AkTRTxlp0DNW4DaA01ACpUAwYdEtjOZUbUNaveAsQWdkASh0MaLLpyr51OCHdgiKdODsu9/EhtaXWbIFwnpqtG1HgEnsC/Ya/qb5M/r3b7ijwbx6smQs5y6G5sQGZzU8CrwGkbIybpLyAfKLoZSdCnpIBmdxAV/MzgCpqAyRzfVXm3nI0UqNMgYfeQ1O/MdUUOhFV1Zkcsc4yQNRKA/DMuZCSEyZAFrRKUgCTBxd4c17+9p25QGZVYLhkenbwOCeTBl8uqGEZcAYFCuXGN5nuAlCktsxV3HFmxbXfelAXgBy+Zd+iYWWusyy/H+6WyJEZIH273FBG6NlZa8NcwIqasyuAVVDUitoASh58JZc79gesuFRb6tical2dsQHUdrECuUUFKD2xEtwDg65QnKsc6Ixb1nzGgMS6g6SJBlBPt8UNUOk9BJUG82Ap5FSVzIABplGHAuVE06hd66zCUnltqukaQJlrrWpLBlCtWIvmlROgPWSdJZgaLO0hq2BkAMmbNWlQNIDa5TVqBDKAzLsGrYLKTWh7CxA3UwKeh3qufsMFIM9XvC1xy6L0pZRcAJTK+yr0LkAB8y5N+wMGkGBUqrPWgCeuFM1bS1w19luAFDUG0AEqWVM4A+g8lKQKU4lYgtv/bu6WOqn3rgNh1yTjm5ZzKkA1ezlVd5i7osbOWC3yC4DjEcOdh8RNwr6qhRuQuV/WtANhAAUU35wygDKyXDdXwKmouiznAuCYStX+wLRf2kNZ+dcFoIo6F1W+C/ea/OSbAZW6im70rRSeXcqqCsz+FrUhsxZ+paJ2YuWFFH4GZLpCcuNsrK37+ToDsPeatKVtzhOHSKILuywCb0byWHbYzOQ9GDpzbXmLGIEnBdSRseLqZxEMeDCbo3tgmcKP2hhQaNOn28OD0bNzhcAFWKjHTZ/aFDGAehz5luHdgMDmfeqmK+uhBoiQbRkUuZkp3TQFSERILqBYUhfhsaah2b0B1Mef8tO915h5JtiSAfpYMx4gAyTsztSXAQmKllyTbJe6yv0GUAQyQPJWy/dx012VEwOotJxAVoBGCwwQMcdqlvgASApQHWeAZDNWRlHqMIGgAGUCW4CcwAYYmKxvAZJaPGDVKfUttwCpoVuA8tYNELAjtwVovmgLjI8BEV3lFiBXuQESxuktQLr3BsiPDpAH0FV6oHz0xRUs8bcAydgbgMeFvBNoPIvg3Uzjxr93ZI277N5VTl2OTUOcceuoe6euUXROuvCmJT40bmlPoCrw4MRJyGoDO3ITaAqgMx6anDRuaaeho2edW9rpdscXgFraaaiY07mlPZOTrgD6JZf+GEAFhwFifD0upePNjOxUAK3VpXA94ezmFiB9aQuQ3roBMjvjHUDS4wYoOCi5eawFy4HNiyucCQx1ZL2urso7M2MDEj9WPQ/cNPdHtPOovvdLvWFLxLt7A/CIducEGjuypi3CfpvheAsQfal3zludvtQHTmwYoFfgHvvr9MQFwGS9rOp5AeNEUS1llYDHgyQxaadpDqORLSUdjnht3u6BqHLRnC2jA+Q+LHntJ++BU3vsgz9SSqf7fC2h6hBdfDCAYtz8Pu/+PIyMMc4AqXZnm56ApsmJATS7Occi7w/QMFcJbibeKs8LQL2sOdReFKDUIRad0n0dd9sDWUcx57gEbTqpGjrn4+ixJm37G0Dx4fWrkAtAnm9+qNIVoMzYABluG1zix1P7caNh+hOGO3END1Do+hmUASQXhab50mjoyELV7N4AKo/nB3QOIOML2Zk36xohOeNraK0hOmfccEBvflAqttSxvRZOnfIygPSl4bx9xyy063yUracaq6k6Ox5MRjhH3PHwVM18Bg9SeKPorKlrj3bw3EXWQmPwhHFyv39wuupslMc63Ez1GNiaiZqQzPXkWrSjNodQaZZSJ+HHwA/dwzqyl/X0zVDQeaU5KAn2c7oTyd9KuknQy3Do/wD7x+uf0fjt+cuXl7/Ccf3/+mc37Ecvf7Ij/fwf);fillColor=none;shadow=0;sketch=0;strokeColor=#FF3333;strokeWidth=3;" parent="1" vertex="1">
          <mxGeometry x="354" y="-124" width="447.75" height="811" as="geometry" />
        </mxCell>
        <mxCell id="yWTK7wSygGAMq-4Vs5H4-14" style="edgeStyle=orthogonalEdgeStyle;rounded=0;orthogonalLoop=1;jettySize=auto;html=1;endArrow=none;endFill=0;" parent="1" edge="1">
          <mxGeometry relative="1" as="geometry">
            <mxPoint x="1088.5" y="-63.5" as="sourcePoint" />
            <mxPoint x="1242.5" y="-63.25" as="targetPoint" />
            <Array as="points">
              <mxPoint x="1242.5" y="-63.5" />
              <mxPoint x="1242.5" y="-63.5" />
            </Array>
          </mxGeometry>
        </mxCell>
        <mxCell id="yWTK7wSygGAMq-4Vs5H4-10" value="" style="sketch=0;points=[[0,0,0],[0.25,0,0],[0.5,0,0],[0.75,0,0],[1,0,0],[0,1,0],[0.25,1,0],[0.5,1,0],[0.75,1,0],[1,1,0],[0,0.25,0],[0,0.5,0],[0,0.75,0],[1,0.25,0],[1,0.5,0],[1,0.75,0]];outlineConnect=0;fontColor=#232F3E;strokeColor=#4D27AA;dashed=0;verticalLabelPosition=bottom;verticalAlign=top;align=center;html=1;fontSize=12;fontStyle=0;aspect=fixed;shape=mxgraph.aws4.resourceIcon;resIcon=mxgraph.aws4.transit_gateway;fillColor=none;comic=0;" parent="1" vertex="1">
          <mxGeometry x="991.5" y="-109.5" width="88" height="88" as="geometry" />
        </mxCell>
        <mxCell id="yWTK7wSygGAMq-4Vs5H4-15" style="rounded=0;orthogonalLoop=1;jettySize=auto;html=1;endArrow=block;endFill=1;" parent="1" edge="1">
          <mxGeometry relative="1" as="geometry">
            <mxPoint x="1292.5" y="-77.25" as="sourcePoint" />
            <mxPoint x="1349.5" y="-107.25" as="targetPoint" />
          </mxGeometry>
        </mxCell>
        <mxCell id="yWTK7wSygGAMq-4Vs5H4-16" style="rounded=0;orthogonalLoop=1;jettySize=auto;html=1;endArrow=block;endFill=1;" parent="1" edge="1">
          <mxGeometry relative="1" as="geometry">
            <mxPoint x="1290.5" y="-52.25" as="sourcePoint" />
            <mxPoint x="1349.5" y="-23.25" as="targetPoint" />
          </mxGeometry>
        </mxCell>
        <mxCell id="yWTK7wSygGAMq-4Vs5H4-11" value="" style="sketch=0;outlineConnect=0;fontColor=#232F3E;gradientColor=none;fillColor=#4D27AA;strokeColor=none;dashed=0;verticalLabelPosition=bottom;verticalAlign=top;align=center;html=1;fontSize=12;fontStyle=0;aspect=fixed;pointerEvents=1;shape=mxgraph.aws4.vpn_connection;shadow=0;" parent="1" vertex="1">
          <mxGeometry x="1247.5" y="-85.54000000000002" width="40" height="44.57" as="geometry" />
        </mxCell>
        <mxCell id="yWTK7wSygGAMq-4Vs5H4-12" value="" style="sketch=0;outlineConnect=0;fontColor=#232F3E;gradientColor=none;fillColor=#D45B07;strokeColor=none;dashed=0;verticalLabelPosition=bottom;verticalAlign=top;align=center;html=1;fontSize=12;fontStyle=0;aspect=fixed;pointerEvents=1;shape=mxgraph.aws4.instance2;shadow=0;" parent="1" vertex="1">
          <mxGeometry x="1353.5" y="-140" width="40" height="40" as="geometry" />
        </mxCell>
        <mxCell id="yWTK7wSygGAMq-4Vs5H4-13" value="" style="sketch=0;outlineConnect=0;fontColor=#232F3E;gradientColor=none;fillColor=#D45B07;strokeColor=none;dashed=0;verticalLabelPosition=bottom;verticalAlign=top;align=center;html=1;fontSize=12;fontStyle=0;aspect=fixed;pointerEvents=1;shape=mxgraph.aws4.instance2;shadow=0;" parent="1" vertex="1">
          <mxGeometry x="1353.5" y="-31" width="40" height="40" as="geometry" />
        </mxCell>
        <mxCell id="yWTK7wSygGAMq-4Vs5H4-18" value="IPSec VPN + BGP" style="rounded=1;whiteSpace=wrap;html=1;labelBackgroundColor=none;fontSize=10;strokeColor=#b85450;strokeWidth=2;fillColor=#f8cecc;comic=0;" parent="1" vertex="1">
          <mxGeometry x="1117" y="-53.5" width="90" height="18" as="geometry" />
        </mxCell>
        <mxCell id="yWTK7wSygGAMq-4Vs5H4-19" value="3rd Party Appliance" style="rounded=1;whiteSpace=wrap;html=1;labelBackgroundColor=none;fontSize=10;strokeColor=#b85450;strokeWidth=2;fillColor=#f8cecc;comic=0;direction=south;horizontal=0;" parent="1" vertex="1">
          <mxGeometry x="1305.5" y="-111.25" width="18" height="96" as="geometry" />
        </mxCell>
        <mxCell id="yWTK7wSygGAMq-4Vs5H4-23" style="edgeStyle=none;rounded=0;orthogonalLoop=1;jettySize=auto;html=1;exitX=0.138;exitY=0.997;exitDx=0;exitDy=0;endArrow=diamond;endFill=1;startArrow=none;startFill=0;exitPerimeter=0;strokeWidth=2;" parent="1" source="yWTK7wSygGAMq-4Vs5H4-22" edge="1">
          <mxGeometry relative="1" as="geometry">
            <mxPoint x="1099" y="85" as="targetPoint" />
            <Array as="points" />
          </mxGeometry>
        </mxCell>
        <mxCell id="yWTK7wSygGAMq-4Vs5H4-22" value="" style="rounded=1;whiteSpace=wrap;html=1;shadow=0;sketch=0;strokeColor=#232F3E;strokeWidth=3;fillColor=none;glass=0;" parent="1" vertex="1">
          <mxGeometry x="964" y="-172.76" width="982" height="219" as="geometry" />
        </mxCell>
        <mxCell id="yWTK7wSygGAMq-4Vs5H4-31" style="edgeStyle=none;rounded=0;orthogonalLoop=1;jettySize=auto;html=1;dashed=1;startArrow=none;startFill=0;endArrow=none;endFill=0;strokeWidth=1;jumpStyle=line;" parent="1" source="yWTK7wSygGAMq-4Vs5H4-24" target="RZ0_6Ih5bEzpeEGCjAap-112" edge="1">
          <mxGeometry relative="1" as="geometry" />
        </mxCell>
        <mxCell id="yWTK7wSygGAMq-4Vs5H4-24" value="" style="verticalLabelPosition=bottom;sketch=0;aspect=fixed;html=1;verticalAlign=top;strokeColor=none;align=center;outlineConnect=0;shape=mxgraph.citrix.globe;rounded=1;shadow=0;glass=0;fillColor=none;" parent="1" vertex="1">
          <mxGeometry x="-279" y="290.9" width="40" height="38.22" as="geometry" />
        </mxCell>
        <mxCell id="RZ0_6Ih5bEzpeEGCjAap-13" value="" style="verticalLabelPosition=bottom;sketch=0;aspect=fixed;html=1;verticalAlign=top;strokeColor=none;align=center;outlineConnect=0;shape=mxgraph.citrix.globe;rounded=1;shadow=0;glass=0;fillColor=none;" parent="1" vertex="1">
          <mxGeometry x="507" y="-160" width="78" height="78" as="geometry" />
        </mxCell>
        <mxCell id="yWTK7wSygGAMq-4Vs5H4-69" style="edgeStyle=none;rounded=1;jumpStyle=line;orthogonalLoop=1;jettySize=auto;html=1;entryX=1;entryY=0.5;entryDx=0;entryDy=0;startArrow=none;startFill=0;endArrow=none;endFill=0;strokeColor=#232F3E;strokeWidth=1;" parent="1" source="yWTK7wSygGAMq-4Vs5H4-25" target="yWTK7wSygGAMq-4Vs5H4-41" edge="1">
          <mxGeometry relative="1" as="geometry" />
        </mxCell>
        <mxCell id="yWTK7wSygGAMq-4Vs5H4-100" style="edgeStyle=none;rounded=1;jumpStyle=line;orthogonalLoop=1;jettySize=auto;html=1;startArrow=none;startFill=0;endArrow=diamond;endFill=1;strokeColor=#232F3E;strokeWidth=2;" parent="1" source="yWTK7wSygGAMq-4Vs5H4-25" edge="1">
          <mxGeometry relative="1" as="geometry">
            <mxPoint x="-470" y="-113" as="targetPoint" />
          </mxGeometry>
        </mxCell>
        <mxCell id="yWTK7wSygGAMq-4Vs5H4-25" value="On-Prem" style="points=[[0,0],[0.25,0],[0.5,0],[0.75,0],[1,0],[1,0.25],[1,0.5],[1,0.75],[1,1],[0.75,1],[0.5,1],[0.25,1],[0,1],[0,0.75],[0,0.5],[0,0.25]];outlineConnect=0;gradientColor=none;html=1;whiteSpace=wrap;fontSize=12;fontStyle=0;container=1;pointerEvents=0;collapsible=0;recursiveResize=0;shape=mxgraph.aws4.group;grIcon=mxgraph.aws4.group_corporate_data_center;strokeColor=#5A6C86;fillColor=none;verticalAlign=top;align=left;spacingLeft=30;fontColor=#5A6C86;dashed=0;rounded=0;comic=0;" parent="1" vertex="1">
          <mxGeometry x="-556" y="-29" width="170" height="156" as="geometry" />
        </mxCell>
        <mxCell id="yWTK7wSygGAMq-4Vs5H4-26" value="" style="sketch=0;points=[[0.5,0,0],[1,0.5,0],[0.5,1,0],[0,0.5,0],[0.145,0.145,0],[0.8555,0.145,0],[0.855,0.8555,0],[0.145,0.855,0]];verticalLabelPosition=bottom;html=1;verticalAlign=top;aspect=fixed;align=center;pointerEvents=1;shape=mxgraph.cisco19.rect;prIcon=router_with_firewall;fillColor=#FAFAFA;strokeColor=#005073;rounded=0;fontSize=8;comic=0;" parent="yWTK7wSygGAMq-4Vs5H4-25" vertex="1">
          <mxGeometry x="60" y="53" width="50" height="50" as="geometry" />
        </mxCell>
        <mxCell id="yWTK7wSygGAMq-4Vs5H4-27" value="" style="sketch=0;pointerEvents=1;shadow=0;dashed=0;html=1;strokeColor=none;fillColor=#505050;labelPosition=center;verticalLabelPosition=bottom;verticalAlign=top;outlineConnect=0;align=center;shape=mxgraph.office.servers.active_directory_federation_services_server;rounded=0;labelBackgroundColor=none;fontSize=10;fontColor=none;comic=0;" parent="yWTK7wSygGAMq-4Vs5H4-25" vertex="1">
          <mxGeometry x="130" y="8" width="35" height="38" as="geometry" />
        </mxCell>
        <mxCell id="yWTK7wSygGAMq-4Vs5H4-28" value="" style="sketch=0;outlineConnect=0;fontColor=#232F3E;gradientColor=none;fillColor=#232F3D;strokeColor=none;dashed=0;verticalLabelPosition=bottom;verticalAlign=top;align=center;html=1;fontSize=12;fontStyle=0;aspect=fixed;pointerEvents=1;shape=mxgraph.aws4.saml_token;rounded=0;labelBackgroundColor=none;comic=0;" parent="yWTK7wSygGAMq-4Vs5H4-25" vertex="1">
          <mxGeometry x="90" y="8" width="38" height="38" as="geometry" />
        </mxCell>
        <mxCell id="yWTK7wSygGAMq-4Vs5H4-29" value="" style="sketch=0;pointerEvents=1;shadow=0;dashed=0;html=1;strokeColor=none;fillColor=#505050;labelPosition=center;verticalLabelPosition=bottom;verticalAlign=top;outlineConnect=0;align=center;shape=mxgraph.office.servers.file_server;rounded=0;glass=0;labelBackgroundColor=none;comic=0;fontSize=10;fontColor=none;" parent="yWTK7wSygGAMq-4Vs5H4-25" vertex="1">
          <mxGeometry x="130" y="111" width="35" height="38" as="geometry" />
        </mxCell>
        <mxCell id="yWTK7wSygGAMq-4Vs5H4-33" style="edgeStyle=none;rounded=0;orthogonalLoop=1;jettySize=auto;html=1;dashed=1;startArrow=none;startFill=0;endArrow=none;endFill=0;strokeWidth=1;" parent="1" source="yWTK7wSygGAMq-4Vs5H4-32" target="yWTK7wSygGAMq-4Vs5H4-25" edge="1">
          <mxGeometry relative="1" as="geometry" />
        </mxCell>
        <mxCell id="yWTK7wSygGAMq-4Vs5H4-34" style="edgeStyle=none;rounded=0;orthogonalLoop=1;jettySize=auto;html=1;dashed=1;startArrow=none;startFill=0;endArrow=none;endFill=0;strokeWidth=1;" parent="1" source="yWTK7wSygGAMq-4Vs5H4-32" target="yWTK7wSygGAMq-4Vs5H4-38" edge="1">
          <mxGeometry relative="1" as="geometry" />
        </mxCell>
        <mxCell id="yWTK7wSygGAMq-4Vs5H4-32" value="" style="verticalLabelPosition=bottom;sketch=0;aspect=fixed;html=1;verticalAlign=top;strokeColor=none;align=center;outlineConnect=0;shape=mxgraph.citrix.globe;rounded=1;shadow=0;glass=0;fillColor=none;" parent="1" vertex="1">
          <mxGeometry x="-279" y="29.889999999999986" width="40" height="38.22" as="geometry" />
        </mxCell>
        <mxCell id="yWTK7wSygGAMq-4Vs5H4-39" style="rounded=1;jumpStyle=line;orthogonalLoop=1;jettySize=auto;html=1;dashed=1;startArrow=none;startFill=0;endArrow=block;endFill=1;strokeColor=#FF3333;strokeWidth=1;exitX=0.5;exitY=0;exitDx=0;exitDy=0;" parent="1" source="RZ0_6Ih5bEzpeEGCjAap-222" target="yWTK7wSygGAMq-4Vs5H4-38" edge="1">
          <mxGeometry relative="1" as="geometry" />
        </mxCell>
        <mxCell id="yWTK7wSygGAMq-4Vs5H4-38" value="" style="sketch=0;outlineConnect=0;fontColor=#232F3E;gradientColor=none;fillColor=#4D27AA;strokeColor=none;dashed=0;verticalLabelPosition=bottom;verticalAlign=top;align=center;html=1;fontSize=12;fontStyle=0;aspect=fixed;pointerEvents=1;shape=mxgraph.aws4.vpn_connection;rounded=0;comic=0;" parent="1" vertex="1">
          <mxGeometry x="-100" y="17.29000000000002" width="56.92" height="63.43" as="geometry" />
        </mxCell>
        <mxCell id="yWTK7wSygGAMq-4Vs5H4-68" value="" style="group;glass=0;rounded=0;sketch=0;shadow=0;" parent="1" vertex="1" connectable="0">
          <mxGeometry x="-1080" y="-238" width="323" height="327" as="geometry" />
        </mxCell>
        <mxCell id="yWTK7wSygGAMq-4Vs5H4-41" value="ISP Datacenter" style="fillColor=#f5f5f5;strokeColor=#666666;dashed=1;verticalAlign=top;fontStyle=0;fontColor=#333333;rounded=1;shadow=0;glass=0;sketch=0;" parent="yWTK7wSygGAMq-4Vs5H4-68" vertex="1">
          <mxGeometry width="323" height="327" as="geometry" />
        </mxCell>
        <mxCell id="yWTK7wSygGAMq-4Vs5H4-67" value="" style="group" parent="yWTK7wSygGAMq-4Vs5H4-68" vertex="1" connectable="0">
          <mxGeometry x="32" y="26.5" width="259" height="274" as="geometry" />
        </mxCell>
        <mxCell id="yWTK7wSygGAMq-4Vs5H4-40" value="" style="points=[[0.5,0,0],[1,0.5,0],[0.5,1,0],[0,0.5,0],[0.25,0,0],[0.75,0,0],[0.25,1,0],[0.75,1,0],[0.125,0.25,0],[0.875,0.25,0],[0.875,0.75,0],[0.125,0.75,0]];verticalLabelPosition=bottom;sketch=0;html=1;verticalAlign=top;aspect=fixed;align=center;pointerEvents=1;shape=mxgraph.cisco19.rect;prIcon=asr_1000;fillColor=#FAFAFA;strokeColor=#005073;rounded=1;shadow=0;glass=0;" parent="yWTK7wSygGAMq-4Vs5H4-67" vertex="1">
          <mxGeometry x="199" y="54.5" width="56.99999999999999" height="50" as="geometry" />
        </mxCell>
        <mxCell id="yWTK7wSygGAMq-4Vs5H4-61" style="edgeStyle=none;rounded=1;jumpStyle=line;orthogonalLoop=1;jettySize=auto;html=1;dashed=1;startArrow=none;startFill=0;endArrow=none;endFill=0;strokeColor=#232F3E;strokeWidth=1;" parent="yWTK7wSygGAMq-4Vs5H4-67" source="yWTK7wSygGAMq-4Vs5H4-42" target="yWTK7wSygGAMq-4Vs5H4-40" edge="1">
          <mxGeometry relative="1" as="geometry" />
        </mxCell>
        <mxCell id="yWTK7wSygGAMq-4Vs5H4-42" value="" style="points=[[0.5,0,0],[1,0.5,0],[0.5,1,0],[0,0.5,0],[0.25,0,0],[0.75,0,0],[0.25,1,0],[0.75,1,0],[0.125,0.25,0],[0.875,0.25,0],[0.875,0.75,0],[0.125,0.75,0]];verticalLabelPosition=bottom;sketch=0;html=1;verticalAlign=top;aspect=fixed;align=center;pointerEvents=1;shape=mxgraph.cisco19.rect;prIcon=asr_1000;fillColor=#FAFAFA;strokeColor=#005073;rounded=1;shadow=0;glass=0;" parent="yWTK7wSygGAMq-4Vs5H4-67" vertex="1">
          <mxGeometry x="4" y="54.5" width="56.99999999999999" height="50" as="geometry" />
        </mxCell>
        <mxCell id="yWTK7wSygGAMq-4Vs5H4-43" value="" style="points=[[0.5,0,0],[1,0.5,0],[0.5,1,0],[0,0.5,0],[0.25,0,0],[0.75,0,0],[0.25,1,0],[0.75,1,0],[0.125,0.25,0],[0.875,0.25,0],[0.875,0.75,0],[0.125,0.75,0]];verticalLabelPosition=bottom;sketch=0;html=1;verticalAlign=top;aspect=fixed;align=center;pointerEvents=1;shape=mxgraph.cisco19.rect;prIcon=asr_1000;fillColor=#FAFAFA;strokeColor=#005073;rounded=1;shadow=0;glass=0;" parent="yWTK7wSygGAMq-4Vs5H4-67" vertex="1">
          <mxGeometry x="202" y="184" width="56.99999999999999" height="50" as="geometry" />
        </mxCell>
        <mxCell id="yWTK7wSygGAMq-4Vs5H4-57" style="edgeStyle=none;rounded=1;jumpStyle=line;orthogonalLoop=1;jettySize=auto;html=1;entryX=0.5;entryY=0;entryDx=0;entryDy=0;entryPerimeter=0;dashed=1;startArrow=none;startFill=0;endArrow=none;endFill=0;strokeColor=#232F3E;strokeWidth=1;" parent="yWTK7wSygGAMq-4Vs5H4-67" source="yWTK7wSygGAMq-4Vs5H4-40" target="yWTK7wSygGAMq-4Vs5H4-43" edge="1">
          <mxGeometry relative="1" as="geometry" />
        </mxCell>
        <mxCell id="yWTK7wSygGAMq-4Vs5H4-60" style="edgeStyle=none;rounded=1;jumpStyle=line;orthogonalLoop=1;jettySize=auto;html=1;entryX=0.5;entryY=1;entryDx=0;entryDy=0;entryPerimeter=0;dashed=1;startArrow=none;startFill=0;endArrow=none;endFill=0;strokeColor=#232F3E;strokeWidth=1;" parent="yWTK7wSygGAMq-4Vs5H4-67" source="yWTK7wSygGAMq-4Vs5H4-44" target="yWTK7wSygGAMq-4Vs5H4-42" edge="1">
          <mxGeometry relative="1" as="geometry" />
        </mxCell>
        <mxCell id="yWTK7wSygGAMq-4Vs5H4-66" style="edgeStyle=none;rounded=1;jumpStyle=line;orthogonalLoop=1;jettySize=auto;html=1;entryX=0;entryY=0.5;entryDx=0;entryDy=0;entryPerimeter=0;dashed=1;startArrow=none;startFill=0;endArrow=none;endFill=0;strokeColor=#232F3E;strokeWidth=1;" parent="yWTK7wSygGAMq-4Vs5H4-67" source="yWTK7wSygGAMq-4Vs5H4-44" target="yWTK7wSygGAMq-4Vs5H4-43" edge="1">
          <mxGeometry relative="1" as="geometry" />
        </mxCell>
        <mxCell id="yWTK7wSygGAMq-4Vs5H4-44" value="" style="points=[[0.5,0,0],[1,0.5,0],[0.5,1,0],[0,0.5,0],[0.25,0,0],[0.75,0,0],[0.25,1,0],[0.75,1,0],[0.125,0.25,0],[0.875,0.25,0],[0.875,0.75,0],[0.125,0.75,0]];verticalLabelPosition=bottom;sketch=0;html=1;verticalAlign=top;aspect=fixed;align=center;pointerEvents=1;shape=mxgraph.cisco19.rect;prIcon=asr_1000;fillColor=#FAFAFA;strokeColor=#005073;rounded=1;shadow=0;glass=0;" parent="yWTK7wSygGAMq-4Vs5H4-67" vertex="1">
          <mxGeometry y="174" width="56.99999999999999" height="50" as="geometry" />
        </mxCell>
        <mxCell id="yWTK7wSygGAMq-4Vs5H4-45" value="" style="points=[[0.5,0,0],[1,0.5,0],[0.5,1,0],[0,0.5,0],[0.25,0,0],[0.75,0,0],[0.25,1,0],[0.75,1,0],[0.125,0.25,0],[0.875,0.25,0],[0.875,0.75,0],[0.125,0.75,0]];verticalLabelPosition=bottom;sketch=0;html=1;verticalAlign=top;aspect=fixed;align=center;pointerEvents=1;shape=mxgraph.cisco19.rect;prIcon=asr_1000;fillColor=#FAFAFA;strokeColor=#005073;rounded=1;shadow=0;glass=0;" parent="yWTK7wSygGAMq-4Vs5H4-67" vertex="1">
          <mxGeometry x="101" y="112" width="56.99999999999999" height="50" as="geometry" />
        </mxCell>
        <mxCell id="yWTK7wSygGAMq-4Vs5H4-51" style="edgeStyle=none;rounded=1;jumpStyle=line;orthogonalLoop=1;jettySize=auto;html=1;entryX=0.875;entryY=0.25;entryDx=0;entryDy=0;entryPerimeter=0;dashed=1;startArrow=none;startFill=0;endArrow=none;endFill=0;strokeColor=#232F3E;strokeWidth=1;exitX=0.125;exitY=0.75;exitDx=0;exitDy=0;exitPerimeter=0;" parent="yWTK7wSygGAMq-4Vs5H4-67" source="yWTK7wSygGAMq-4Vs5H4-40" target="yWTK7wSygGAMq-4Vs5H4-45" edge="1">
          <mxGeometry relative="1" as="geometry" />
        </mxCell>
        <mxCell id="yWTK7wSygGAMq-4Vs5H4-48" style="edgeStyle=none;rounded=1;jumpStyle=line;orthogonalLoop=1;jettySize=auto;html=1;entryX=0.125;entryY=0.25;entryDx=0;entryDy=0;entryPerimeter=0;dashed=1;startArrow=none;startFill=0;endArrow=none;endFill=0;strokeColor=#232F3E;strokeWidth=1;exitX=0.875;exitY=0.75;exitDx=0;exitDy=0;exitPerimeter=0;" parent="yWTK7wSygGAMq-4Vs5H4-67" source="yWTK7wSygGAMq-4Vs5H4-42" target="yWTK7wSygGAMq-4Vs5H4-45" edge="1">
          <mxGeometry relative="1" as="geometry" />
        </mxCell>
        <mxCell id="yWTK7wSygGAMq-4Vs5H4-52" style="edgeStyle=none;rounded=1;jumpStyle=line;orthogonalLoop=1;jettySize=auto;html=1;entryX=0.875;entryY=0.75;entryDx=0;entryDy=0;entryPerimeter=0;dashed=1;startArrow=none;startFill=0;endArrow=none;endFill=0;strokeColor=#232F3E;strokeWidth=1;exitX=0.125;exitY=0.25;exitDx=0;exitDy=0;exitPerimeter=0;" parent="yWTK7wSygGAMq-4Vs5H4-67" source="yWTK7wSygGAMq-4Vs5H4-43" target="yWTK7wSygGAMq-4Vs5H4-45" edge="1">
          <mxGeometry relative="1" as="geometry" />
        </mxCell>
        <mxCell id="yWTK7wSygGAMq-4Vs5H4-54" style="edgeStyle=none;rounded=1;jumpStyle=line;orthogonalLoop=1;jettySize=auto;html=1;entryX=0.125;entryY=0.75;entryDx=0;entryDy=0;entryPerimeter=0;dashed=1;startArrow=none;startFill=0;endArrow=none;endFill=0;strokeColor=#232F3E;strokeWidth=1;exitX=0.875;exitY=0.25;exitDx=0;exitDy=0;exitPerimeter=0;" parent="yWTK7wSygGAMq-4Vs5H4-67" source="yWTK7wSygGAMq-4Vs5H4-44" target="yWTK7wSygGAMq-4Vs5H4-45" edge="1">
          <mxGeometry relative="1" as="geometry" />
        </mxCell>
        <mxCell id="yWTK7wSygGAMq-4Vs5H4-50" style="edgeStyle=none;rounded=1;jumpStyle=line;orthogonalLoop=1;jettySize=auto;html=1;dashed=1;startArrow=none;startFill=0;endArrow=none;endFill=0;strokeColor=#232F3E;strokeWidth=1;" parent="yWTK7wSygGAMq-4Vs5H4-67" source="yWTK7wSygGAMq-4Vs5H4-46" target="yWTK7wSygGAMq-4Vs5H4-45" edge="1">
          <mxGeometry relative="1" as="geometry" />
        </mxCell>
        <mxCell id="yWTK7wSygGAMq-4Vs5H4-56" style="edgeStyle=none;rounded=1;jumpStyle=line;orthogonalLoop=1;jettySize=auto;html=1;entryX=0.125;entryY=0.25;entryDx=0;entryDy=0;entryPerimeter=0;dashed=1;startArrow=none;startFill=0;endArrow=none;endFill=0;strokeColor=#232F3E;strokeWidth=1;exitX=0.875;exitY=0.75;exitDx=0;exitDy=0;exitPerimeter=0;" parent="yWTK7wSygGAMq-4Vs5H4-67" source="yWTK7wSygGAMq-4Vs5H4-46" target="yWTK7wSygGAMq-4Vs5H4-40" edge="1">
          <mxGeometry relative="1" as="geometry" />
        </mxCell>
        <mxCell id="yWTK7wSygGAMq-4Vs5H4-64" style="edgeStyle=none;rounded=1;jumpStyle=line;orthogonalLoop=1;jettySize=auto;html=1;entryX=0.25;entryY=0;entryDx=0;entryDy=0;entryPerimeter=0;dashed=1;startArrow=none;startFill=0;endArrow=none;endFill=0;strokeColor=#232F3E;strokeWidth=1;" parent="yWTK7wSygGAMq-4Vs5H4-67" source="yWTK7wSygGAMq-4Vs5H4-46" target="yWTK7wSygGAMq-4Vs5H4-43" edge="1">
          <mxGeometry relative="1" as="geometry" />
        </mxCell>
        <mxCell id="yWTK7wSygGAMq-4Vs5H4-65" style="edgeStyle=none;rounded=1;jumpStyle=line;orthogonalLoop=1;jettySize=auto;html=1;entryX=0.75;entryY=0;entryDx=0;entryDy=0;entryPerimeter=0;dashed=1;startArrow=none;startFill=0;endArrow=none;endFill=0;strokeColor=#232F3E;strokeWidth=1;" parent="yWTK7wSygGAMq-4Vs5H4-67" source="yWTK7wSygGAMq-4Vs5H4-46" target="yWTK7wSygGAMq-4Vs5H4-44" edge="1">
          <mxGeometry relative="1" as="geometry" />
        </mxCell>
        <mxCell id="yWTK7wSygGAMq-4Vs5H4-46" value="" style="points=[[0.5,0,0],[1,0.5,0],[0.5,1,0],[0,0.5,0],[0.25,0,0],[0.75,0,0],[0.25,1,0],[0.75,1,0],[0.125,0.25,0],[0.875,0.25,0],[0.875,0.75,0],[0.125,0.75,0]];verticalLabelPosition=bottom;sketch=0;html=1;verticalAlign=top;aspect=fixed;align=center;pointerEvents=1;shape=mxgraph.cisco19.rect;prIcon=asr_1000;fillColor=#FAFAFA;strokeColor=#005073;rounded=1;shadow=0;glass=0;" parent="yWTK7wSygGAMq-4Vs5H4-67" vertex="1">
          <mxGeometry x="101" width="56.99999999999999" height="50" as="geometry" />
        </mxCell>
        <mxCell id="yWTK7wSygGAMq-4Vs5H4-55" style="edgeStyle=none;rounded=1;jumpStyle=line;orthogonalLoop=1;jettySize=auto;html=1;entryX=0.125;entryY=0.75;entryDx=0;entryDy=0;entryPerimeter=0;dashed=1;startArrow=none;startFill=0;endArrow=none;endFill=0;strokeColor=#232F3E;strokeWidth=1;exitX=0.875;exitY=0.25;exitDx=0;exitDy=0;exitPerimeter=0;" parent="yWTK7wSygGAMq-4Vs5H4-67" source="yWTK7wSygGAMq-4Vs5H4-42" target="yWTK7wSygGAMq-4Vs5H4-46" edge="1">
          <mxGeometry relative="1" as="geometry" />
        </mxCell>
        <mxCell id="yWTK7wSygGAMq-4Vs5H4-53" style="edgeStyle=none;rounded=1;jumpStyle=line;orthogonalLoop=1;jettySize=auto;html=1;entryX=0.5;entryY=1;entryDx=0;entryDy=0;entryPerimeter=0;dashed=1;startArrow=none;startFill=0;endArrow=none;endFill=0;strokeColor=#232F3E;strokeWidth=1;" parent="yWTK7wSygGAMq-4Vs5H4-67" source="yWTK7wSygGAMq-4Vs5H4-47" target="yWTK7wSygGAMq-4Vs5H4-45" edge="1">
          <mxGeometry relative="1" as="geometry" />
        </mxCell>
        <mxCell id="yWTK7wSygGAMq-4Vs5H4-59" style="edgeStyle=none;rounded=1;jumpStyle=line;orthogonalLoop=1;jettySize=auto;html=1;entryX=0.875;entryY=0.75;entryDx=0;entryDy=0;entryPerimeter=0;dashed=1;startArrow=none;startFill=0;endArrow=none;endFill=0;strokeColor=#232F3E;strokeWidth=1;" parent="yWTK7wSygGAMq-4Vs5H4-67" source="yWTK7wSygGAMq-4Vs5H4-47" target="yWTK7wSygGAMq-4Vs5H4-44" edge="1">
          <mxGeometry relative="1" as="geometry" />
        </mxCell>
        <mxCell id="yWTK7wSygGAMq-4Vs5H4-63" style="edgeStyle=none;rounded=1;jumpStyle=line;orthogonalLoop=1;jettySize=auto;html=1;entryX=0.75;entryY=1;entryDx=0;entryDy=0;entryPerimeter=0;dashed=1;startArrow=none;startFill=0;endArrow=none;endFill=0;strokeColor=#232F3E;strokeWidth=1;" parent="yWTK7wSygGAMq-4Vs5H4-67" source="yWTK7wSygGAMq-4Vs5H4-47" target="yWTK7wSygGAMq-4Vs5H4-42" edge="1">
          <mxGeometry relative="1" as="geometry" />
        </mxCell>
        <mxCell id="yWTK7wSygGAMq-4Vs5H4-47" value="" style="points=[[0.5,0,0],[1,0.5,0],[0.5,1,0],[0,0.5,0],[0.25,0,0],[0.75,0,0],[0.25,1,0],[0.75,1,0],[0.125,0.25,0],[0.875,0.25,0],[0.875,0.75,0],[0.125,0.75,0]];verticalLabelPosition=bottom;sketch=0;html=1;verticalAlign=top;aspect=fixed;align=center;pointerEvents=1;shape=mxgraph.cisco19.rect;prIcon=asr_1000;fillColor=#FAFAFA;strokeColor=#005073;rounded=1;shadow=0;glass=0;" parent="yWTK7wSygGAMq-4Vs5H4-67" vertex="1">
          <mxGeometry x="101" y="224" width="56.99999999999999" height="50" as="geometry" />
        </mxCell>
        <mxCell id="yWTK7wSygGAMq-4Vs5H4-62" style="edgeStyle=none;rounded=1;jumpStyle=line;orthogonalLoop=1;jettySize=auto;html=1;entryX=0.75;entryY=0;entryDx=0;entryDy=0;entryPerimeter=0;dashed=1;startArrow=none;startFill=0;endArrow=none;endFill=0;strokeColor=#232F3E;strokeWidth=1;" parent="yWTK7wSygGAMq-4Vs5H4-67" source="yWTK7wSygGAMq-4Vs5H4-40" target="yWTK7wSygGAMq-4Vs5H4-47" edge="1">
          <mxGeometry relative="1" as="geometry" />
        </mxCell>
        <mxCell id="yWTK7wSygGAMq-4Vs5H4-58" style="edgeStyle=none;rounded=1;jumpStyle=line;orthogonalLoop=1;jettySize=auto;html=1;entryX=0.875;entryY=0.25;entryDx=0;entryDy=0;entryPerimeter=0;dashed=1;startArrow=none;startFill=0;endArrow=none;endFill=0;strokeColor=#232F3E;strokeWidth=1;" parent="yWTK7wSygGAMq-4Vs5H4-67" source="yWTK7wSygGAMq-4Vs5H4-43" target="yWTK7wSygGAMq-4Vs5H4-47" edge="1">
          <mxGeometry relative="1" as="geometry" />
        </mxCell>
        <mxCell id="yWTK7wSygGAMq-4Vs5H4-73" style="edgeStyle=none;rounded=1;jumpStyle=line;orthogonalLoop=1;jettySize=auto;html=1;entryX=0;entryY=0.5;entryDx=0;entryDy=0;dashed=1;startArrow=none;startFill=0;endArrow=none;endFill=0;strokeColor=#232F3E;strokeWidth=1;" parent="1" source="yWTK7wSygGAMq-4Vs5H4-71" target="yWTK7wSygGAMq-4Vs5H4-25" edge="1">
          <mxGeometry relative="1" as="geometry" />
        </mxCell>
        <mxCell id="yWTK7wSygGAMq-4Vs5H4-71" value="" style="sketch=0;outlineConnect=0;fontColor=#232F3E;gradientColor=none;fillColor=#4D27AA;strokeColor=none;dashed=0;verticalLabelPosition=bottom;verticalAlign=top;align=center;html=1;fontSize=12;fontStyle=0;aspect=fixed;pointerEvents=1;shape=mxgraph.aws4.vpn_gateway;rounded=0;shadow=0;glass=0;" parent="1" vertex="1">
          <mxGeometry x="-700" y="95.99999999999999" width="40" height="38.22" as="geometry" />
        </mxCell>
        <mxCell id="yWTK7wSygGAMq-4Vs5H4-75" value="" style="verticalLabelPosition=bottom;sketch=0;aspect=fixed;html=1;verticalAlign=top;strokeColor=none;align=center;outlineConnect=0;shape=mxgraph.citrix.globe;rounded=1;shadow=0;glass=0;fillColor=none;" parent="1" vertex="1">
          <mxGeometry x="1721" y="289" width="40" height="38.22" as="geometry" />
        </mxCell>
        <mxCell id="yWTK7wSygGAMq-4Vs5H4-77" value="" style="rounded=1;whiteSpace=wrap;html=1;shadow=0;sketch=0;strokeColor=#232F3E;strokeWidth=3;fillColor=none;glass=0;" parent="1" vertex="1">
          <mxGeometry x="-605" y="-326.5" width="728" height="219" as="geometry" />
        </mxCell>
        <mxCell id="yWTK7wSygGAMq-4Vs5H4-78" value="Transit VPC" style="points=[[0,0],[0.25,0],[0.5,0],[0.75,0],[1,0],[1,0.25],[1,0.5],[1,0.75],[1,1],[0.75,1],[0.5,1],[0.25,1],[0,1],[0,0.75],[0,0.5],[0,0.25]];outlineConnect=0;gradientColor=none;html=1;whiteSpace=wrap;fontSize=12;fontStyle=0;container=0;pointerEvents=0;collapsible=0;recursiveResize=0;shape=mxgraph.aws4.group;grIcon=mxgraph.aws4.group_vpc;strokeColor=#248814;fillColor=none;verticalAlign=top;align=left;spacingLeft=30;fontColor=#AAB7B8;dashed=0;comic=0;" parent="1" vertex="1">
          <mxGeometry x="-213" y="-265.5" width="130" height="97" as="geometry" />
        </mxCell>
        <mxCell id="yWTK7wSygGAMq-4Vs5H4-91" style="edgeStyle=none;rounded=1;jumpStyle=line;orthogonalLoop=1;jettySize=auto;html=1;dashed=1;startArrow=none;startFill=0;endArrow=block;endFill=1;strokeColor=#232F3E;strokeWidth=1;" parent="1" source="yWTK7wSygGAMq-4Vs5H4-84" target="yWTK7wSygGAMq-4Vs5H4-89" edge="1">
          <mxGeometry relative="1" as="geometry" />
        </mxCell>
        <mxCell id="yWTK7wSygGAMq-4Vs5H4-84" value="On-Prem" style="points=[[0,0],[0.25,0],[0.5,0],[0.75,0],[1,0],[1,0.25],[1,0.5],[1,0.75],[1,1],[0.75,1],[0.5,1],[0.25,1],[0,1],[0,0.75],[0,0.5],[0,0.25]];outlineConnect=0;gradientColor=none;html=1;whiteSpace=wrap;fontSize=12;fontStyle=0;container=1;pointerEvents=0;collapsible=0;recursiveResize=0;shape=mxgraph.aws4.group;grIcon=mxgraph.aws4.group_corporate_data_center;strokeColor=#5A6C86;fillColor=none;verticalAlign=top;align=left;spacingLeft=30;fontColor=#5A6C86;dashed=0;rounded=0;comic=0;" parent="1" vertex="1">
          <mxGeometry x="-566" y="-295" width="170" height="156" as="geometry" />
        </mxCell>
        <mxCell id="yWTK7wSygGAMq-4Vs5H4-85" value="" style="sketch=0;points=[[0.5,0,0],[1,0.5,0],[0.5,1,0],[0,0.5,0],[0.145,0.145,0],[0.8555,0.145,0],[0.855,0.8555,0],[0.145,0.855,0]];verticalLabelPosition=bottom;html=1;verticalAlign=top;aspect=fixed;align=center;pointerEvents=1;shape=mxgraph.cisco19.rect;prIcon=router_with_firewall;fillColor=#FAFAFA;strokeColor=#005073;rounded=0;fontSize=8;comic=0;" parent="yWTK7wSygGAMq-4Vs5H4-84" vertex="1">
          <mxGeometry x="60" y="53" width="50" height="50" as="geometry" />
        </mxCell>
        <mxCell id="yWTK7wSygGAMq-4Vs5H4-86" value="" style="sketch=0;pointerEvents=1;shadow=0;dashed=0;html=1;strokeColor=none;fillColor=#505050;labelPosition=center;verticalLabelPosition=bottom;verticalAlign=top;outlineConnect=0;align=center;shape=mxgraph.office.servers.active_directory_federation_services_server;rounded=0;labelBackgroundColor=none;fontSize=10;fontColor=none;comic=0;" parent="yWTK7wSygGAMq-4Vs5H4-84" vertex="1">
          <mxGeometry x="130" y="8" width="35" height="38" as="geometry" />
        </mxCell>
        <mxCell id="yWTK7wSygGAMq-4Vs5H4-87" value="" style="sketch=0;outlineConnect=0;fontColor=#232F3E;gradientColor=none;fillColor=#232F3D;strokeColor=none;dashed=0;verticalLabelPosition=bottom;verticalAlign=top;align=center;html=1;fontSize=12;fontStyle=0;aspect=fixed;pointerEvents=1;shape=mxgraph.aws4.saml_token;rounded=0;labelBackgroundColor=none;comic=0;" parent="yWTK7wSygGAMq-4Vs5H4-84" vertex="1">
          <mxGeometry x="90" y="8" width="38" height="38" as="geometry" />
        </mxCell>
        <mxCell id="yWTK7wSygGAMq-4Vs5H4-88" value="" style="sketch=0;pointerEvents=1;shadow=0;dashed=0;html=1;strokeColor=none;fillColor=#505050;labelPosition=center;verticalLabelPosition=bottom;verticalAlign=top;outlineConnect=0;align=center;shape=mxgraph.office.servers.file_server;rounded=0;glass=0;labelBackgroundColor=none;comic=0;fontSize=10;fontColor=none;" parent="yWTK7wSygGAMq-4Vs5H4-84" vertex="1">
          <mxGeometry x="130" y="111" width="35" height="38" as="geometry" />
        </mxCell>
        <mxCell id="yWTK7wSygGAMq-4Vs5H4-96" style="edgeStyle=none;rounded=1;jumpStyle=line;orthogonalLoop=1;jettySize=auto;html=1;dashed=1;startArrow=none;startFill=0;endArrow=none;endFill=0;strokeColor=#232F3E;strokeWidth=1;" parent="1" source="yWTK7wSygGAMq-4Vs5H4-81" target="yWTK7wSygGAMq-4Vs5H4-92" edge="1">
          <mxGeometry relative="1" as="geometry" />
        </mxCell>
        <mxCell id="yWTK7wSygGAMq-4Vs5H4-81" value="" style="sketch=0;outlineConnect=0;fontColor=#232F3E;gradientColor=none;fillColor=#4D27AA;strokeColor=none;dashed=0;verticalLabelPosition=bottom;verticalAlign=top;align=center;html=1;fontSize=12;fontStyle=0;aspect=fixed;pointerEvents=1;shape=mxgraph.aws4.internet_gateway;rounded=0;comic=0;" parent="1" vertex="1">
          <mxGeometry x="-98" y="-256.5" width="30" height="30" as="geometry" />
        </mxCell>
        <mxCell id="yWTK7wSygGAMq-4Vs5H4-98" style="edgeStyle=none;rounded=1;jumpStyle=line;orthogonalLoop=1;jettySize=auto;html=1;dashed=1;startArrow=none;startFill=0;endArrow=none;endFill=0;strokeColor=#232F3E;strokeWidth=1;" parent="1" source="yWTK7wSygGAMq-4Vs5H4-89" target="yWTK7wSygGAMq-4Vs5H4-90" edge="1">
          <mxGeometry relative="1" as="geometry" />
        </mxCell>
        <mxCell id="yWTK7wSygGAMq-4Vs5H4-99" style="edgeStyle=none;rounded=1;jumpStyle=line;orthogonalLoop=1;jettySize=auto;html=1;dashed=1;startArrow=none;startFill=0;endArrow=none;endFill=0;strokeColor=#232F3E;strokeWidth=1;" parent="1" source="yWTK7wSygGAMq-4Vs5H4-89" target="yWTK7wSygGAMq-4Vs5H4-81" edge="1">
          <mxGeometry relative="1" as="geometry" />
        </mxCell>
        <mxCell id="yWTK7wSygGAMq-4Vs5H4-89" value="VPN" style="sketch=0;outlineConnect=0;fontColor=#232F3E;gradientColor=none;fillColor=#D45B07;strokeColor=none;dashed=0;verticalLabelPosition=bottom;verticalAlign=top;align=center;html=1;fontSize=12;fontStyle=0;aspect=fixed;pointerEvents=1;shape=mxgraph.aws4.instance2;rounded=0;labelBackgroundColor=none;comic=0;" parent="1" vertex="1">
          <mxGeometry x="-167" y="-236" width="38" height="38" as="geometry" />
        </mxCell>
        <mxCell id="yWTK7wSygGAMq-4Vs5H4-97" style="edgeStyle=none;rounded=1;jumpStyle=line;orthogonalLoop=1;jettySize=auto;html=1;dashed=1;startArrow=none;startFill=0;endArrow=none;endFill=0;strokeColor=#232F3E;strokeWidth=1;" parent="1" source="yWTK7wSygGAMq-4Vs5H4-90" target="yWTK7wSygGAMq-4Vs5H4-93" edge="1">
          <mxGeometry relative="1" as="geometry" />
        </mxCell>
        <mxCell id="yWTK7wSygGAMq-4Vs5H4-90" value="" style="sketch=0;outlineConnect=0;fontColor=#232F3E;gradientColor=none;fillColor=#4D27AA;strokeColor=none;dashed=0;verticalLabelPosition=bottom;verticalAlign=top;align=center;html=1;fontSize=12;fontStyle=0;aspect=fixed;pointerEvents=1;shape=mxgraph.aws4.endpoints;rounded=0;shadow=0;glass=0;" parent="1" vertex="1">
          <mxGeometry x="-98.00000000000003" y="-209.5" width="30" height="30" as="geometry" />
        </mxCell>
        <mxCell id="yWTK7wSygGAMq-4Vs5H4-92" value="" style="verticalLabelPosition=bottom;sketch=0;aspect=fixed;html=1;verticalAlign=top;strokeColor=none;align=center;outlineConnect=0;shape=mxgraph.citrix.globe;rounded=1;shadow=0;glass=0;fillColor=none;" parent="1" vertex="1">
          <mxGeometry x="42" y="-260.61" width="40" height="38.22" as="geometry" />
        </mxCell>
        <mxCell id="yWTK7wSygGAMq-4Vs5H4-93" value="" style="sketch=0;outlineConnect=0;fontColor=#232F3E;gradientColor=none;fillColor=#3F8624;strokeColor=none;dashed=0;verticalLabelPosition=bottom;verticalAlign=top;align=center;html=1;fontSize=12;fontStyle=0;aspect=fixed;pointerEvents=1;shape=mxgraph.aws4.bucket;rounded=0;shadow=0;glass=0;" parent="1" vertex="1">
          <mxGeometry x="47" y="-210.1" width="30" height="31.2" as="geometry" />
        </mxCell>
        <mxCell id="o_qxe3INDuo4RFB_LgJy-1" value="Load-balance Appliances" style="sketch=0;outlineConnect=0;fontColor=#232F3E;gradientColor=none;fillColor=#4D27AA;strokeColor=none;dashed=0;verticalLabelPosition=bottom;verticalAlign=top;align=center;html=1;fontSize=12;fontStyle=0;aspect=fixed;pointerEvents=1;shape=mxgraph.aws4.gateway_load_balancer;rounded=0;comic=0;" vertex="1" parent="1">
          <mxGeometry x="1597" y="-160" width="40" height="40" as="geometry" />
        </mxCell>
      </root>
    </mxGraphModel>
  </diagram>
</mxfile>
